<svg viewBox="0 0 1133 804" width="1133" xmlns:xlink="http://www.w3.org/1999/xlink" xmlns="http://www.w3.org/2000/svg" xmlns:ev="http://www.w3.org/2001/xml-events" height="804"><style type="text/css"><![CDATA[
.st1 {fill:#000000;font-family:Arial;font-size:10pt}
.st3 {fill:#1f6391;font-family:Arial;font-size:10pt}
.st2 {font-family:Sans Serif;font-size:9pt}
]]></style><defs/><g transform="translate(5,5)" id="page1"><rect fill="#ffffff" width="1123" y="0" x="0" stroke="#808080" height="794"/><g transform="translate(468.79,202.82)" id="shape1"><path fill="none" d="M106.2,56C114.2,56,120.7,49.5,120.7,41.5L120.7,14.5C120.7,6.5,114.2,0,106.2,0L14.5,0C6.5,0,0,6.5,0,14.5L0,41.5C0,49.5,6.5,56,14.5,56L106.2,56z" stroke="#3498db"/><text class="st1"><tspan y="16.5" x="30.4">Display all </tspan><tspan y="31.5" x="19.4">tenants info of </tspan><tspan y="46.5" x="16.4">selected house</tspan></text></g><g transform="translate(468.79,287.97)" id="shape2"><path fill="none" d="M106.2,56C114.2,56,120.7,49.5,120.7,41.5L120.7,14.5C120.7,6.5,114.2,0,106.2,0L14.5,0C6.5,0,0,6.5,0,14.5L0,41.5C0,49.5,6.5,56,14.5,56L106.2,56z" stroke="#3498db"/><text class="st1"><tspan y="24" x="13.4">Display selected </tspan><tspan y="39" x="26.4">tenants info</tspan></text></g><g transform="translate(608.76,521.04)" id="shape3"><path fill="none" d="M99.4,59C106.9,59,113,52.9,113,45.4L113,13.6C113,6.1,106.9,0,99.4,0L13.6,0C6.1,0,0,6.1,0,13.6L0,45.4C0,52.9,6.1,59,13.6,59L99.4,59z" stroke="#3498db"/><text class="st1"><tspan class="st2" y="18" x="10">Delete selected </tspan><tspan class="st2" y="33" x="37">tenant </tspan><tspan class="st2" y="48" x="22">information</tspan></text></g><g transform="translate(529.15,258.82)" id="shape4"><path fill="none" d="M0,0L0,29.1" stroke="#3498db"/><path fill="none" d="M6,17.1L0,29.1L-6,17.1" stroke-linecap="round" stroke-width="1" stroke-linejoin="round" stroke="#3498db"/></g><g transform="translate(529.15,343.97)" id="shape5"><path fill="none" d="M0,0L0,29.1" stroke="#3498db"/><path fill="none" d="M6,17.1L0,29.1L-6,17.1" stroke-linecap="round" stroke-width="1" stroke-linejoin="round" stroke="#3498db"/></g><path fill="#3498db" transform="translate(516.15,147.67)" id="shape6" d="M0,13C0,5.8,5.8,0,13,0C20.2,0,26,5.8,26,13C26,20.2,20.2,26,13,26C5.8,26,0,20.2,0,13z" stroke="#3498db"/><g transform="translate(516.15,620.04)"><path fill="#3498db" transform="translate(0.28,0.04)" id="shape7" d="M0,13C0,5.8,5.8,0,13,0C20.1,0,25.9,5.8,25.9,13C25.9,20.1,20.1,25.9,13,25.9C5.8,25.9,0,20.1,0,13z" stroke="#ffffff"/><path fill="#3498db" transform="translate(3.25,3.25)" id="shape8" d="M0,9.8C0,4.4,4.4,0,9.8,0C15.1,0,19.5,4.4,19.5,9.8C19.5,15.1,15.1,19.5,9.8,19.5C4.4,19.5,0,15.1,0,9.8z" stroke="#ffffff"/></g><g transform="translate(529.15,173.67)" id="shape9"><path fill="none" d="M0,0L0,29.1" stroke="#3498db"/><path fill="none" d="M6,17.1L0,29.1L-6,17.1" stroke-linecap="round" stroke-width="1" stroke-linejoin="round" stroke="#3498db"/></g><g transform="translate(458.15,373.12)" id="shape10"><path fill="none" d="M71,122.5L142,61.3L71,0L0,61.3L71,122.5z" stroke="#3498db"/><text class="st1"><tspan y="64.8" x="28.8">Delete request</tspan></text></g><g transform="translate(600.15,434.37)" id="shape11"><path fill="none" d="M0,0L65.1,0L65.1,86.7" stroke="#3498db"/><path fill="none" d="M71.1,74.7L65.1,86.7L59.1,74.7" stroke-linecap="round" stroke-width="1" stroke-linejoin="round" stroke="#3498db"/></g><g transform="translate(458.15,434.37)" id="shape12"><path fill="none" d="M0,0L-52.4,0L-52.4,-203.5L10.6,-203.5" stroke="#3498db"/><path fill="none" d="M-1.4,-209.5L10.6,-203.5L-1.4,-197.5" stroke-linecap="round" stroke-width="1" stroke-linejoin="round" stroke="#3498db"/></g><g transform="translate(601.53,405.12)" id="shape13"><text class="st3"><tspan y="14.4" x="8.6">Confirm</tspan></text></g><g transform="translate(400.76,441.12)" id="shape14"><text class="st3"><tspan y="14.4" x="8.6">Cancel</tspan></text></g><g transform="translate(472.65,520.54)" id="shape15"><path fill="none" d="M99.4,59C106.9,59,113,52.9,113,45.4L113,13.6C113,6.1,106.9,0,99.4,0L13.6,0C6.1,0,0,6.1,0,13.6L0,45.4C0,52.9,6.1,59,13.6,59L99.4,59z" stroke="#3498db"/><text class="st1"><tspan class="st2" y="25.5" x="10">Update tenants </tspan><tspan class="st2" y="40.5" x="11">information list</tspan></text></g><g transform="translate(529.15,579.54)" id="shape16"><path fill="none" d="M0,0L0,40.5" stroke="#3498db"/><path fill="none" d="M6,28.5L0,40.5L-6,28.5" stroke-linecap="round" stroke-width="1" stroke-linejoin="round" stroke="#3498db"/></g><g transform="translate(608.76,550.54)" id="shape17"><path fill="none" d="M0,0L-23.1,-0.5" stroke="#3498db"/><path fill="none" d="M-11.2,5.8L-23.1,-0.5L-11,-6.2" stroke-linecap="round" stroke-width="1" stroke-linejoin="round" stroke="#3498db"/></g></g></svg>