<svg viewBox="0 0 1133 804" width="1133" xmlns:xlink="http://www.w3.org/1999/xlink" xmlns="http://www.w3.org/2000/svg" xmlns:ev="http://www.w3.org/2001/xml-events" height="804"><style type="text/css"><![CDATA[
.st1 {fill:#000000;font-family:Arial;font-size:10pt}
.st3 {fill:#1f6391;font-family:Arial;font-size:10pt}
.st2 {font-family:Sans Serif;font-size:9pt}
]]></style><defs/><g transform="translate(5,5)" id="page1"><rect fill="#ffffff" width="1123" y="0" x="0" stroke="#808080" height="794"/><g transform="translate(563.18,121.59)" id="shape1"><path fill="none" d="M106.2,56C114.2,56,120.7,49.5,120.7,41.5L120.7,14.5C120.7,6.5,114.2,0,106.2,0L14.5,0C6.5,0,0,6.5,0,14.5L0,41.5C0,49.5,6.5,56,14.5,56L106.2,56z" stroke="#3498db"/><text class="st1"><tspan y="24" x="30.4">Display all </tspan><tspan y="39" x="26.4">created ads</tspan></text></g><g transform="translate(623.54,177.59)" id="shape2"><path fill="none" d="M0,0L.8,29.1" stroke="#3498db"/><path fill="none" d="M6.5,17L.8,29.1L-5.5,17.3" stroke-linecap="round" stroke-width="1" stroke-linejoin="round" stroke="#3498db"/></g><path fill="#3498db" transform="translate(610.54,66.44)" id="shape3" d="M0,13C0,5.8,5.8,0,13,0C20.2,0,26,5.8,26,13C26,20.2,20.2,26,13,26C5.8,26,0,20.2,0,13z" stroke="#3498db"/><g transform="translate(610.54,701.27)"><path fill="#3498db" transform="translate(0.28,0.04)" id="shape4" d="M0,13C0,5.8,5.8,0,13,0C20.1,0,25.9,5.8,25.9,13C25.9,20.1,20.1,25.9,13,25.9C5.8,25.9,0,20.1,0,13z" stroke="#ffffff"/><path fill="#3498db" transform="translate(3.25,3.25)" id="shape5" d="M0,9.8C0,4.4,4.4,0,9.8,0C15.1,0,19.5,4.4,19.5,9.8C19.5,15.1,15.1,19.5,9.8,19.5C4.4,19.5,0,15.1,0,9.8z" stroke="#ffffff"/></g><g transform="translate(623.42,662.69)" id="shape6"><path fill="none" d="M0,0L.1,38.6" stroke="#3498db"/><path fill="none" d="M6.1,26.6L.1,38.6L-5.9,26.6" stroke-linecap="round" stroke-width="1" stroke-linejoin="round" stroke="#3498db"/></g><g transform="translate(623.54,92.44)" id="shape7"><path fill="none" d="M0,0L0,29.1" stroke="#3498db"/><path fill="none" d="M6,17.1L0,29.1L-6,17.1" stroke-linecap="round" stroke-width="1" stroke-linejoin="round" stroke="#3498db"/></g><path fill="none" transform="translate(598.15,206.74)" id="shape8" d="M26.2,44.4L52.3,22.2L26.2,0L0,22.2L26.2,44.4z" stroke="#3498db"/><g transform="translate(650.49,228.93)" id="shape9"><path fill="none" d="M0,0L164.3,0L164.3,24.2" stroke="#3498db"/><path fill="none" d="M170.3,12.2L164.3,24.2L158.3,12.2" stroke-linecap="round" stroke-width="1" stroke-linejoin="round" stroke="#3498db"/></g><g transform="translate(598.15,228.93)" id="shape10"><path fill="none" d="M0,0L-147.8,0L-147.8,24.2" stroke="#3498db"/><path fill="none" d="M-141.8,12.2L-147.8,24.2L-153.8,12.2" stroke-linecap="round" stroke-width="1" stroke-linejoin="round" stroke="#3498db"/></g><g transform="translate(679.7,366.11)" id="shape11"><path fill="none" d="M99.4,59C106.9,59,113,52.9,113,45.4L113,13.6C113,6.1,106.9,0,99.4,0L13.6,0C6.1,0,0,6.1,0,13.6L0,45.4C0,52.9,6.1,59,13.6,59L99.4,59z" stroke="#3498db"/><text class="st1"><tspan class="st2" y="18" x="34">Choose </tspan><tspan class="st2" y="33" x="30">payment </tspan><tspan class="st2" y="48" x="27">credential</tspan></text></g><g transform="translate(557.91,282.82)" id="shape12"><path fill="none" d="M66,115.9L132,57.9L66,0L0,57.9L66,115.9z" stroke="#3498db"/><text class="st1"><tspan y="53.9" x="21.6">Is ads duration </tspan><tspan y="68.9" x="37.6">remaining</tspan></text></g><g transform="translate(393.15,253.16)" id="shape13"><path fill="none" d="M99.4,59C106.9,59,113,52.9,113,45.4L113,13.6C113,6.1,106.9,0,99.4,0L13.6,0C6.1,0,0,6.1,0,13.6L0,45.4C0,52.9,6.1,59,13.6,59L99.4,59z" stroke="#3498db"/><text class="st1"><tspan class="st2" y="25.5" x="28">Input ads </tspan><tspan class="st2" y="40.5" x="31">duration</tspan></text></g><g transform="translate(679.7,476.66)" id="shape14"><path fill="none" d="M0,0L-30,0" stroke="#3498db"/><path fill="none" d="M-18,6L-30,0L-18,-6" stroke-linecap="round" stroke-width="1" stroke-linejoin="round" stroke="#3498db"/></g><g transform="translate(449.65,409)" id="shape15"><path fill="none" d="M0,0L0,231.5L147.6,231.5" stroke="#3498db"/><path fill="none" d="M135.6,225.5L147.6,231.5L135.6,237.5" stroke-linecap="round" stroke-width="1" stroke-linejoin="round" stroke="#3498db"/></g><g transform="translate(566.41,520.73)" id="shape16"><path fill="none" d="M99.4,59C106.9,59,113,52.9,113,45.4L113,13.6C113,6.1,106.9,0,99.4,0L13.6,0C6.1,0,0,6.1,0,13.6L0,45.4C0,52.9,6.1,59,13.6,59L99.4,59z" stroke="#3498db"/><text class="st1"><tspan class="st2" y="33" x="20">Remove ads</tspan></text></g><g transform="translate(655.7,199.5)" id="shape17"><text class="st3"><tspan y="14.4" x="63.9">Edit</tspan></text></g><g transform="translate(430.7,199.5)" id="shape18"><text class="st3"><tspan y="14.4" x="67.4">Boost</tspan></text></g><g transform="translate(754.41,253.16)" id="shape19"><path fill="none" d="M106.2,56C114.2,56,120.7,49.5,120.7,41.5L120.7,14.5C120.7,6.5,114.2,0,106.2,0L14.5,0C6.5,0,0,6.5,0,14.5L0,41.5C0,49.5,6.5,56,14.5,56L106.2,56z" stroke="#3498db"/><text class="st1"><tspan y="24" x="39.4">Update </tspan><tspan y="39" x="28.4">information</tspan></text></g><path fill="none" transform="translate(597.37,454.47)" id="shape20" d="M26.2,44.4L52.3,22.2L26.2,0L0,22.2L26.2,44.4z" stroke="#3498db"/><g transform="translate(689.91,340.76)" id="shape21"><path fill="none" d="M0,0L0,1.4L46.3,1.4L46.3,25.4" stroke="#3498db"/><path fill="none" d="M52.3,13.4L46.3,25.4L40.3,13.4" stroke-linecap="round" stroke-width="1" stroke-linejoin="round" stroke="#3498db"/></g><g transform="translate(814.77,309.16)" id="shape22"><path fill="none" d="M0,0L0,331.3L-165.2,331.3" stroke="#3498db"/><path fill="none" d="M-153.2,337.3L-165.2,331.3L-153.2,325.3" stroke-linecap="round" stroke-width="1" stroke-linejoin="round" stroke="#3498db"/></g><g transform="translate(557.91,340.76)" id="shape23"><path fill="none" d="M0,0L-14.7,0L-14.7,135.9L39.5,135.9" stroke="#3498db"/><path fill="none" d="M27.5,129.9L39.5,135.9L27.5,141.9" stroke-linecap="round" stroke-width="1" stroke-linejoin="round" stroke="#3498db"/></g><g transform="translate(393.15,282.66)" id="shape24"><path fill="none" d="M0,0L-32.8,0" stroke="#3498db"/><path fill="none" d="M-20.8,6L-32.8,0L-20.8,-6" stroke-linecap="round" stroke-width="1" stroke-linejoin="round" stroke="#3498db"/></g><g transform="translate(247.38,253.16)" id="shape25"><path fill="none" d="M99.4,59C106.9,59,113,52.9,113,45.4L113,13.6C113,6.1,106.9,0,99.4,0L13.6,0C6.1,0,0,6.1,0,13.6L0,45.4C0,52.9,6.1,59,13.6,59L99.4,59z" stroke="#3498db"/><text class="st1"><tspan class="st2" y="18" x="34">Choose </tspan><tspan class="st2" y="33" x="30">payment </tspan><tspan class="st2" y="48" x="27">credential</tspan></text></g><g transform="translate(247.5,350)" id="shape26"><path fill="none" d="M99.4,59C106.9,59,113,52.9,113,45.4L113,13.6C113,6.1,106.9,0,99.4,0L13.6,0C6.1,0,0,6.1,0,13.6L0,45.4C0,52.9,6.1,59,13.6,59L99.4,59z" stroke="#3498db"/><text class="st1"><tspan class="st2" y="25.5" x="30">Payment </tspan><tspan class="st2" y="40.5" x="25">Successful</tspan></text></g><g transform="translate(393.15,350)" id="shape27"><path fill="none" d="M99.4,59C106.9,59,113,52.9,113,45.4L113,13.6C113,6.1,106.9,0,99.4,0L13.6,0C6.1,0,0,6.1,0,13.6L0,45.4C0,52.9,6.1,59,13.6,59L99.4,59z" stroke="#3498db"/><text class="st1"><tspan class="st2" y="25.5" x="22">Update ads </tspan><tspan class="st2" y="40.5" x="11">information list</tspan></text></g><path fill="none" transform="translate(597.25,618.31)" id="shape28" d="M26.2,44.4L52.3,22.2L26.2,0L0,22.2L26.2,44.4z" stroke="#3498db"/><g transform="translate(303.88,312.16)" id="shape29"><path fill="none" d="M0,0L.1,37.8" stroke="#3498db"/><path fill="none" d="M6.1,25.8L.1,37.8L-5.9,25.9" stroke-linecap="round" stroke-width="1" stroke-linejoin="round" stroke="#3498db"/></g><g transform="translate(360.5,379.5)" id="shape30"><path fill="none" d="M0,0L32.6,0" stroke="#3498db"/><path fill="none" d="M20.6,-6L32.6,0L20.6,6" stroke-linecap="round" stroke-width="1" stroke-linejoin="round" stroke="#3498db"/></g><g transform="translate(679.7,447.16)" id="shape31"><path fill="none" d="M99.4,59C106.9,59,113,52.9,113,45.4L113,13.6C113,6.1,106.9,0,99.4,0L13.6,0C6.1,0,0,6.1,0,13.6L0,45.4C0,52.9,6.1,59,13.6,59L99.4,59z" stroke="#3498db"/><text class="st1"><tspan class="st2" y="18" x="37">Money </tspan><tspan class="st2" y="33" x="20">successfully </tspan><tspan class="st2" y="48" x="44">sent</tspan></text></g><g transform="translate(736.2,425.11)" id="shape32"><path fill="none" d="M0,0L0,22" stroke="#3498db"/><path fill="none" d="M6,10L0,22L-6,10" stroke-linecap="round" stroke-width="1" stroke-linejoin="round" stroke="#3498db"/></g><g transform="translate(623.54,498.85)" id="shape33"><path fill="none" d="M0,0L-0.6,21.9" stroke="#3498db"/><path fill="none" d="M5.7,10.1L-0.6,21.9L-6.3,9.7" stroke-linecap="round" stroke-width="1" stroke-linejoin="round" stroke="#3498db"/></g><g transform="translate(622.91,579.73)" id="shape34"><path fill="none" d="M0,0L.5,38.6" stroke="#3498db"/><path fill="none" d="M6.4,26.5L.5,38.6L-5.6,26.7" stroke-linecap="round" stroke-width="1" stroke-linejoin="round" stroke="#3498db"/></g><g transform="translate(624.32,251.12)" id="shape35"><path fill="none" d="M0,0L-0.4,31.7" stroke="#3498db"/><path fill="none" d="M5.7,19.8L-0.4,31.7L-6.3,19.6" stroke-linecap="round" stroke-width="1" stroke-linejoin="round" stroke="#3498db"/></g><g transform="translate(679.7,317)" id="shape36"><text class="st3"><tspan y="14.4" x="16.4">Yes</tspan></text></g><g transform="translate(537.72,356.11)" id="shape37"><text class="st3"><tspan y="14.4" x="15.5">No</tspan></text></g></g></svg>