<svg viewBox="0 0 1133 804" width="1133" xmlns:xlink="http://www.w3.org/1999/xlink" xmlns="http://www.w3.org/2000/svg" xmlns:ev="http://www.w3.org/2001/xml-events" height="804"><style type="text/css"><![CDATA[
.st1 {fill:#000000;font-family:Arial;font-size:10pt}
.st2 {fill:#1f6391;font-family:Arial;font-size:10pt}
.st3 {font-family:Sans Serif;font-size:9pt}
]]></style><defs/><g transform="translate(5,5)" id="page1"><rect fill="#ffffff" width="1123" y="0" x="0" stroke="#808080" height="794"/><g transform="translate(469.87,145.61)" id="shape1"><path fill="none" d="M106.2,56C114.2,56,120.7,49.5,120.7,41.5L120.7,14.5C120.7,6.5,114.2,0,106.2,0L14.5,0C6.5,0,0,6.5,0,14.5L0,41.5C0,49.5,6.5,56,14.5,56L106.2,56z" stroke="#3498db"/><text class="st1"><tspan y="24" x="13.4">Display new ads </tspan><tspan y="39" x="47.4">form</tspan></text></g><g transform="translate(584.31,589.76)" id="shape2"><path fill="none" d="M106.2,56C114.2,56,120.7,49.5,120.7,41.5L120.7,14.5C120.7,6.5,114.2,0,106.2,0L14.5,0C6.5,0,0,6.5,0,14.5L0,41.5C0,49.5,6.5,56,14.5,56L106.2,56z" stroke="#3498db"/><text class="st1"><tspan y="24" x="27.4">Update ads </tspan><tspan y="39" x="18.4">information list</tspan></text></g><g transform="translate(530.24,201.61)" id="shape3"><path fill="none" d="M0,0L0,29.1" stroke="#3498db"/><path fill="none" d="M6,17.1L0,29.1L-6,17.1" stroke-linecap="round" stroke-width="1" stroke-linejoin="round" stroke="#3498db"/></g><path fill="#3498db" transform="translate(517.24,90.46)" id="shape4" d="M0,13C0,5.8,5.8,0,13,0C20.2,0,26,5.8,26,13C26,20.2,20.2,26,13,26C5.8,26,0,20.2,0,13z" stroke="#3498db"/><g transform="translate(631.81,677.26)"><path fill="#3498db" transform="translate(0.28,0.04)" id="shape5" d="M0,13C0,5.8,5.8,0,13,0C20.1,0,25.9,5.8,25.9,13C25.9,20.1,20.1,25.9,13,25.9C5.8,25.9,0,20.1,0,13z" stroke="#ffffff"/><path fill="#3498db" transform="translate(3.25,3.25)" id="shape6" d="M0,9.8C0,4.4,4.4,0,9.8,0C15.1,0,19.5,4.4,19.5,9.8C19.5,15.1,15.1,19.5,9.8,19.5C4.4,19.5,0,15.1,0,9.8z" stroke="#ffffff"/></g><g transform="translate(530.24,116.46)" id="shape7"><path fill="none" d="M0,0L0,29.1" stroke="#3498db"/><path fill="none" d="M6,17.1L0,29.1L-6,17.1" stroke-linecap="round" stroke-width="1" stroke-linejoin="round" stroke="#3498db"/></g><g transform="translate(459.24,315.79)" id="shape8"><path fill="none" d="M71,122.5L142,61.3L71,0L0,61.3L71,122.5z" stroke="#3498db"/><text class="st1"><tspan y="64.8" x="36">Click submit</tspan></text></g><g transform="translate(601.24,377.04)" id="shape9"><path fill="none" d="M0,0L43.6,0L43.6,32.2" stroke="#3498db"/><path fill="none" d="M49.6,20.2L43.6,32.2L37.6,20.2" stroke-linecap="round" stroke-width="1" stroke-linejoin="round" stroke="#3498db"/></g><g transform="translate(459.24,377.04)" id="shape10"><path fill="none" d="M0,0L-33.5,0L-33.5,-203.4L10.6,-203.4" stroke="#3498db"/><path fill="none" d="M-1.4,-209.4L10.6,-203.4L-1.4,-197.4" stroke-linecap="round" stroke-width="1" stroke-linejoin="round" stroke="#3498db"/></g><g transform="translate(580.75,352.26)" id="shape11"><text class="st2"><tspan y="14.4" x="20.6">Yes</tspan></text></g><g transform="translate(417.48,353.26)" id="shape12"><text class="st2"><tspan y="14.4" x="20.6">No</tspan></text></g><g transform="translate(644.68,645.76)" id="shape13"><path fill="none" d="M0,0L.1,31.5" stroke="#3498db"/><path fill="none" d="M6.1,19.5L.1,31.5L-5.9,19.5" stroke-linecap="round" stroke-width="1" stroke-linejoin="round" stroke="#3498db"/></g><g transform="translate(469.87,230.76)" id="shape14"><path fill="none" d="M106.2,56C114.2,56,120.7,49.5,120.7,41.5L120.7,14.5C120.7,6.5,114.2,0,106.2,0L14.5,0C6.5,0,0,6.5,0,14.5L0,41.5C0,49.5,6.5,56,14.5,56L106.2,56z" stroke="#3498db"/><text class="st1"><tspan y="24" x="33.4">Input ads </tspan><tspan y="39" x="28.4">information</tspan></text></g><g transform="translate(588.18,499.26)" id="shape15"><path fill="none" d="M99.4,59C106.9,59,113,52.9,113,45.4L113,13.6C113,6.1,106.9,0,99.4,0L13.6,0C6.1,0,0,6.1,0,13.6L0,45.4C0,52.9,6.1,59,13.6,59L99.4,59z" stroke="#3498db"/><text class="st1"><tspan class="st3" y="25.5" x="13">Calculate total </tspan><tspan class="st3" y="40.5" x="44">cost</tspan></text></g><g transform="translate(644.81,468.26)" id="shape16"><path fill="none" d="M0,0L-0.1,31" stroke="#3498db"/><path fill="none" d="M5.9,19L-0.1,31L-6.1,19" stroke-linecap="round" stroke-width="1" stroke-linejoin="round" stroke="#3498db"/></g><g transform="translate(588.31,409.26)" id="shape17"><path fill="none" d="M99.4,59C106.9,59,113,52.9,113,45.4L113,13.6C113,6.1,106.9,0,99.4,0L13.6,0C6.1,0,0,6.1,0,13.6L0,45.4C0,52.9,6.1,59,13.6,59L99.4,59z" stroke="#3498db"/><text class="st1"><tspan y="25.5" x="33">Input ad </tspan><tspan y="40.5" x="33">duration</tspan></text></g><g transform="translate(530.24,286.76)" id="shape18"><path fill="none" d="M0,0L0,29" stroke="#3498db"/><path fill="none" d="M6,17L0,29L-6,17" stroke-linecap="round" stroke-width="1" stroke-linejoin="round" stroke="#3498db"/></g><g transform="translate(430.24,499.26)" id="shape19"><path fill="none" d="M99.4,59C106.9,59,113,52.9,113,45.4L113,13.6C113,6.1,106.9,0,99.4,0L13.6,0C6.1,0,0,6.1,0,13.6L0,45.4C0,52.9,6.1,59,13.6,59L99.4,59z" stroke="#3498db"/><text class="st1"><tspan class="st3" y="25.5" x="28">Complete </tspan><tspan class="st3" y="40.5" x="30">payment</tspan></text></g><g transform="translate(430.24,588.26)" id="shape20"><path fill="none" d="M99.4,59C106.9,59,113,52.9,113,45.4L113,13.6C113,6.1,106.9,0,99.4,0L13.6,0C6.1,0,0,6.1,0,13.6L0,45.4C0,52.9,6.1,59,13.6,59L99.4,59z" stroke="#3498db"/><text class="st1"><tspan class="st3" y="25.5" x="28">Store ads </tspan><tspan class="st3" y="40.5" x="22">information</tspan></text></g><g transform="translate(486.74,558.26)" id="shape21"><path fill="none" d="M0,0L0,30" stroke="#3498db"/><path fill="none" d="M6,18L0,30L-6,18" stroke-linecap="round" stroke-width="1" stroke-linejoin="round" stroke="#3498db"/></g><g transform="translate(543.24,617.76)" id="shape22"><path fill="none" d="M0,0L41.1,0" stroke="#3498db"/><path fill="none" d="M29.1,-6L41.1,0L29.1,6" stroke-linecap="round" stroke-width="1" stroke-linejoin="round" stroke="#3498db"/></g><g transform="translate(588.18,528.76)" id="shape23"><path fill="none" d="M0,0L-44.9,0" stroke="#3498db"/><path fill="none" d="M-32.9,6L-44.9,0L-32.9,-6" stroke-linecap="round" stroke-width="1" stroke-linejoin="round" stroke="#3498db"/></g></g></svg>