<svg viewBox="0 0 1133 804" width="1133" xmlns:xlink="http://www.w3.org/1999/xlink" xmlns="http://www.w3.org/2000/svg" xmlns:ev="http://www.w3.org/2001/xml-events" height="804"><style type="text/css"><![CDATA[
.st1 {fill:#000000;font-family:Arial;font-size:10pt}
.st2 {fill:#1f6391;font-family:Arial;font-size:10pt}
.st3 {font-family:Sans Serif;font-size:9pt}
]]></style><defs/><g transform="translate(5,5)" id="page1"><rect fill="#ffffff" width="1123" y="0" x="0" stroke="#808080" height="794"/><g transform="translate(497.12,199.35)" id="shape1"><path fill="none" d="M106.2,56C114.2,56,120.7,49.5,120.7,41.5L120.7,14.5C120.7,6.5,114.2,0,106.2,0L14.5,0C6.5,0,0,6.5,0,14.5L0,41.5C0,49.5,6.5,56,14.5,56L106.2,56z" stroke="#3498db"/><text class="st1"><tspan y="24" x="30.4">Display all </tspan><tspan y="39" x="26.4">created ads</tspan></text></g><g transform="translate(651.33,284.53)" id="shape2"><path fill="none" d="M106.2,56C114.2,56,120.7,49.5,120.7,41.5L120.7,14.5C120.7,6.5,114.2,0,106.2,0L14.5,0C6.5,0,0,6.5,0,14.5L0,41.5C0,49.5,6.5,56,14.5,56L106.2,56z" stroke="#3498db"/><text class="st1"><tspan y="24" x="30.4">Update ad </tspan><tspan y="39" x="28.4">information</tspan></text></g><g transform="translate(617.85,227.35)" id="shape3"><path fill="none" d="M0,0L33.5,.2" stroke="#3498db"/><path fill="none" d="M21.5,-5.9L33.5,.2L21.4,6.1" stroke-linecap="round" stroke-width="1" stroke-linejoin="round" stroke="#3498db"/></g><path fill="#3498db" transform="translate(544.49,144.2)" id="shape4" d="M0,13C0,5.8,5.8,0,13,0C20.2,0,26,5.8,26,13C26,20.2,20.2,26,13,26C5.8,26,0,20.2,0,13z" stroke="#3498db"/><g transform="translate(702.56,623.51)"><path fill="#3498db" transform="translate(0.28,0.04)" id="shape5" d="M0,13C0,5.8,5.8,0,13,0C20.1,0,25.9,5.8,25.9,13C25.9,20.1,20.1,25.9,13,25.9C5.8,25.9,0,20.1,0,13z" stroke="#ffffff"/><path fill="#3498db" transform="translate(3.25,3.25)" id="shape6" d="M0,9.8C0,4.4,4.4,0,9.8,0C15.1,0,19.5,4.4,19.5,9.8C19.5,15.1,15.1,19.5,9.8,19.5C4.4,19.5,0,15.1,0,9.8z" stroke="#ffffff"/></g><g transform="translate(557.49,170.2)" id="shape7"><path fill="none" d="M0,0L0,29.1" stroke="#3498db"/><path fill="none" d="M6,17.1L0,29.1L-6,17.1" stroke-linecap="round" stroke-width="1" stroke-linejoin="round" stroke="#3498db"/></g><g transform="translate(486.49,331.26)" id="shape8"><path fill="none" d="M71,122.5L142,61.3L71,0L0,61.3L71,122.5z" stroke="#3498db"/><text class="st1"><tspan y="64.8" x="32">Is ad boosted</tspan></text></g><g transform="translate(628.49,392.51)" id="shape9"><path fill="none" d="M0,0L87.1,0L87.1,49" stroke="#3498db"/><path fill="none" d="M93.1,37L87.1,49L81.1,37" stroke-linecap="round" stroke-width="1" stroke-linejoin="round" stroke="#3498db"/></g><g transform="translate(486.49,392.51)" id="shape10"><path fill="none" d="M0,0L-79.5,0L-79.5,49" stroke="#3498db"/><path fill="none" d="M-73.5,37L-79.5,49L-85.5,37" stroke-linecap="round" stroke-width="1" stroke-linejoin="round" stroke="#3498db"/></g><g transform="translate(615.46,369.53)" id="shape11"><text class="st2"><tspan y="14.4" x="20.6">Yes</tspan></text></g><g transform="translate(430.46,369.53)" id="shape12"><text class="st2"><tspan y="14.4" x="20.6">No</tspan></text></g><g transform="translate(350.46,441.51)" id="shape13"><path fill="none" d="M99.4,59C106.9,59,113,52.9,113,45.4L113,13.6C113,6.1,106.9,0,99.4,0L13.6,0C6.1,0,0,6.1,0,13.6L0,45.4C0,52.9,6.1,59,13.6,59L99.4,59z" stroke="#3498db"/><text class="st1"><tspan class="st3" y="25.5" x="9">Prompt to boost </tspan><tspan class="st3" y="40.5" x="49">ad</tspan></text></g><g transform="translate(715.56,591.51)" id="shape14"><path fill="none" d="M0,0L0,32" stroke="#3498db"/><path fill="none" d="M6,20L0,32L-6,20" stroke-linecap="round" stroke-width="1" stroke-linejoin="round" stroke="#3498db"/></g><g transform="translate(651.33,199.53)" id="shape15"><path fill="none" d="M106.2,56C114.2,56,120.7,49.5,120.7,41.5L120.7,14.5C120.7,6.5,114.2,0,106.2,0L14.5,0C6.5,0,0,6.5,0,14.5L0,41.5C0,49.5,6.5,56,14.5,56L106.2,56z" stroke="#3498db"/><text class="st1"><tspan y="24" x="24.4">Display user </tspan><tspan y="39" x="27.4">selected ad</tspan></text></g><g transform="translate(659.06,532.51)" id="shape16"><path fill="none" d="M99.4,59C106.9,59,113,52.9,113,45.4L113,13.6C113,6.1,106.9,0,99.4,0L13.6,0C6.1,0,0,6.1,0,13.6L0,45.4C0,52.9,6.1,59,13.6,59L99.4,59z" stroke="#3498db"/><text class="st1"><tspan class="st3" y="18" x="22">Update ads </tspan><tspan class="st3" y="33" x="11">information list </tspan><tspan class="st3" y="48" x="20">successfully</tspan></text></g><g transform="translate(715.56,500.51)" id="shape17"><path fill="none" d="M0,0L0,32" stroke="#3498db"/><path fill="none" d="M6,20L0,32L-6,20" stroke-linecap="round" stroke-width="1" stroke-linejoin="round" stroke="#3498db"/></g><g transform="translate(711.7,255.53)" id="shape18"><path fill="none" d="M0,0L0,29" stroke="#3498db"/><path fill="none" d="M6,17L0,29L-6,17" stroke-linecap="round" stroke-width="1" stroke-linejoin="round" stroke="#3498db"/></g><g transform="translate(651.33,312.53)" id="shape19"><path fill="none" d="M0,0L-93.8,0L-93.8,18.7" stroke="#3498db"/><path fill="none" d="M-87.8,6.7L-93.8,18.7L-99.8,6.7" stroke-linecap="round" stroke-width="1" stroke-linejoin="round" stroke="#3498db"/></g><g transform="translate(659.06,441.51)" id="shape20"><path fill="none" d="M99.4,59C106.9,59,113,52.9,113,45.4L113,13.6C113,6.1,106.9,0,99.4,0L13.6,0C6.1,0,0,6.1,0,13.6L0,45.4C0,52.9,6.1,59,13.6,59L99.4,59z" stroke="#3498db"/><text class="st1"><tspan y="25.5" x="20">Save update </tspan><tspan y="40.5" x="24">information</tspan></text></g><g transform="translate(463.46,471.01)" id="shape21"><path fill="none" d="M0,0L195.6,0" stroke="#3498db"/><path fill="none" d="M183.6,-6L195.6,0L183.6,6" stroke-linecap="round" stroke-width="1" stroke-linejoin="round" stroke="#3498db"/></g></g></svg>