<svg viewBox="0 0 1133 804" width="1133" xmlns:xlink="http://www.w3.org/1999/xlink" xmlns="http://www.w3.org/2000/svg" xmlns:ev="http://www.w3.org/2001/xml-events" height="804"><style type="text/css"><![CDATA[
.st1 {fill:#000000;font-family:Arial;font-size:10pt}
.st3 {fill:#1f6391;font-family:Arial;font-size:10pt}
.st2 {font-family:Sans Serif;font-size:9pt}
]]></style><defs/><g transform="translate(5,5)" id="page1"><rect fill="#ffffff" width="1123" y="0" x="0" stroke="#808080" height="794"/><g transform="translate(514.67,191.84)" id="shape1"><path fill="none" d="M106.2,56C114.2,56,120.7,49.5,120.7,41.5L120.7,14.5C120.7,6.5,114.2,0,106.2,0L14.5,0C6.5,0,0,6.5,0,14.5L0,41.5C0,49.5,6.5,56,14.5,56L106.2,56z" stroke="#3498db"/><text class="st1"><tspan y="24" x="30.4">Display all </tspan><tspan y="39" x="26.4">created ads</tspan></text></g><g transform="translate(668.88,277.02)" id="shape2"><path fill="none" d="M106.2,56C114.2,56,120.7,49.5,120.7,41.5L120.7,14.5C120.7,6.5,114.2,0,106.2,0L14.5,0C6.5,0,0,6.5,0,14.5L0,41.5C0,49.5,6.5,56,14.5,56L106.2,56z" stroke="#3498db"/><text class="st1"><tspan y="24" x="10.4">Landlords clicked </tspan><tspan y="39" x="18.4">remove button</tspan></text></g><g transform="translate(666.13,450.52)" id="shape3"><path fill="none" d="M137.7,59C148.1,59,156.5,50.6,156.5,40.2L156.5,18.8C156.5,8.4,148.1,0,137.7,0L18.8,0C8.4,0,0,8.4,0,18.8L0,40.2C0,50.6,8.4,59,18.8,59L137.7,59z" stroke="#3498db"/><text class="st1"><tspan class="st2" y="18" x="11.3">System calculate total </tspan><tspan class="st2" y="33" x="18.3">cost that have to be </tspan><tspan class="st2" y="48" x="15.3">returned to landlords</tspan></text></g><g transform="translate(635.4,219.84)" id="shape4"><path fill="none" d="M0,0L33.5,.2" stroke="#3498db"/><path fill="none" d="M21.5,-5.9L33.5,.2L21.4,6.1" stroke-linecap="round" stroke-width="1" stroke-linejoin="round" stroke="#3498db"/></g><g transform="translate(578.9,332.99)" id="shape5"><path fill="none" d="M0,0L.1,29.1" stroke="#3498db"/><path fill="none" d="M6.1,17.1L.1,29.1L-5.9,17.2" stroke-linecap="round" stroke-width="1" stroke-linejoin="round" stroke="#3498db"/></g><path fill="#3498db" transform="translate(562.03,136.69)" id="shape6" d="M0,13C0,5.8,5.8,0,13,0C20.2,0,26,5.8,26,13C26,20.2,20.2,26,13,26C5.8,26,0,20.2,0,13z" stroke="#3498db"/><g transform="translate(299.61,631.02)"><path fill="#3498db" transform="translate(0.28,0.04)" id="shape7" d="M0,13C0,5.8,5.8,0,13,0C20.1,0,25.9,5.8,25.9,13C25.9,20.1,20.1,25.9,13,25.9C5.8,25.9,0,20.1,0,13z" stroke="#ffffff"/><path fill="#3498db" transform="translate(3.25,3.25)" id="shape8" d="M0,9.8C0,4.4,4.4,0,9.8,0C15.1,0,19.5,4.4,19.5,9.8C19.5,15.1,15.1,19.5,9.8,19.5C4.4,19.5,0,15.1,0,9.8z" stroke="#ffffff"/></g><g transform="translate(575.03,162.69)" id="shape9"><path fill="none" d="M0,0L0,29.1" stroke="#3498db"/><path fill="none" d="M6,17.1L0,29.1L-6,17.1" stroke-linecap="round" stroke-width="1" stroke-linejoin="round" stroke="#3498db"/></g><g transform="translate(508.03,362.14)" id="shape10"><path fill="none" d="M71,122.5L142,61.3L71,0L0,61.3L71,122.5z" stroke="#3498db"/><text class="st1"><tspan y="57.3" x="31.7">Is ad duration</tspan><tspan y="72.3" x="40.7"> remaining</tspan></text></g><g transform="translate(650.03,423.39)" id="shape11"><path fill="none" d="M0,0L94.3,0L94.3,27.1" stroke="#3498db"/><path fill="none" d="M100.3,15.1L94.3,27.1L88.3,15.1" stroke-linecap="round" stroke-width="1" stroke-linejoin="round" stroke="#3498db"/></g><g transform="translate(508.03,423.39)" id="shape12"><path fill="none" d="M0,0L-82.6,0L-82.6,27.1" stroke="#3498db"/><path fill="none" d="M-76.6,15.1L-82.6,27.1L-88.6,15.1" stroke-linecap="round" stroke-width="1" stroke-linejoin="round" stroke="#3498db"/></g><g transform="translate(640.38,423.02)" id="shape13"><text class="st3"><tspan y="14.4" x="20.6">Yes</tspan></text></g><g transform="translate(450.74,423.02)" id="shape14"><text class="st3"><tspan y="14.4" x="20.6">No</tspan></text></g><g transform="translate(368.94,450.52)" id="shape15"><path fill="none" d="M99.4,59C106.9,59,113,52.9,113,45.4L113,13.6C113,6.1,106.9,0,99.4,0L13.6,0C6.1,0,0,6.1,0,13.6L0,45.4C0,52.9,6.1,59,13.6,59L99.4,59z" stroke="#3498db"/><text class="st1"><tspan class="st2" y="25.5" x="23">Remove ad </tspan><tspan class="st2" y="40.5" x="20">successfully</tspan></text></g><g transform="translate(525.26,570.02)" id="shape16"><path fill="none" d="M0,0L-43.3,0" stroke="#3498db"/><path fill="none" d="M-31.3,6L-43.3,0L-31.3,-6" stroke-linecap="round" stroke-width="1" stroke-linejoin="round" stroke="#3498db"/></g><g transform="translate(668.88,192.02)" id="shape17"><path fill="none" d="M106.2,56C114.2,56,120.7,49.5,120.7,41.5L120.7,14.5C120.7,6.5,114.2,0,106.2,0L14.5,0C6.5,0,0,6.5,0,14.5L0,41.5C0,49.5,6.5,56,14.5,56L106.2,56z" stroke="#3498db"/><text class="st1"><tspan y="24" x="11.4">Display landlords </tspan><tspan y="39" x="24.4">selected ads</tspan></text></g><g transform="translate(518.53,276.99)" id="shape18"><path fill="none" d="M106.2,56C114.2,56,120.7,49.5,120.7,41.5L120.7,14.5C120.7,6.5,114.2,0,106.2,0L14.5,0C6.5,0,0,6.5,0,14.5L0,41.5C0,49.5,6.5,56,14.5,56L106.2,56z" stroke="#3498db"/><text class="st1"><tspan y="24" x="20.4">System check </tspan><tspan y="39" x="24.4">ads duration</tspan></text></g><g transform="translate(687.88,540.52)" id="shape19"><path fill="none" d="M99.4,59C106.9,59,113,52.9,113,45.4L113,13.6C113,6.1,106.9,0,99.4,0L13.6,0C6.1,0,0,6.1,0,13.6L0,45.4C0,52.9,6.1,59,13.6,59L99.4,59z" stroke="#3498db"/><text class="st1"><tspan class="st2" y="25.5" x="19">Display total </tspan><tspan class="st2" y="40.5" x="36">charge</tspan></text></g><g transform="translate(744.38,509.52)" id="shape20"><path fill="none" d="M0,0L0,31" stroke="#3498db"/><path fill="none" d="M6,19L0,31L-6,19" stroke-linecap="round" stroke-width="1" stroke-linejoin="round" stroke="#3498db"/></g><g transform="translate(729.24,248.02)" id="shape21"><path fill="none" d="M0,0L0,29" stroke="#3498db"/><path fill="none" d="M6,17L0,29L-6,17" stroke-linecap="round" stroke-width="1" stroke-linejoin="round" stroke="#3498db"/></g><g transform="translate(668.88,305.02)" id="shape22"><path fill="none" d="M0,0L-29.6,-0" stroke="#3498db"/><path fill="none" d="M-17.6,6L-29.6,-0L-17.6,-6" stroke-linecap="round" stroke-width="1" stroke-linejoin="round" stroke="#3498db"/></g><g transform="translate(425.44,540.52)" id="shape23"><path fill="none" d="M0,0L0,-31" stroke="#3498db"/><path fill="none" d="M-6,-19L0,-31L6,-19" stroke-linecap="round" stroke-width="1" stroke-linejoin="round" stroke="#3498db"/></g><g transform="translate(525.26,540.52)" id="shape24"><path fill="none" d="M99.4,59C106.9,59,113,52.9,113,45.4L113,13.6C113,6.1,106.9,0,99.4,0L13.6,0C6.1,0,0,6.1,0,13.6L0,45.4C0,52.9,6.1,59,13.6,59L99.4,59z" stroke="#3498db"/><text class="st1"><tspan y="18" x="32">Show all </tspan><tspan y="33" x="32">payment </tspan><tspan y="48" x="25">credentials</tspan></text></g><g transform="translate(368.94,540.52)" id="shape25"><path fill="none" d="M99.4,59C106.9,59,113,52.9,113,45.4L113,13.6C113,6.1,106.9,0,99.4,0L13.6,0C6.1,0,0,6.1,0,13.6L0,45.4C0,52.9,6.1,59,13.6,59L99.4,59z" stroke="#3498db"/><text class="st1"><tspan y="18" x="37">Money </tspan><tspan y="33" x="27">transfered </tspan><tspan y="48" x="21">successfully</tspan></text></g><g transform="translate(687.88,570.02)" id="shape26"><path fill="none" d="M0,0L-49.6,0" stroke="#3498db"/><path fill="none" d="M-37.6,6L-49.6,0L-37.6,-6" stroke-linecap="round" stroke-width="1" stroke-linejoin="round" stroke="#3498db"/></g><g transform="translate(368.94,480.02)" id="shape27"><path fill="none" d="M0,0L-56.3,0L-56.3,151" stroke="#3498db"/><path fill="none" d="M-50.3,139L-56.3,151L-62.3,139" stroke-linecap="round" stroke-width="1" stroke-linejoin="round" stroke="#3498db"/></g></g></svg>