<svg viewBox="0 0 1133 804" width="1133" xmlns:xlink="http://www.w3.org/1999/xlink" xmlns="http://www.w3.org/2000/svg" xmlns:ev="http://www.w3.org/2001/xml-events" height="804"><style type="text/css"><![CDATA[
.st1 {fill:#000000;font-family:Arial;font-size:10pt}
.st2 {fill:#1f6391;font-family:Arial;font-size:10pt}
]]></style><defs/><g transform="translate(5,5)" id="page1"><rect fill="#ffffff" width="1123" y="0" x="0" stroke="#808080" height="794"/><g transform="translate(362.52,161.78)" id="shape1"><path fill="none" d="M99.4,56C106.9,56,113,49.9,113,42.4L113,13.6C113,6.1,106.9,0,99.4,0L13.6,0C6.1,0,0,6.1,0,13.6L0,42.4C0,49.9,6.1,56,13.6,56L99.4,56z" stroke="#3498db"/><text class="st1"><tspan y="24" x="19">Accept boost </tspan><tspan y="39" x="35">request</tspan></text></g><g transform="translate(504.76,161.78)" id="shape2"><path fill="none" d="M99.4,56C106.9,56,113,49.9,113,42.4L113,13.6C113,6.1,106.9,0,99.4,0L13.6,0C6.1,0,0,6.1,0,13.6L0,42.4C0,49.9,6.1,56,13.6,56L99.4,56z" stroke="#3498db"/><text class="st1"><tspan y="24" x="30">Input ads </tspan><tspan y="39" x="33">duration</tspan></text></g><g transform="translate(504.76,244.58)" id="shape3"><path fill="none" d="M99.4,59C106.9,59,113,52.9,113,45.4L113,13.6C113,6.1,106.9,0,99.4,0L13.6,0C6.1,0,0,6.1,0,13.6L0,45.4C0,52.9,6.1,59,13.6,59L99.4,59z" stroke="#3498db"/><text class="st1"><tspan y="25.5" x="15">Calculate total </tspan><tspan y="40.5" x="27">boost cost</tspan></text></g><g transform="translate(475.52,189.78)" id="shape4"><path fill="none" d="M0,0L29.2,0" stroke="#3498db"/><path fill="none" d="M17.2,-6L29.2,0L17.2,6" stroke-linecap="round" stroke-width="1" stroke-linejoin="round" stroke="#3498db"/></g><g transform="translate(561.26,217.78)" id="shape5"><path fill="none" d="M0,0L0,26.8" stroke="#3498db"/><path fill="none" d="M6,14.8L0,26.8L-6,14.8" stroke-linecap="round" stroke-width="1" stroke-linejoin="round" stroke="#3498db"/></g><path fill="#3498db" transform="translate(406.02,106.63)" id="shape6" d="M0,13C0,5.8,5.8,0,13,0C20.2,0,26,5.8,26,13C26,20.2,20.2,26,13,26C5.8,26,0,20.2,0,13z" stroke="#3498db"/><g transform="translate(350.26,661.08)"><path fill="#3498db" transform="translate(0.28,0.04)" id="shape7" d="M0,13C0,5.8,5.8,0,13,0C20.1,0,25.9,5.8,25.9,13C25.9,20.1,20.1,25.9,13,25.9C5.8,25.9,0,20.1,0,13z" stroke="#ffffff"/><path fill="#3498db" transform="translate(3.25,3.25)" id="shape8" d="M0,9.8C0,4.4,4.4,0,9.8,0C15.1,0,19.5,4.4,19.5,9.8C19.5,15.1,15.1,19.5,9.8,19.5C4.4,19.5,0,15.1,0,9.8z" stroke="#ffffff"/></g><g transform="translate(363.26,602.08)" id="shape9"><path fill="none" d="M0,0L0,59" stroke="#3498db"/><path fill="none" d="M6,47L0,59L-6,47" stroke-linecap="round" stroke-width="1" stroke-linejoin="round" stroke="#3498db"/></g><g transform="translate(419.02,132.63)" id="shape10"><path fill="none" d="M0,0L0,29.2" stroke="#3498db"/><path fill="none" d="M6,17.2L0,29.2L-6,17.2" stroke-linecap="round" stroke-width="1" stroke-linejoin="round" stroke="#3498db"/></g><g transform="translate(362.52,244.58)" id="shape11"><path fill="none" d="M99.4,59C106.9,59,113,52.9,113,45.4L113,13.6C113,6.1,106.9,0,99.4,0L13.6,0C6.1,0,0,6.1,0,13.6L0,45.4C0,52.9,6.1,59,13.6,59L99.4,59z" stroke="#3498db"/><text class="st1"><tspan y="25.5" x="21">Display total </tspan><tspan y="40.5" x="45">cost</tspan></text></g><g transform="translate(362.52,332.08)" id="shape12"><path fill="none" d="M99.4,59C106.9,59,113,52.9,113,45.4L113,13.6C113,6.1,106.9,0,99.4,0L13.6,0C6.1,0,0,6.1,0,13.6L0,45.4C0,52.9,6.1,59,13.6,59L99.4,59z" stroke="#3498db"/><text class="st1"><tspan y="25.5" x="14">Show payment </tspan><tspan y="40.5" x="28">credential</tspan></text></g><g transform="translate(504.76,332.08)" id="shape13"><path fill="none" d="M99.4,59C106.9,59,113,52.9,113,45.4L113,13.6C113,6.1,106.9,0,99.4,0L13.6,0C6.1,0,0,6.1,0,13.6L0,45.4C0,52.9,6.1,59,13.6,59L99.4,59z" stroke="#3498db"/><text class="st1"><tspan y="25.5" x="9">Input transaction </tspan><tspan y="40.5" x="34">number</tspan></text></g><g transform="translate(490.26,410.83)" id="shape14"><path fill="none" d="M71,122.5L142,61.3L71,0L0,61.3L71,122.5z" stroke="#3498db"/><text class="st1"><tspan y="49.8" x="36.5">Check total </tspan><tspan y="64.8" x="16.5">pay equals to total </tspan><tspan y="79.8" x="58.5">cost</tspan></text></g><g transform="translate(306.76,442.58)" id="shape15"><path fill="none" d="M99.4,59C106.9,59,113,52.9,113,45.4L113,13.6C113,6.1,106.9,0,99.4,0L13.6,0C6.1,0,0,6.1,0,13.6L0,45.4C0,52.9,6.1,59,13.6,59L99.4,59z" stroke="#3498db"/><text class="st1"><tspan y="18" x="9">Display payment </tspan><tspan y="33" x="26">successful </tspan><tspan y="48" x="30">message</tspan></text></g><g transform="translate(702.76,442.58)" id="shape16"><path fill="none" d="M99.4,59C106.9,59,113,52.9,113,45.4L113,13.6C113,6.1,106.9,0,99.4,0L13.6,0C6.1,0,0,6.1,0,13.6L0,45.4C0,52.9,6.1,59,13.6,59L99.4,59z" stroke="#3498db"/><text class="st1"><tspan y="18" x="25">Request to </tspan><tspan y="33" x="37">resend </tspan><tspan y="48" x="18">transaction id</tspan></text></g><g transform="translate(306.76,543.08)" id="shape17"><path fill="none" d="M99.4,59C106.9,59,113,52.9,113,45.4L113,13.6C113,6.1,106.9,0,99.4,0L13.6,0C6.1,0,0,6.1,0,13.6L0,45.4C0,52.9,6.1,59,13.6,59L99.4,59z" stroke="#3498db"/><text class="st1"><tspan y="25.5" x="23">Update ads </tspan><tspan y="40.5" x="15">information list</tspan></text></g><g transform="translate(632.26,472.08)" id="shape18"><path fill="none" d="M0,0L70.5,0" stroke="#3498db"/><path fill="none" d="M58.5,-6L70.5,0L58.5,6" stroke-linecap="round" stroke-width="1" stroke-linejoin="round" stroke="#3498db"/></g><g transform="translate(475.52,361.58)" id="shape19"><path fill="none" d="M0,0L29.2,0" stroke="#3498db"/><path fill="none" d="M17.2,-6L29.2,0L17.2,6" stroke-linecap="round" stroke-width="1" stroke-linejoin="round" stroke="#3498db"/></g><g transform="translate(363.26,501.58)" id="shape20"><path fill="none" d="M0,0L0,41.5" stroke="#3498db"/><path fill="none" d="M6,29.5L0,41.5L-6,29.5" stroke-linecap="round" stroke-width="1" stroke-linejoin="round" stroke="#3498db"/></g><g transform="translate(490.26,472.08)" id="shape21"><path fill="none" d="M0,0L-70.5,0" stroke="#3498db"/><path fill="none" d="M-58.5,6L-70.5,0L-58.5,-6" stroke-linecap="round" stroke-width="1" stroke-linejoin="round" stroke="#3498db"/></g><g transform="translate(504.76,274.08)" id="shape22"><path fill="none" d="M0,0L-29.2,0" stroke="#3498db"/><path fill="none" d="M-17.2,6L-29.2,0L-17.2,-6" stroke-linecap="round" stroke-width="1" stroke-linejoin="round" stroke="#3498db"/></g><g transform="translate(561.26,391.08)" id="shape23"><path fill="none" d="M0,0L0,19.8" stroke="#3498db"/><path fill="none" d="M6,7.8L0,19.8L-6,7.8" stroke-linecap="round" stroke-width="1" stroke-linejoin="round" stroke="#3498db"/></g><g transform="translate(419.02,303.58)" id="shape24"><path fill="none" d="M0,0L0,28.5" stroke="#3498db"/><path fill="none" d="M6,16.5L0,28.5L-6,16.5" stroke-linecap="round" stroke-width="1" stroke-linejoin="round" stroke="#3498db"/></g><g transform="translate(442,442.58)" id="shape25"><text class="st2"><tspan y="14.4" x="10.5">Yes</tspan></text></g><g transform="translate(638.51,442.58)" id="shape26"><text class="st2"><tspan y="14.4" x="12.5">No</tspan></text></g><g transform="translate(815.76,472.08)" id="shape27"><path fill="none" d="M0,0L31.2,0L31.2,124.9L-254.5,124.9L-254.5,61.2" stroke="#3498db"/><path fill="none" d="M-260.5,73.2L-254.5,61.2L-248.5,73.2" stroke-linecap="round" stroke-width="1" stroke-linejoin="round" stroke="#3498db"/></g></g></svg>