<svg viewBox="0 0 1133 804" width="1133" xmlns:xlink="http://www.w3.org/1999/xlink" xmlns="http://www.w3.org/2000/svg" xmlns:ev="http://www.w3.org/2001/xml-events" height="804"><style type="text/css"><![CDATA[
.st1 {fill:#000000;font-family:Arial;font-size:10pt}
.st2 {fill:#1f6391;font-family:Arial;font-size:10pt}
.st3 {font-family:Sans Serif;font-size:9pt}
]]></style><defs/><g transform="translate(5,5)" id="page1"><rect fill="#ffffff" width="1123" y="0" x="0" stroke="#808080" height="794"/><g transform="translate(488.01,128.48)" id="shape1"><path fill="none" d="M106.2,56C114.2,56,120.7,49.5,120.7,41.5L120.7,14.5C120.7,6.5,114.2,0,106.2,0L14.5,0C6.5,0,0,6.5,0,14.5L0,41.5C0,49.5,6.5,56,14.5,56L106.2,56z" stroke="#3498db"/><text class="st1"><tspan y="24" x="17.4">Accept sign up </tspan><tspan y="39" x="38.4">request</tspan></text></g><g transform="translate(548.38,184.48)" id="shape2"><path fill="none" d="M0,0L-0.2,29.1" stroke="#3498db"/><path fill="none" d="M5.9,17.2L-0.2,29.1L-6.1,17.1" stroke-linecap="round" stroke-width="1" stroke-linejoin="round" stroke="#3498db"/></g><path fill="#3498db" transform="translate(535.38,73.33)" id="shape3" d="M0,13C0,5.8,5.8,0,13,0C20.2,0,26,5.8,26,13C26,20.2,20.2,26,13,26C5.8,26,0,20.2,0,13z" stroke="#3498db"/><g transform="translate(697.77,694.38)"><path fill="#3498db" transform="translate(0.28,0.04)" id="shape4" d="M0,13C0,5.8,5.8,0,13,0C20.1,0,25.9,5.8,25.9,13C25.9,20.1,20.1,25.9,13,25.9C5.8,25.9,0,20.1,0,13z" stroke="#ffffff"/><path fill="#3498db" transform="translate(3.25,3.25)" id="shape5" d="M0,9.8C0,4.4,4.4,0,9.8,0C15.1,0,19.5,4.4,19.5,9.8C19.5,15.1,15.1,19.5,9.8,19.5C4.4,19.5,0,15.1,0,9.8z" stroke="#ffffff"/></g><g transform="translate(710.77,651.82)" id="shape6"><path fill="none" d="M0,0L0,42.6" stroke="#3498db"/><path fill="none" d="M6,30.6L0,42.6L-6,30.6" stroke-linecap="round" stroke-width="1" stroke-linejoin="round" stroke="#3498db"/></g><g transform="translate(548.38,99.33)" id="shape7"><path fill="none" d="M0,0L0,29.1" stroke="#3498db"/><path fill="none" d="M6,17.1L0,29.1L-6,17.1" stroke-linecap="round" stroke-width="1" stroke-linejoin="round" stroke="#3498db"/></g><path fill="none" transform="translate(521.98,213.63)" id="shape8" d="M26.2,44.4L52.3,22.2L26.2,0L0,22.2L26.2,44.4z" stroke="#3498db"/><g transform="translate(574.33,235.82)" id="shape9"><path fill="none" d="M0,0L165.3,0L165.3,24.2" stroke="#3498db"/><path fill="none" d="M171.3,12.2L165.3,24.2L159.3,12.2" stroke-linecap="round" stroke-width="1" stroke-linejoin="round" stroke="#3498db"/></g><g transform="translate(521.98,235.82)" id="shape10"><path fill="none" d="M0,0L-168,0L-168,24.2" stroke="#3498db"/><path fill="none" d="M-162,12.2L-168,24.2L-174,12.2" stroke-linecap="round" stroke-width="1" stroke-linejoin="round" stroke="#3498db"/></g><g transform="translate(589.53,439.16)" id="shape11"><text class="st2"><tspan y="14.4" x="10.5">Yes</tspan></text></g><g transform="translate(617.53,286.54)" id="shape12"><text class="st2"><tspan y="14.4" x="12.5">No</tspan></text></g><g transform="translate(491.66,482.96)" id="shape13"><path fill="none" d="M99.4,59C106.9,59,113,52.9,113,45.4L113,13.6C113,6.1,106.9,0,99.4,0L13.6,0C6.1,0,0,6.1,0,13.6L0,45.4C0,52.9,6.1,59,13.6,59L99.4,59z" stroke="#3498db"/><text class="st1"><tspan class="st3" y="18" x="41">Send </tspan><tspan class="st3" y="33" x="19">confirmation </tspan><tspan class="st3" y="48" x="42">code</tspan></text></g><g transform="translate(341.89,482.96)" id="shape14"><path fill="none" d="M99.4,59C106.9,59,113,52.9,113,45.4L113,13.6C113,6.1,106.9,0,99.4,0L13.6,0C6.1,0,0,6.1,0,13.6L0,45.4C0,52.9,6.1,59,13.6,59L99.4,59z" stroke="#3498db"/><text class="st1"><tspan class="st3" y="18" x="41">Input </tspan><tspan class="st3" y="33" x="19">confirmation </tspan><tspan class="st3" y="48" x="42">code</tspan></text></g><g transform="translate(551.53,305.13)" id="shape15"><path fill="none" d="M71,122.5L142,61.3L71,0L0,61.3L71,122.5z" stroke="#3498db"/><text class="st1"><tspan y="49.8" x="29.1">Check validity </tspan><tspan y="64.8" x="33.1">of username </tspan><tspan y="79.8" x="30.1">and password</tspan></text></g><g transform="translate(406.53,308.44)" id="shape16"><path fill="none" d="M66,115.9L132,57.9L66,0L0,57.9L66,115.9z" stroke="#3498db"/><text class="st1"><tspan y="46.4" x="24.1">Check validity </tspan><tspan y="61.4" x="28.1">of username </tspan><tspan y="76.4" x="25.1">and password</tspan></text></g><g transform="translate(479.3,563.76)" id="shape17"><path fill="none" d="M68.9,117.1L137.7,58.6L68.9,0L0,58.6L68.9,117.1z" stroke="#3498db"/><text class="st1"><tspan y="54.6" x="15.9">Valid confirmation </tspan><tspan y="69.6" x="53.9">code</tspan></text></g><g transform="translate(296.98,260.04)" id="shape18"><path fill="none" d="M99.4,59C106.9,59,113,52.9,113,45.4L113,13.6C113,6.1,106.9,0,99.4,0L13.6,0C6.1,0,0,6.1,0,13.6L0,45.4C0,52.9,6.1,59,13.6,59L99.4,59z" stroke="#3498db"/><text class="st1"><tspan class="st3" y="18" x="16">Input tenants </tspan><tspan class="st3" y="33" x="35">sign up </tspan><tspan class="st3" y="48" x="22">information</tspan></text></g><g transform="translate(472.53,308.44)" id="shape19"><path fill="none" d="M0,0L0,-18.9L-62.6,-18.9" stroke="#3498db"/><path fill="none" d="M-50.6,-12.9L-62.6,-18.9L-50.6,-24.9" stroke-linecap="round" stroke-width="1" stroke-linejoin="round" stroke="#3498db"/></g><g transform="translate(548.16,461.16)" id="shape20"><path fill="none" d="M0,0L0,21.8" stroke="#3498db"/><path fill="none" d="M6,9.8L0,21.8L-6,9.8" stroke-linecap="round" stroke-width="1" stroke-linejoin="round" stroke="#3498db"/></g><g transform="translate(622.53,305.13)" id="shape21"><path fill="none" d="M0,0L0,-17.1L56.7,-17.1" stroke="#3498db"/><path fill="none" d="M44.7,-23.1L56.7,-17.1L44.7,-11.1" stroke-linecap="round" stroke-width="1" stroke-linejoin="round" stroke="#3498db"/></g><g transform="translate(472.53,424.33)" id="shape22"><path fill="none" d="M0,0L0,14.6L49.4,14.6" stroke="#3498db"/><path fill="none" d="M37.4,8.6L49.4,14.6L37.4,20.6" stroke-linecap="round" stroke-width="1" stroke-linejoin="round" stroke="#3498db"/></g><g transform="translate(398.39,541.96)" id="shape23"><path fill="none" d="M0,0L0,80.4L80.9,80.4" stroke="#3498db"/><path fill="none" d="M68.9,74.4L80.9,80.4L68.9,86.4" stroke-linecap="round" stroke-width="1" stroke-linejoin="round" stroke="#3498db"/></g><g transform="translate(548.16,680.87)" id="shape24"><path fill="none" d="M0,0L0,16.4L-223.8,16.4L-223.8,-168.4L-206.3,-168.4" stroke="#3498db"/><path fill="none" d="M-218.3,-174.4L-206.3,-168.4L-218.3,-162.4" stroke-linecap="round" stroke-width="1" stroke-linejoin="round" stroke="#3498db"/></g><g transform="translate(654.27,592.82)" id="shape25"><path fill="none" d="M99.4,59C106.9,59,113,52.9,113,45.4L113,13.6C113,6.1,106.9,0,99.4,0L13.6,0C6.1,0,0,6.1,0,13.6L0,45.4C0,52.9,6.1,59,13.6,59L99.4,59z" stroke="#3498db"/><text class="st1"><tspan class="st3" y="18" x="27">Input new </tspan><tspan class="st3" y="33" x="13">username and </tspan><tspan class="st3" y="48" x="28">password</tspan></text></g><g transform="translate(617.01,622.32)" id="shape26"><path fill="none" d="M0,0L37.3,-0" stroke="#3498db"/><path fill="none" d="M25.3,-6L37.3,-0L25.3,6" stroke-linecap="round" stroke-width="1" stroke-linejoin="round" stroke="#3498db"/></g><g transform="translate(580.53,206.38)" id="shape27"><text class="st2"><tspan y="14.4" x="46.9">Landlords</tspan></text></g><g transform="translate(606.53,598.38)" id="shape28"><text class="st2"><tspan y="14.4" x="10.5">Yes</tspan></text></g><g transform="translate(355.53,206.38)" id="shape29"><text class="st2"><tspan y="14.4" x="61.4">Tenants</tspan></text></g><g transform="translate(436.98,286.54)" id="shape30"><text class="st2"><tspan y="14.4" x="12.5">No</tspan></text></g><g transform="translate(510.79,672.38)" id="shape31"><text class="st2"><tspan y="14.4" x="12.5">No</tspan></text></g><g transform="translate(353.48,319.04)" id="shape32"><path fill="none" d="M0,0L0,47.3L53.1,47.3" stroke="#3498db"/><path fill="none" d="M41.1,41.3L53.1,47.3L41.1,53.3" stroke-linecap="round" stroke-width="1" stroke-linejoin="round" stroke="#3498db"/></g><g transform="translate(679.24,260.04)" id="shape33"><path fill="none" d="M106.2,56C114.2,56,120.7,49.5,120.7,41.5L120.7,14.5C120.7,6.5,114.2,0,106.2,0L14.5,0C6.5,0,0,6.5,0,14.5L0,41.5C0,49.5,6.5,56,14.5,56L106.2,56z" stroke="#3498db"/><text class="st1"><tspan y="16.5" x="17.4">Input landlords </tspan><tspan y="31.5" x="39.4">sign up </tspan><tspan y="46.5" x="28.4">information</tspan></text></g><path fill="none" transform="translate(521.98,416.77)" id="shape34" d="M26.2,44.4L52.3,22.2L26.2,0L0,22.2L26.2,44.4z" stroke="#3498db"/><g transform="translate(622.53,427.63)" id="shape35"><path fill="none" d="M0,0L0,11.3L-48.2,11.3" stroke="#3498db"/><path fill="none" d="M-36.2,17.3L-48.2,11.3L-36.2,5.3" stroke-linecap="round" stroke-width="1" stroke-linejoin="round" stroke="#3498db"/></g><g transform="translate(467.53,439.16)" id="shape36"><text class="st2"><tspan y="14.4" x="10.5">Yes</tspan></text></g><g transform="translate(739.61,316.04)" id="shape37"><path fill="none" d="M0,0L0,50.3L-46.1,50.3" stroke="#3498db"/><path fill="none" d="M-34.1,56.3L-46.1,50.3L-34.1,44.3" stroke-linecap="round" stroke-width="1" stroke-linejoin="round" stroke="#3498db"/></g><g transform="translate(491.66,512.46)" id="shape38"><path fill="none" d="M0,0L-36.8,0" stroke="#3498db"/><path fill="none" d="M-24.8,6L-36.8,0L-24.8,-6" stroke-linecap="round" stroke-width="1" stroke-linejoin="round" stroke="#3498db"/></g><path fill="none" transform="matrix(1,-0.02,0.02,1,604.7,512.5)" id="shape39" d="M0,0L36.9,0" stroke="#3498db"/><g transform="translate(641.52,483.38)" id="shape40"><path fill="none" d="M184,57L184,0L0,0L0,57L184,57z" stroke="#3498db"/><text class="st1"><tspan y="17" x="13">Validate phone number and </tspan><tspan y="32" x="18">send confirmation code to </tspan><tspan y="47" x="38">that phone number</tspan></text></g></g></svg>