<svg xmlns:xlink="http://www.w3.org/1999/xlink" height="804" width="1133" viewBox="0 0 1133 804" xmlns="http://www.w3.org/2000/svg" xmlns:ev="http://www.w3.org/2001/xml-events"><style type="text/css"><![CDATA[
.st1 {fill:#000000;font-family:Arial;font-size:10pt}
]]></style><defs/><g transform="translate(5,5)" id="page1"><rect stroke="#808080" height="794" width="1123" y="0" fill="#ffffff" x="0"/><g transform="translate(520.89,299.1)" id="shape1"><path stroke="#3498db" d="M106.2,56C114.2,56,120.7,49.5,120.7,41.5L120.7,14.5C120.7,6.5,114.2,0,106.2,0L14.5,0C6.5,0,0,6.5,0,14.5L0,41.5C0,49.5,6.5,56,14.5,56L106.2,56z" fill="none"/><text class="st1"><tspan y="24" x="28.4">Collect add </tspan><tspan y="39" x="22.4">available ads</tspan></text></g><path stroke="#3498db" transform="translate(568.26,243.95)" d="M0,13C0,5.8,5.8,0,13,0C20.2,0,26,5.8,26,13C26,20.2,20.2,26,13,26C5.8,26,0,20.2,0,13z" fill="#3498db" id="shape2"/><g transform="translate(568.26,563.76)"><path stroke="#ffffff" transform="translate(0.28,0.04)" d="M0,13C0,5.8,5.8,0,13,0C20.1,0,25.9,5.8,25.9,13C25.9,20.1,20.1,25.9,13,25.9C5.8,25.9,0,20.1,0,13z" fill="#3498db" id="shape3"/><path stroke="#ffffff" transform="translate(3.25,3.25)" d="M0,9.8C0,4.4,4.4,0,9.8,0C15.1,0,19.5,4.4,19.5,9.8C19.5,15.1,15.1,19.5,9.8,19.5C4.4,19.5,0,15.1,0,9.8z" fill="#3498db" id="shape4"/></g><g transform="translate(581.26,269.95)" id="shape5"><path stroke="#3498db" d="M0,0L0,29.2" fill="none"/><path stroke="#3498db" d="M6,17.2L0,29.2L-6,17.2" stroke-linecap="round" stroke-width="1" stroke-linejoin="round" fill="none"/></g><g transform="translate(520.89,385.25)" id="shape6"><path stroke="#3498db" d="M106.2,56C114.2,56,120.7,49.5,120.7,41.5L120.7,14.5C120.7,6.5,114.2,0,106.2,0L14.5,0C6.5,0,0,6.5,0,14.5L0,41.5C0,49.5,6.5,56,14.5,56L106.2,56z" fill="none"/><text class="st1"><tspan y="31.5" x="25.4">Filter all ads</tspan></text></g><g transform="translate(520.89,474.51)" id="shape7"><path stroke="#3498db" d="M106.2,56C114.2,56,120.7,49.5,120.7,41.5L120.7,14.5C120.7,6.5,114.2,0,106.2,0L14.5,0C6.5,0,0,6.5,0,14.5L0,41.5C0,49.5,6.5,56,14.5,56L106.2,56z" fill="none"/><text class="st1"><tspan y="16.5" x="17.4"> Show boosted </tspan><tspan y="31.5" x="17.4">ads at first and </tspan><tspan y="46.5" x="26.4">then normal</tspan></text></g><g transform="translate(581.26,441.25)" id="shape8"><path stroke="#3498db" d="M0,0L0,33.3" fill="none"/><path stroke="#3498db" d="M6,21.3L0,33.3L-6,21.3" stroke-linecap="round" stroke-width="1" stroke-linejoin="round" fill="none"/></g><g transform="translate(581.26,355.1)" id="shape9"><path stroke="#3498db" d="M0,0L0,30.1" fill="none"/><path stroke="#3498db" d="M6,18.1L0,30.1L-6,18.1" stroke-linecap="round" stroke-width="1" stroke-linejoin="round" fill="none"/></g><g transform="translate(581.26,530.51)" id="shape10"><path stroke="#3498db" d="M0,0L0,33.3" fill="none"/><path stroke="#3498db" d="M6,21.3L0,33.3L-6,21.3" stroke-linecap="round" stroke-width="1" stroke-linejoin="round" fill="none"/></g></g></svg>