<svg xmlns:xlink="http://www.w3.org/1999/xlink" height="804" width="1133" viewBox="0 0 1133 804" xmlns="http://www.w3.org/2000/svg" xmlns:ev="http://www.w3.org/2001/xml-events"><style type="text/css"><![CDATA[
.st1 {fill:#000000;font-family:Arial;font-size:10pt}
.st2 {fill:#1f6391;font-family:Arial;font-size:10pt}
]]></style><defs/><g transform="translate(5,5)" id="page1"><rect stroke="#808080" height="794" width="1123" y="0" fill="#ffffff" x="0"/><g transform="translate(504.71,164.83)" id="shape1"><path stroke="#3498db" d="M106.2,56C114.2,56,120.7,49.5,120.7,41.5L120.7,14.5C120.7,6.5,114.2,0,106.2,0L14.5,0C6.5,0,0,6.5,0,14.5L0,41.5C0,49.5,6.5,56,14.5,56L106.2,56z" fill="none"/><text class="st1"><tspan y="31.5" x="27.4">View profile</tspan></text></g><path stroke="#3498db" transform="translate(552.08,109.68)" d="M0,13C0,5.8,5.8,0,13,0C20.2,0,26,5.8,26,13C26,20.2,20.2,26,13,26C5.8,26,0,20.2,0,13z" fill="#3498db" id="shape2"/><g transform="translate(552.08,658.03)"><path stroke="#ffffff" transform="translate(0.28,0.04)" d="M0,13C0,5.8,5.8,0,13,0C20.1,0,25.9,5.8,25.9,13C25.9,20.1,20.1,25.9,13,25.9C5.8,25.9,0,20.1,0,13z" fill="#3498db" id="shape3"/><path stroke="#ffffff" transform="translate(3.25,3.25)" d="M0,9.8C0,4.4,4.4,0,9.8,0C15.1,0,19.5,4.4,19.5,9.8C19.5,15.1,15.1,19.5,9.8,19.5C4.4,19.5,0,15.1,0,9.8z" fill="#3498db" id="shape4"/></g><g transform="translate(565.08,135.68)" id="shape5"><path stroke="#3498db" d="M0,0L0,29.2" fill="none"/><path stroke="#3498db" d="M6,17.2L0,29.2L-6,17.2" stroke-linecap="round" stroke-width="1" stroke-linejoin="round" fill="none"/></g><g transform="translate(625.44,192.83)" id="shape6"><path stroke="#3498db" d="M0,0L37.6,0L37.6,412.5L-33.9,412.5" fill="none"/><path stroke="#3498db" d="M-21.9,418.5L-33.9,412.5L-21.9,406.5" stroke-linecap="round" stroke-width="1" stroke-linejoin="round" fill="none"/></g><g transform="translate(499.08,340.24)" id="shape7"><path stroke="#3498db" d="M66,115.9L132,57.9L66,0L0,57.9L66,115.9z" fill="none"/><text class="st1"><tspan y="53.9" x="17.3">Submit changed </tspan><tspan y="68.9" x="33.3">information</tspan></text></g><g transform="translate(565.08,456.12)" id="shape8"><path stroke="#3498db" d="M0,0L0,40.5" fill="none"/><path stroke="#3498db" d="M6,28.5L0,40.5L-6,28.5" stroke-linecap="round" stroke-width="1" stroke-linejoin="round" fill="none"/></g><g transform="translate(499.08,398.18)" id="shape9"><path stroke="#3498db" d="M0,0L-35.5,0L-35.5,-205.3L5.6,-205.3" fill="none"/><path stroke="#3498db" d="M-6.4,-211.3L5.6,-205.3L-6.4,-199.3" stroke-linecap="round" stroke-width="1" stroke-linejoin="round" fill="none"/></g><g transform="translate(556.08,460.21)" id="shape10"><text class="st2"><tspan y="14.4" x="12.3">Yes</tspan></text></g><g transform="translate(459.44,377.24)" id="shape11"><text class="st2"><tspan y="14.4" x="15.3">No</tspan></text></g><g transform="translate(504.71,250.98)" id="shape12"><path stroke="#3498db" d="M106.2,56C114.2,56,120.7,49.5,120.7,41.5L120.7,14.5C120.7,6.5,114.2,0,106.2,0L14.5,0C6.5,0,0,6.5,0,14.5L0,41.5C0,49.5,6.5,56,14.5,56L106.2,56z" fill="none"/><text class="st1"><tspan y="31.5" x="29.4">Edit profile</tspan></text></g><g transform="translate(504.71,496.61)" id="shape13"><path stroke="#3498db" d="M106.2,56C114.2,56,120.7,49.5,120.7,41.5L120.7,14.5C120.7,6.5,114.2,0,106.2,0L14.5,0C6.5,0,0,6.5,0,14.5L0,41.5C0,49.5,6.5,56,14.5,56L106.2,56z" fill="none"/><text class="st1"><tspan y="31.5" x="20.4">Profile update</tspan></text></g><g transform="translate(565.08,306.98)" id="shape14"><path stroke="#3498db" d="M0,0L0,33.3" fill="none"/><path stroke="#3498db" d="M6,21.3L0,33.3L-6,21.3" stroke-linecap="round" stroke-width="1" stroke-linejoin="round" fill="none"/></g><g transform="translate(565.08,220.83)" id="shape15"><path stroke="#3498db" d="M0,0L0,30.1" fill="none"/><path stroke="#3498db" d="M6,18.1L0,30.1L-6,18.1" stroke-linecap="round" stroke-width="1" stroke-linejoin="round" fill="none"/></g><g transform="translate(565.08,552.61)" id="shape16"><path stroke="#3498db" d="M0,0L0,25.4" fill="none"/><path stroke="#3498db" d="M6,13.4L0,25.4L-6,13.4" stroke-linecap="round" stroke-width="1" stroke-linejoin="round" fill="none"/></g><path stroke="#3498db" transform="translate(538.6,578.03)" d="M26.5,54.6L52.9,27.3L26.5,0L0,27.3L26.5,54.6z" fill="none" id="shape17"/><g transform="translate(565.08,632.61)" id="shape18"><path stroke="#3498db" d="M0,0L-0,25.4" fill="none"/><path stroke="#3498db" d="M6,13.4L-0,25.4L-6,13.4" stroke-linecap="round" stroke-width="1" stroke-linejoin="round" fill="none"/></g></g></svg>