<svg xmlns:xlink="http://www.w3.org/1999/xlink" height="804" width="1133" viewBox="0 0 1133 804" xmlns="http://www.w3.org/2000/svg" xmlns:ev="http://www.w3.org/2001/xml-events"><style type="text/css"><![CDATA[
.st1 {fill:#000000;font-family:Arial;font-size:10pt}
.st2 {fill:#1f6391;font-family:Arial;font-size:10pt}
]]></style><defs/><g transform="translate(5,5)" id="page1"><rect stroke="#808080" height="794" width="1123" y="0" fill="#ffffff" x="0"/><g transform="translate(507.56,186.54)" id="shape1"><path stroke="#3498db" d="M106.2,56C114.2,56,120.7,49.5,120.7,41.5L120.7,14.5C120.7,6.5,114.2,0,106.2,0L14.5,0C6.5,0,0,6.5,0,14.5L0,41.5C0,49.5,6.5,56,14.5,56L106.2,56z" fill="none"/><text class="st1"><tspan y="24" x="30.4">Display all </tspan><tspan y="39" x="27.4">notified ads</tspan></text></g><path stroke="#3498db" transform="translate(554.93,131.39)" d="M0,13C0,5.8,5.8,0,13,0C20.2,0,26,5.8,26,13C26,20.2,20.2,26,13,26C5.8,26,0,20.2,0,13z" fill="#3498db" id="shape2"/><g transform="translate(548.72,636.32)"><path stroke="#ffffff" transform="translate(0.28,0.04)" d="M0,13C0,5.8,5.8,0,13,0C20.1,0,25.9,5.8,25.9,13C25.9,20.1,20.1,25.9,13,25.9C5.8,25.9,0,20.1,0,13z" fill="#3498db" id="shape3"/><path stroke="#ffffff" transform="translate(3.25,3.25)" d="M0,9.8C0,4.4,4.4,0,9.8,0C15.1,0,19.5,4.4,19.5,9.8C19.5,15.1,15.1,19.5,9.8,19.5C4.4,19.5,0,15.1,0,9.8z" fill="#3498db" id="shape4"/></g><g transform="translate(567.93,157.39)" id="shape5"><path stroke="#3498db" d="M0,0L0,29.2" fill="none"/><path stroke="#3498db" d="M6,17.2L0,29.2L-6,17.2" stroke-linecap="round" stroke-width="1" stroke-linejoin="round" fill="none"/></g><g transform="translate(395.44,368.64)" id="shape6"><path stroke="#3498db" d="M0,0L0,209.6L139.8,209.6" fill="none"/><path stroke="#3498db" d="M127.8,203.6L139.8,209.6L127.8,215.6" stroke-linecap="round" stroke-width="1" stroke-linejoin="round" fill="none"/></g><g transform="translate(501.93,282.69)" id="shape7"><path stroke="#3498db" d="M66,115.9L132,57.9L66,0L0,57.9L66,115.9z" fill="none"/><text class="st1"><tspan y="61.4" x="33.2">Ads clicked</tspan></text></g><g transform="translate(633.93,340.64)" id="shape8"><path stroke="#3498db" d="M0,0L35.5,0L35.5,63.7" fill="none"/><path stroke="#3498db" d="M41.5,51.7L35.5,63.7L29.5,51.7" stroke-linecap="round" stroke-width="1" stroke-linejoin="round" fill="none"/></g><g transform="translate(501.93,340.64)" id="shape9"><path stroke="#3498db" d="M0,0L-46.1,0" fill="none"/><path stroke="#3498db" d="M-34.1,6L-46.1,0L-34.1,-6" stroke-linecap="round" stroke-width="1" stroke-linejoin="round" fill="none"/></g><g transform="translate(462.3,321.32)" id="shape10"><text class="st2"><tspan y="14.4" x="12.3">Yes</tspan></text></g><g transform="translate(622.75,321.32)" id="shape11"><text class="st2"><tspan y="14.4" x="15.3">No</tspan></text></g><g transform="translate(335.08,312.64)" id="shape12"><path stroke="#3498db" d="M106.2,56C114.2,56,120.7,49.5,120.7,41.5L120.7,14.5C120.7,6.5,114.2,0,106.2,0L14.5,0C6.5,0,0,6.5,0,14.5L0,41.5C0,49.5,6.5,56,14.5,56L106.2,56z" fill="none"/><text class="st1"><tspan y="24" x="26.4">Display ads </tspan><tspan y="39" x="28.4">information</tspan></text></g><g transform="translate(631.44,550.5)" id="shape13"><path stroke="#3498db" d="M106.2,56C114.2,56,120.7,49.5,120.7,41.5L120.7,14.5C120.7,6.5,114.2,0,106.2,0L14.5,0C6.5,0,0,6.5,0,14.5L0,41.5C0,49.5,6.5,56,14.5,56L106.2,56z" fill="none"/><text class="st1"><tspan y="24" x="8.4">Remove Ads from </tspan><tspan y="39" x="29.4">notification</tspan></text></g><g transform="translate(567.93,242.54)" id="shape14"><path stroke="#3498db" d="M0,0L0,40.1" fill="none"/><path stroke="#3498db" d="M6,28.1L0,40.1L-6,28.1" stroke-linecap="round" stroke-width="1" stroke-linejoin="round" fill="none"/></g><g transform="translate(631.44,578.5)" id="shape15"><path stroke="#3498db" d="M0,0L-43.3,-0.3" fill="none"/><path stroke="#3498db" d="M-31.3,5.8L-43.3,-0.3L-31.2,-6.2" stroke-linecap="round" stroke-width="1" stroke-linejoin="round" fill="none"/></g><g transform="translate(561.72,605.5)" id="shape16"><path stroke="#3498db" d="M0,0L0,30.8" fill="none"/><path stroke="#3498db" d="M6,18.8L0,30.8L-6,18.8" stroke-linecap="round" stroke-width="1" stroke-linejoin="round" fill="none"/></g><path stroke="#3498db" transform="translate(535.25,550.92)" d="M26.5,54.6L52.9,27.3L26.5,0L0,27.3L26.5,54.6z" fill="none" id="shape17"/><g transform="translate(603.44,404.32)" id="shape18"><path stroke="#3498db" d="M66,115.9L132,57.9L66,0L0,57.9L66,115.9z" fill="none"/><text class="st1"><tspan y="53.9" x="19.5">Clicked remove </tspan><tspan y="68.9" x="47.5">button</tspan></text></g><g transform="translate(735.44,462.26)" id="shape19"><path stroke="#3498db" d="M0,0L52,0L52,116.2L16.7,116.2" fill="none"/><path stroke="#3498db" d="M28.7,122.2L16.7,116.2L28.7,110.2" stroke-linecap="round" stroke-width="1" stroke-linejoin="round" fill="none"/></g><g transform="translate(603.44,462.26)" id="shape20"><path stroke="#3498db" d="M0,0L-41.7,0L-41.7,88.7" fill="none"/><path stroke="#3498db" d="M-35.7,76.7L-41.7,88.7L-47.7,76.7" stroke-linecap="round" stroke-width="1" stroke-linejoin="round" fill="none"/></g><g transform="translate(721.75,438.73)" id="shape21"><text class="st2"><tspan y="14.4" x="12.3">Yes</tspan></text></g><g transform="translate(565.44,438.73)" id="shape22"><text class="st2"><tspan y="14.4" x="15.3">No</tspan></text></g></g></svg>