<svg xmlns:xlink="http://www.w3.org/1999/xlink" height="804" width="1133" viewBox="0 0 1133 804" xmlns="http://www.w3.org/2000/svg" xmlns:ev="http://www.w3.org/2001/xml-events"><style type="text/css"><![CDATA[
.st1 {fill:#000000;font-family:Arial;font-size:10pt}
.st2 {fill:#1f6391;font-family:Arial;font-size:10pt}
]]></style><defs/><g transform="translate(5,5)" id="page1"><rect stroke="#808080" height="794" width="1123" y="0" fill="#ffffff" x="0"/><g transform="translate(499.12,216.23)" id="shape1"><path stroke="#3498db" d="M106.2,56C114.2,56,120.7,49.5,120.7,41.5L120.7,14.5C120.7,6.5,114.2,0,106.2,0L14.5,0C6.5,0,0,6.5,0,14.5L0,41.5C0,49.5,6.5,56,14.5,56L106.2,56z" fill="none"/><text class="st1"><tspan y="16.5" x="18.4">Accept Search </tspan><tspan y="31.5" x="27.4">Ads nearby </tspan><tspan y="46.5" x="38.4">request</tspan></text></g><path stroke="#3498db" transform="translate(546.48,161.08)" d="M0,13C0,5.8,5.8,0,13,0C20.2,0,26,5.8,26,13C26,20.2,20.2,26,13,26C5.8,26,0,20.2,0,13z" fill="#3498db" id="shape2"/><g transform="translate(716.58,606.63)"><path stroke="#ffffff" transform="translate(0.28,0.04)" d="M0,13C0,5.8,5.8,0,13,0C20.1,0,25.9,5.8,25.9,13C25.9,20.1,20.1,25.9,13,25.9C5.8,25.9,0,20.1,0,13z" fill="#3498db" id="shape3"/><path stroke="#ffffff" transform="translate(3.25,3.25)" d="M0,9.8C0,4.4,4.4,0,9.8,0C15.1,0,19.5,4.4,19.5,9.8C19.5,15.1,15.1,19.5,9.8,19.5C4.4,19.5,0,15.1,0,9.8z" fill="#3498db" id="shape4"/></g><g transform="translate(559.48,187.08)" id="shape5"><path stroke="#3498db" d="M0,0L0,29.1" fill="none"/><path stroke="#3498db" d="M6,17.1L0,29.1L-6,17.1" stroke-linecap="round" stroke-width="1" stroke-linejoin="round" fill="none"/></g><g transform="translate(392.94,421.58)" id="shape6"><path stroke="#3498db" d="M0,0L0,-91.2L106.2,-91.2" fill="none"/><path stroke="#3498db" d="M94.2,-97.2L106.2,-91.2L94.2,-85.2" stroke-linecap="round" stroke-width="1" stroke-linejoin="round" fill="none"/></g><g transform="translate(493.48,391.63)" id="shape7"><path stroke="#3498db" d="M66,115.9L132,57.9L66,0L0,57.9L66,115.9z" fill="none"/><text class="st1"><tspan y="61.4" x="14">Location available</tspan></text></g><g transform="translate(625.48,449.58)" id="shape8"><path stroke="#3498db" d="M0,0L43.7,0" fill="none"/><path stroke="#3498db" d="M31.7,-6L43.7,0L31.7,6" stroke-linecap="round" stroke-width="1" stroke-linejoin="round" fill="none"/></g><g transform="translate(493.48,449.58)" id="shape9"><path stroke="#3498db" d="M0,0L-40.2,0" fill="none"/><path stroke="#3498db" d="M-28.2,6L-40.2,0L-28.2,-6" stroke-linecap="round" stroke-width="1" stroke-linejoin="round" fill="none"/></g><g transform="translate(614.94,428.63)" id="shape10"><text class="st2"><tspan y="14.4" x="12.3">Yes</tspan></text></g><g transform="translate(453.85,428.63)" id="shape11"><text class="st2"><tspan y="14.4" x="15.3">No</tspan></text></g><g transform="translate(499.12,302.38)" id="shape12"><path stroke="#3498db" d="M106.2,56C114.2,56,120.7,49.5,120.7,41.5L120.7,14.5C120.7,6.5,114.2,0,106.2,0L14.5,0C6.5,0,0,6.5,0,14.5L0,41.5C0,49.5,6.5,56,14.5,56L106.2,56z" fill="none"/><text class="st1"><tspan y="24" x="27.4">Detect user </tspan><tspan y="39" x="38.4">location</tspan></text></g><g transform="translate(332.58,421.58)" id="shape13"><path stroke="#3498db" d="M106.2,56C114.2,56,120.7,49.5,120.7,41.5L120.7,14.5C120.7,6.5,114.2,0,106.2,0L14.5,0C6.5,0,0,6.5,0,14.5L0,41.5C0,49.5,6.5,56,14.5,56L106.2,56z" fill="none"/><text class="st1"><tspan y="31.5" x="14.4">Turn on location</tspan></text></g><g transform="translate(669.21,421.58)" id="shape14"><path stroke="#3498db" d="M106.2,56C114.2,56,120.7,49.5,120.7,41.5L120.7,14.5C120.7,6.5,114.2,0,106.2,0L14.5,0C6.5,0,0,6.5,0,14.5L0,41.5C0,49.5,6.5,56,14.5,56L106.2,56z" fill="none"/><text class="st1"><tspan y="16.5" x="19.4">Collect nearby </tspan><tspan y="31.5" x="21.4">ads based on </tspan><tspan y="46.5" x="38.4">location</tspan></text></g><g transform="translate(669.21,512.61)" id="shape15"><path stroke="#3498db" d="M106.2,56C114.2,56,120.7,49.5,120.7,41.5L120.7,14.5C120.7,6.5,114.2,0,106.2,0L14.5,0C6.5,0,0,6.5,0,14.5L0,41.5C0,49.5,6.5,56,14.5,56L106.2,56z" fill="none"/><text class="st1"><tspan y="24" x="8.4">Display found ads </tspan><tspan y="39" x="28.4">information</tspan></text></g><g transform="translate(559.48,358.38)" id="shape16"><path stroke="#3498db" d="M0,0L0,33.3" fill="none"/><path stroke="#3498db" d="M6,21.3L0,33.3L-6,21.3" stroke-linecap="round" stroke-width="1" stroke-linejoin="round" fill="none"/></g><g transform="translate(559.48,272.23)" id="shape17"><path stroke="#3498db" d="M0,0L0,30.1" fill="none"/><path stroke="#3498db" d="M6,18.1L0,30.1L-6,18.1" stroke-linecap="round" stroke-width="1" stroke-linejoin="round" fill="none"/></g><g transform="translate(729.58,477.58)" id="shape18"><path stroke="#3498db" d="M0,0L0,35" fill="none"/><path stroke="#3498db" d="M6,23L0,35L-6,23" stroke-linecap="round" stroke-width="1" stroke-linejoin="round" fill="none"/></g><g transform="translate(729.58,568.61)" id="shape19"><path stroke="#3498db" d="M0,0L0,38" fill="none"/><path stroke="#3498db" d="M6,26L0,38L-6,26" stroke-linecap="round" stroke-width="1" stroke-linejoin="round" fill="none"/></g></g></svg>