<svg viewBox="0 0 1133 804" width="1133" xmlns:xlink="http://www.w3.org/1999/xlink" xmlns="http://www.w3.org/2000/svg" xmlns:ev="http://www.w3.org/2001/xml-events" height="804"><style type="text/css"><![CDATA[
.st1 {fill:#000000;font-family:Arial;font-size:10pt}
.st3 {fill:#1f6391;font-family:Arial;font-size:10pt}
.st2 {font-family:Sans Serif;font-size:9pt}
]]></style><defs/><g transform="translate(5,5)" id="page1"><rect fill="#ffffff" width="1123" y="0" x="0" stroke="#808080" height="794"/><g transform="translate(507.48,109.09)" id="shape1"><path fill="none" d="M106.2,56C114.2,56,120.7,49.5,120.7,41.5L120.7,14.5C120.7,6.5,114.2,0,106.2,0L14.5,0C6.5,0,0,6.5,0,14.5L0,41.5C0,49.5,6.5,56,14.5,56L106.2,56z" stroke="#3498db"/><text class="st1"><tspan y="24" x="18.4">Display sign in </tspan><tspan y="39" x="47.4">form</tspan></text></g><g transform="translate(507.48,194.24)" id="shape2"><path fill="none" d="M106.2,56C114.2,56,120.7,49.5,120.7,41.5L120.7,14.5C120.7,6.5,114.2,0,106.2,0L14.5,0C6.5,0,0,6.5,0,14.5L0,41.5C0,49.5,6.5,56,14.5,56L106.2,56z" stroke="#3498db"/><text class="st1"><tspan y="24" x="15.4">Input username </tspan><tspan y="39" x="20.4">and password</tspan></text></g><g transform="translate(679.21,492.82)" id="shape3"><path fill="none" d="M99.4,59C106.9,59,113,52.9,113,45.4L113,13.6C113,6.1,106.9,0,99.4,0L13.6,0C6.1,0,0,6.1,0,13.6L0,45.4C0,52.9,6.1,59,13.6,59L99.4,59z" stroke="#3498db"/><text class="st1"><tspan class="st2" y="25.5" x="22">Display ads </tspan><tspan class="st2" y="40.5" x="11">information list</tspan></text></g><g transform="translate(567.84,165.09)" id="shape4"><path fill="none" d="M0,0L0,29.1" stroke="#3498db"/><path fill="none" d="M6,17.1L0,29.1L-6,17.1" stroke-linecap="round" stroke-width="1" stroke-linejoin="round" stroke="#3498db"/></g><g transform="translate(567.84,250.24)" id="shape5"><path fill="none" d="M0,0L-0.2,25" stroke="#3498db"/><path fill="none" d="M5.9,13.1L-0.2,25L-6.1,13" stroke-linecap="round" stroke-width="1" stroke-linejoin="round" stroke="#3498db"/></g><path fill="#3498db" transform="translate(554.84,53.94)" id="shape6" d="M0,13C0,5.8,5.8,0,13,0C20.2,0,26,5.8,26,13C26,20.2,20.2,26,13,26C5.8,26,0,20.2,0,13z" stroke="#3498db"/><g transform="translate(722.71,585.94)"><path fill="#3498db" transform="translate(0.28,0.04)" id="shape7" d="M0,13C0,5.8,5.8,0,13,0C20.1,0,25.9,5.8,25.9,13C25.9,20.1,20.1,25.9,13,25.9C5.8,25.9,0,20.1,0,13z" stroke="#ffffff"/><path fill="#3498db" transform="translate(3.25,3.25)" id="shape8" d="M0,9.8C0,4.4,4.4,0,9.8,0C15.1,0,19.5,4.4,19.5,9.8C19.5,15.1,15.1,19.5,9.8,19.5C4.4,19.5,0,15.1,0,9.8z" stroke="#ffffff"/></g><g transform="translate(735.71,551.82)" id="shape9"><path fill="none" d="M0,0L0,34.1" stroke="#3498db"/><path fill="none" d="M6,22.1L0,34.1L-6,22.1" stroke-linecap="round" stroke-width="1" stroke-linejoin="round" stroke="#3498db"/></g><g transform="translate(567.84,79.94)" id="shape10"><path fill="none" d="M0,0L0,29.1" stroke="#3498db"/><path fill="none" d="M6,17.1L0,29.1L-6,17.1" stroke-linecap="round" stroke-width="1" stroke-linejoin="round" stroke="#3498db"/></g><path fill="none" transform="translate(541.45,275.27)" id="shape11" d="M26.2,44.4L52.3,22.2L26.2,0L0,22.2L26.2,44.4z" stroke="#3498db"/><g transform="translate(593.79,297.46)" id="shape12"><path fill="none" d="M0,0L141.9,0L141.9,30.9" stroke="#3498db"/><path fill="none" d="M147.9,18.9L141.9,30.9L135.9,18.9" stroke-linecap="round" stroke-width="1" stroke-linejoin="round" stroke="#3498db"/></g><g transform="translate(541.45,297.46)" id="shape13"><path fill="none" d="M0,0L-168,0L-168,26.8" stroke="#3498db"/><path fill="none" d="M-162,14.8L-168,26.8L-174,14.8" stroke-linecap="round" stroke-width="1" stroke-linejoin="round" stroke="#3498db"/></g><g transform="translate(735.07,452.94)" id="shape14"><text class="st3"><tspan y="14.4" x="10.5">Yes</tspan></text></g><g transform="translate(802.07,392.79)" id="shape15"><text class="st3"><tspan y="14.4" x="12.5">No</tspan></text></g><g transform="translate(316.45,459.27)" id="shape16"><path fill="none" d="M99.4,59C106.9,59,113,52.9,113,45.4L113,13.6C113,6.1,106.9,0,99.4,0L13.6,0C6.1,0,0,6.1,0,13.6L0,45.4C0,52.9,6.1,59,13.6,59L99.4,59z" stroke="#3498db"/><text class="st1"><tspan class="st2" y="18" x="41">Send </tspan><tspan class="st2" y="33" x="19">confirmation </tspan><tspan class="st2" y="48" x="42">code</tspan></text></g><g transform="translate(316.45,540.76)" id="shape17"><path fill="none" d="M99.4,59C106.9,59,113,52.9,113,45.4L113,13.6C113,6.1,106.9,0,99.4,0L13.6,0C6.1,0,0,6.1,0,13.6L0,45.4C0,52.9,6.1,59,13.6,59L99.4,59z" stroke="#3498db"/><text class="st1"><tspan class="st2" y="18" x="41">Input </tspan><tspan class="st2" y="33" x="19">confirmation </tspan><tspan class="st2" y="48" x="42">code</tspan></text></g><g transform="translate(372.95,518.27)" id="shape18"><path fill="none" d="M0,0L0,22.5" stroke="#3498db"/><path fill="none" d="M6,10.5L0,22.5L-6,10.5" stroke-linecap="round" stroke-width="1" stroke-linejoin="round" stroke="#3498db"/></g><g transform="translate(664.71,328.32)" id="shape19"><path fill="none" d="M71,122.5L142,61.3L71,0L0,61.3L71,122.5z" stroke="#3498db"/><text class="st1"><tspan y="57.3" x="30.7">Valid account </tspan><tspan y="72.3" x="38.7">information</tspan></text></g><g transform="translate(461.79,362.83)" id="shape20"><path fill="none" d="M66,115.9L132,57.9L66,0L0,57.9L66,115.9z" stroke="#3498db"/><text class="st1"><tspan y="53.9" x="30.4">Valid phone </tspan><tspan y="68.9" x="43.4">number</tspan></text></g><g transform="translate(452.45,580.94)" id="shape21"><path fill="none" d="M68.9,117.1L137.7,58.6L68.9,0L0,58.6L68.9,117.1z" stroke="#3498db"/><text class="st1"><tspan y="54.6" x="15.9">Valid confirmation </tspan><tspan y="69.6" x="53.9">code</tspan></text></g><g transform="translate(316.45,324.27)" id="shape22"><path fill="none" d="M99.4,59C106.9,59,113,52.9,113,45.4L113,13.6C113,6.1,106.9,0,99.4,0L13.6,0C6.1,0,0,6.1,0,13.6L0,45.4C0,52.9,6.1,59,13.6,59L99.4,59z" stroke="#3498db"/><text class="st1"><tspan class="st2" y="25.5" x="20">Enter phone </tspan><tspan class="st2" y="40.5" x="33">number</tspan></text></g><g transform="translate(527.79,362.83)" id="shape23"><path fill="none" d="M0,0L0,-9.1L-98.3,-9.1" stroke="#3498db"/><path fill="none" d="M-86.3,-3.1L-98.3,-9.1L-86.3,-15.1" stroke-linecap="round" stroke-width="1" stroke-linejoin="round" stroke="#3498db"/></g><g transform="translate(735.71,450.82)" id="shape24"><path fill="none" d="M0,0L0,42" stroke="#3498db"/><path fill="none" d="M6,30L0,42L-6,30" stroke-linecap="round" stroke-width="1" stroke-linejoin="round" stroke="#3498db"/></g><g transform="translate(806.71,389.57)" id="shape25"><path fill="none" d="M0,0L22.4,0L22.4,-167.3L-178.5,-167.3" stroke="#3498db"/><path fill="none" d="M-166.5,-161.3L-178.5,-167.3L-166.5,-173.3" stroke-linecap="round" stroke-width="1" stroke-linejoin="round" stroke="#3498db"/></g><g transform="translate(316.45,710.26)" id="shape26"><path fill="none" d="M0,0L-38,0L-38,-573.2L191,-573.2" stroke="#3498db"/><path fill="none" d="M179,-579.2L191,-573.2L179,-567.2" stroke-linecap="round" stroke-width="1" stroke-linejoin="round" stroke="#3498db"/></g><g transform="translate(527.79,478.71)" id="shape27"><path fill="none" d="M0,0L0,10.1L-98.3,10.1" stroke="#3498db"/><path fill="none" d="M-86.3,16.1L-98.3,10.1L-86.3,4.1" stroke-linecap="round" stroke-width="1" stroke-linejoin="round" stroke="#3498db"/></g><g transform="translate(372.95,599.76)" id="shape28"><path fill="none" d="M0,0L0,39.7L79.5,39.7" stroke="#3498db"/><path fill="none" d="M67.5,33.7L79.5,39.7L67.5,45.7" stroke-linecap="round" stroke-width="1" stroke-linejoin="round" stroke="#3498db"/></g><g transform="translate(521.3,580.94)" id="shape29"><path fill="none" d="M0,0L0,-10.7L-91.9,-10.7" stroke="#3498db"/><path fill="none" d="M-79.9,-4.7L-91.9,-10.7L-79.9,-16.7" stroke-linecap="round" stroke-width="1" stroke-linejoin="round" stroke="#3498db"/></g><g transform="translate(316.45,680.76)" id="shape30"><path fill="none" d="M99.4,59C106.9,59,113,52.9,113,45.4L113,13.6C113,6.1,106.9,0,99.4,0L13.6,0C6.1,0,0,6.1,0,13.6L0,45.4C0,52.9,6.1,59,13.6,59L99.4,59z" stroke="#3498db"/><text class="st1"><tspan class="st2" y="18" x="27">Input new </tspan><tspan class="st2" y="33" x="13">username and </tspan><tspan class="st2" y="48" x="28">password</tspan></text></g><g transform="translate(521.3,698.06)" id="shape31"><path fill="none" d="M0,0L0,12.2L-91.9,12.2" stroke="#3498db"/><path fill="none" d="M-79.9,18.2L-91.9,12.2L-79.9,6.2" stroke-linecap="round" stroke-width="1" stroke-linejoin="round" stroke="#3498db"/></g><g transform="translate(590.95,271.27)" id="shape32"><text class="st3"><tspan y="14.4" x="11.9">Accept sign in request</tspan></text></g><g transform="translate(487,714.76)" id="shape33"><text class="st3"><tspan y="14.4" x="10.5">Yes</tspan></text></g><g transform="translate(487,492.82)" id="shape34"><text class="st3"><tspan y="14.4" x="10.5">Yes</tspan></text></g><g transform="translate(374.45,270.27)" id="shape35"><text class="st3"><tspan y="14.4" x="12.4">Forget password request</tspan></text></g><g transform="translate(487,328.32)" id="shape36"><text class="st3"><tspan y="14.4" x="12.5">No</tspan></text></g><g transform="translate(487,540.76)" id="shape37"><text class="st3"><tspan y="14.4" x="12.5">No</tspan></text></g><g transform="translate(372.95,383.27)" id="shape38"><path fill="none" d="M0,0L0,37.5L88.8,37.5" stroke="#3498db"/><path fill="none" d="M76.8,31.5L88.8,37.5L76.8,43.5" stroke-linecap="round" stroke-width="1" stroke-linejoin="round" stroke="#3498db"/></g></g></svg>