<svg viewBox="0 0 1133 804" width="1133" xmlns:xlink="http://www.w3.org/1999/xlink" xmlns="http://www.w3.org/2000/svg" xmlns:ev="http://www.w3.org/2001/xml-events" height="804"><style type="text/css"><![CDATA[
.st1 {fill:#000000;font-family:Arial;font-size:10pt}
]]></style><defs/><g transform="translate(5,5)" id="page1"><rect fill="#ffffff" width="1123" y="0" x="0" stroke="#808080" height="794"/><g transform="translate(504.76,282.21)" id="shape1"><path fill="none" d="M99.4,56C106.9,56,113,49.9,113,42.4L113,13.6C113,6.1,106.9,0,99.4,0L13.6,0C6.1,0,0,6.1,0,13.6L0,42.4C0,49.9,6.1,56,13.6,56L99.4,56z" stroke="#3498db"/><text class="st1"><tspan y="16.5" x="22">Accept view </tspan><tspan y="31.5" x="18">owned house </tspan><tspan y="46.5" x="35">request</tspan></text></g><g transform="translate(504.76,367.36)" id="shape2"><path fill="none" d="M99.4,56C106.9,56,113,49.9,113,42.4L113,13.6C113,6.1,106.9,0,99.4,0L13.6,0C6.1,0,0,6.1,0,13.6L0,42.4C0,49.9,6.1,56,13.6,56L99.4,56z" stroke="#3498db"/><text class="st1"><tspan y="16.5" x="28">Collect all </tspan><tspan y="31.5" x="15">created house </tspan><tspan y="46.5" x="46">info</tspan></text></g><g transform="translate(504.76,452.51)" id="shape3"><path fill="none" d="M99.4,59C106.9,59,113,52.9,113,45.4L113,13.6C113,6.1,106.9,0,99.4,0L13.6,0C6.1,0,0,6.1,0,13.6L0,45.4C0,52.9,6.1,59,13.6,59L99.4,59z" stroke="#3498db"/><text class="st1"><tspan y="25.5" x="27">Display all </tspan><tspan y="40.5" x="15">created house</tspan></text></g><g transform="translate(561.26,338.21)" id="shape4"><path fill="none" d="M0,0L0,29.1" stroke="#3498db"/><path fill="none" d="M6,17.1L0,29.1L-6,17.1" stroke-linecap="round" stroke-width="1" stroke-linejoin="round" stroke="#3498db"/></g><g transform="translate(561.26,423.36)" id="shape5"><path fill="none" d="M0,0L0,29.1" stroke="#3498db"/><path fill="none" d="M6,17.1L0,29.1L-6,17.1" stroke-linecap="round" stroke-width="1" stroke-linejoin="round" stroke="#3498db"/></g><path fill="#3498db" transform="translate(548.26,227.06)" id="shape6" d="M0,13C0,5.8,5.8,0,13,0C20.2,0,26,5.8,26,13C26,20.2,20.2,26,13,26C5.8,26,0,20.2,0,13z" stroke="#3498db"/><g transform="translate(548.26,540.66)"><path fill="#3498db" transform="translate(0.28,0.04)" id="shape7" d="M0,13C0,5.8,5.8,0,13,0C20.1,0,25.9,5.8,25.9,13C25.9,20.1,20.1,25.9,13,25.9C5.8,25.9,0,20.1,0,13z" stroke="#ffffff"/><path fill="#3498db" transform="translate(3.25,3.25)" id="shape8" d="M0,9.8C0,4.4,4.4,0,9.8,0C15.1,0,19.5,4.4,19.5,9.8C19.5,15.1,15.1,19.5,9.8,19.5C4.4,19.5,0,15.1,0,9.8z" stroke="#ffffff"/></g><g transform="translate(561.26,511.51)" id="shape9"><path fill="none" d="M0,0L0,29.1" stroke="#3498db"/><path fill="none" d="M6,17.1L0,29.1L-6,17.1" stroke-linecap="round" stroke-width="1" stroke-linejoin="round" stroke="#3498db"/></g><g transform="translate(561.26,253.06)" id="shape10"><path fill="none" d="M0,0L0,29.2" stroke="#3498db"/><path fill="none" d="M6,17.2L0,29.2L-6,17.2" stroke-linecap="round" stroke-width="1" stroke-linejoin="round" stroke="#3498db"/></g></g></svg>