<svg viewBox="0 0 1133 804" width="1133" xmlns:xlink="http://www.w3.org/1999/xlink" xmlns="http://www.w3.org/2000/svg" xmlns:ev="http://www.w3.org/2001/xml-events" height="804"><style type="text/css"><![CDATA[
.st1 {fill:#000000;font-family:Arial;font-size:10pt}
.st3 {fill:#1f6391;font-family:Arial;font-size:10pt}
.st2 {font-family:Sans Serif;font-size:9pt}
]]></style><defs/><g transform="translate(5,5)" id="page1"><rect fill="#ffffff" width="1123" y="0" x="0" stroke="#808080" height="794"/><g transform="translate(507.03,158.32)" id="shape1"><path fill="none" d="M106.2,56C114.2,56,120.7,49.5,120.7,41.5L120.7,14.5C120.7,6.5,114.2,0,106.2,0L14.5,0C6.5,0,0,6.5,0,14.5L0,41.5C0,49.5,6.5,56,14.5,56L106.2,56z" stroke="#3498db"/><text class="st1"><tspan y="24" x="26.4">Display add </tspan><tspan y="39" x="15.4">house info form</tspan></text></g><g transform="translate(507.03,243.47)" id="shape2"><path fill="none" d="M106.2,56C114.2,56,120.7,49.5,120.7,41.5L120.7,14.5C120.7,6.5,114.2,0,106.2,0L14.5,0C6.5,0,0,6.5,0,14.5L0,41.5C0,49.5,6.5,56,14.5,56L106.2,56z" stroke="#3498db"/><text class="st1"><tspan y="24" x="26.4">Input house </tspan><tspan y="39" x="28.4">information</tspan></text></g><g transform="translate(660.76,478.04)" id="shape3"><path fill="none" d="M99.4,59C106.9,59,113,52.9,113,45.4L113,13.6C113,6.1,106.9,0,99.4,0L13.6,0C6.1,0,0,6.1,0,13.6L0,45.4C0,52.9,6.1,59,13.6,59L99.4,59z" stroke="#3498db"/><text class="st1"><tspan class="st2" y="25.5" x="18">Add house in </tspan><tspan class="st2" y="40.5" x="16">the house list</tspan></text></g><g transform="translate(567.39,214.32)" id="shape4"><path fill="none" d="M0,0L0,29.1" stroke="#3498db"/><path fill="none" d="M6,17.1L0,29.1L-6,17.1" stroke-linecap="round" stroke-width="1" stroke-linejoin="round" stroke="#3498db"/></g><g transform="translate(567.39,299.47)" id="shape5"><path fill="none" d="M0,0L0,29.1" stroke="#3498db"/><path fill="none" d="M6,17.1L0,29.1L-6,17.1" stroke-linecap="round" stroke-width="1" stroke-linejoin="round" stroke="#3498db"/></g><path fill="#3498db" transform="translate(554.39,103.17)" id="shape6" d="M0,13C0,5.8,5.8,0,13,0C20.2,0,26,5.8,26,13C26,20.2,20.2,26,13,26C5.8,26,0,20.2,0,13z" stroke="#3498db"/><g transform="translate(554.39,664.54)"><path fill="#3498db" transform="translate(0.28,0.04)" id="shape7" d="M0,13C0,5.8,5.8,0,13,0C20.1,0,25.9,5.8,25.9,13C25.9,20.1,20.1,25.9,13,25.9C5.8,25.9,0,20.1,0,13z" stroke="#ffffff"/><path fill="#3498db" transform="translate(3.25,3.25)" id="shape8" d="M0,9.8C0,4.4,4.4,0,9.8,0C15.1,0,19.5,4.4,19.5,9.8C19.5,15.1,15.1,19.5,9.8,19.5C4.4,19.5,0,15.1,0,9.8z" stroke="#ffffff"/></g><g transform="translate(567.39,634.54)" id="shape9"><path fill="none" d="M0,0L0,30" stroke="#3498db"/><path fill="none" d="M6,18L0,30L-6,18" stroke-linecap="round" stroke-width="1" stroke-linejoin="round" stroke="#3498db"/></g><g transform="translate(567.39,129.17)" id="shape10"><path fill="none" d="M0,0L0,29.1" stroke="#3498db"/><path fill="none" d="M6,17.1L0,29.1L-6,17.1" stroke-linecap="round" stroke-width="1" stroke-linejoin="round" stroke="#3498db"/></g><g transform="translate(496.39,328.62)" id="shape11"><path fill="none" d="M71,122.5L142,61.3L71,0L0,61.3L71,122.5z" stroke="#3498db"/><text class="st1"><tspan y="57.3" x="35.8">Valid house </tspan><tspan y="72.3" x="25.8">holding number</tspan></text></g><g transform="translate(638.39,389.87)" id="shape12"><path fill="none" d="M0,0L78.9,0L78.9,88.2" stroke="#3498db"/><path fill="none" d="M84.9,76.2L78.9,88.2L72.9,76.2" stroke-linecap="round" stroke-width="1" stroke-linejoin="round" stroke="#3498db"/></g><g transform="translate(496.39,389.87)" id="shape13"><path fill="none" d="M0,0L-32.3,0L-32.3,-118.4L10.6,-118.4" stroke="#3498db"/><path fill="none" d="M-1.4,-124.4L10.6,-118.4L-1.4,-112.4" stroke-linecap="round" stroke-width="1" stroke-linejoin="round" stroke="#3498db"/></g><g transform="translate(639.77,360.62)" id="shape14"><text class="st3"><tspan y="14.4" x="10.5">Yes</tspan></text></g><g transform="translate(455.27,396.62)" id="shape15"><text class="st3"><tspan y="14.4" x="12.5">No</tspan></text></g><g transform="translate(510.89,478.04)" id="shape16"><path fill="none" d="M99.4,59C106.9,59,113,52.9,113,45.4L113,13.6C113,6.1,106.9,0,99.4,0L13.6,0C6.1,0,0,6.1,0,13.6L0,45.4C0,52.9,6.1,59,13.6,59L99.4,59z" stroke="#3498db"/><text class="st1"><tspan class="st2" y="18" x="29">Display a </tspan><tspan class="st2" y="33" x="23">notification </tspan><tspan class="st2" y="48" x="30">message</tspan></text></g><g transform="translate(510.89,575.54)" id="shape17"><path fill="none" d="M99.4,59C106.9,59,113,52.9,113,45.4L113,13.6C113,6.1,106.9,0,99.4,0L13.6,0C6.1,0,0,6.1,0,13.6L0,45.4C0,52.9,6.1,59,13.6,59L99.4,59z" stroke="#3498db"/><text class="st1"><tspan class="st2" y="18" x="34">Display </tspan><tspan class="st2" y="33" x="9">landlords house </tspan><tspan class="st2" y="48" x="48">list</tspan></text></g><g transform="translate(567.39,537.04)" id="shape18"><path fill="none" d="M0,0L0,38.5" stroke="#3498db"/><path fill="none" d="M6,26.5L0,38.5L-6,26.5" stroke-linecap="round" stroke-width="1" stroke-linejoin="round" stroke="#3498db"/></g><g transform="translate(348.76,481.54)" id="shape19"><path fill="none" d="M125.3,52L125.3,0L0,0L0,52L125.3,52z" stroke="#3498db"/><text class="st1"><tspan y="14.5" x="20.1">The house info </tspan><tspan y="29.5" x="44.1">added </tspan><tspan y="44.5" x="27.1">successfully</tspan></text></g><g transform="translate(660.76,507.54)" id="shape20"><path fill="none" d="M0,0L-36.9,0" stroke="#3498db"/><path fill="none" d="M-24.9,6L-36.9,0L-24.9,-6" stroke-linecap="round" stroke-width="1" stroke-linejoin="round" stroke="#3498db"/></g><path fill="none" transform="matrix(1,-0,0,1,474,507.5)" id="shape21" d="M0,0L36.9,0" stroke="#3498db"/></g></svg>