<?xml version="1.0" encoding="UTF-8" standalone="no"?>
<svg
   xmlns:dc="http://purl.org/dc/elements/1.1/"
   xmlns:cc="http://creativecommons.org/ns#"
   xmlns:rdf="http://www.w3.org/1999/02/22-rdf-syntax-ns#"
   xmlns:svg="http://www.w3.org/2000/svg"
   xmlns="http://www.w3.org/2000/svg"
   xmlns:sodipodi="http://sodipodi.sourceforge.net/DTD/sodipodi-0.dtd"
   xmlns:inkscape="http://www.inkscape.org/namespaces/inkscape"
   viewBox="0 0 1133 804"
   width="1133"
   height="804"
   version="1.1"
   id="svg67"
   sodipodi:docname="View house info.svg"
   inkscape:version="0.92.4 5da689c313, 2019-01-14">
  <metadata
     id="metadata71">
    <rdf:RDF>
      <cc:Work
         rdf:about="">
        <dc:format>image/svg+xml</dc:format>
        <dc:type
           rdf:resource="http://purl.org/dc/dcmitype/StillImage" />
        <dc:title></dc:title>
      </cc:Work>
    </rdf:RDF>
  </metadata>
  <sodipodi:namedview
     pagecolor="#ffffff"
     bordercolor="#666666"
     borderopacity="1"
     objecttolerance="10"
     gridtolerance="10"
     guidetolerance="10"
     inkscape:pageopacity="0"
     inkscape:pageshadow="2"
     inkscape:window-width="640"
     inkscape:window-height="480"
     id="namedview69"
     showgrid="false"
     inkscape:zoom="0.22947926"
     inkscape:cx="566.5"
     inkscape:cy="402"
     inkscape:window-x="28"
     inkscape:window-y="0"
     inkscape:window-maximized="0"
     inkscape:current-layer="svg67" />
  <style
     type="text/css"
     id="style2"><![CDATA[
.st1 {fill:#000000;font-family:Arial;font-size:10pt}
]]></style>
  <defs
     id="defs4" />
  <g
     transform="translate(5,5)"
     id="page1">
    <rect
       fill="#ffffff"
       width="1123"
       y="0"
       x="0"
       stroke="#808080"
       height="794"
       id="rect6" />
    <g
       transform="translate(504.76,282.21)"
       id="shape1">
      <path
         fill="none"
         d="M99.4,56C106.9,56,113,49.9,113,42.4L113,13.6C113,6.1,106.9,0,99.4,0L13.6,0C6.1,0,0,6.1,0,13.6L0,42.4C0,49.9,6.1,56,13.6,56L99.4,56z"
         stroke="#3498db"
         id="path8" />
      <text
         class="st1"
         id="text16">
        <tspan
           y="16.5"
           x="35"
           id="tspan10">Display </tspan>
        <tspan
           y="31.5"
           x="11"
           id="tspan12">landlords house </tspan>
        <tspan
           y="46.5"
           x="49"
           id="tspan14">list</tspan>
      </text>
    </g>
    <g
       transform="translate(504.76,367.36)"
       id="shape2">
      <path
         fill="none"
         d="M99.4,56C106.9,56,113,49.9,113,42.4L113,13.6C113,6.1,106.9,0,99.4,0L13.6,0C6.1,0,0,6.1,0,13.6L0,42.4C0,49.9,6.1,56,13.6,56L99.4,56z"
         stroke="#3498db"
         id="path19" />
      <text
         class="st1"
         id="text27">
        <tspan
           y="16.5"
           x="37"
           id="tspan21">Collect </tspan>
        <tspan
           y="31.5"
           x="17"
           id="tspan23">information of </tspan>
        <tspan
           y="46.5"
           x="13"
           id="tspan25">selected house</tspan>
      </text>
    </g>
    <g
       transform="translate(504.76,452.51)"
       id="shape3">
      <path
         fill="none"
         d="M99.4,59C106.9,59,113,52.9,113,45.4L113,13.6C113,6.1,106.9,0,99.4,0L13.6,0C6.1,0,0,6.1,0,13.6L0,45.4C0,52.9,6.1,59,13.6,59L99.4,59z"
         stroke="#3498db"
         id="path30" />
      <text
         class="st1"
         id="text38">
        <tspan
           y="18"
           x="9"
           id="tspan32">Display selected </tspan>
        <tspan
           y="33"
           x="39"
           id="tspan34">house </tspan>
        <tspan
           y="48"
           x="24"
           id="tspan36">information</tspan>
      </text>
    </g>
    <g
       transform="translate(561.26,338.21)"
       id="shape4">
      <path
         fill="none"
         d="M0,0L0,29.1"
         stroke="#3498db"
         id="path41" />
      <path
         fill="none"
         d="M6,17.1L0,29.1L-6,17.1"
         stroke-linecap="round"
         stroke-width="1"
         stroke-linejoin="round"
         stroke="#3498db"
         id="path43" />
    </g>
    <g
       transform="translate(561.26,423.36)"
       id="shape5">
      <path
         fill="none"
         d="M0,0L0,29.1"
         stroke="#3498db"
         id="path46" />
      <path
         fill="none"
         d="M6,17.1L0,29.1L-6,17.1"
         stroke-linecap="round"
         stroke-width="1"
         stroke-linejoin="round"
         stroke="#3498db"
         id="path48" />
    </g>
    <path
       fill="#3498db"
       transform="translate(548.26,227.06)"
       id="shape6"
       d="M0,13C0,5.8,5.8,0,13,0C20.2,0,26,5.8,26,13C26,20.2,20.2,26,13,26C5.8,26,0,20.2,0,13z"
       stroke="#3498db" />
    <g
       transform="translate(548.26,540.66)"
       id="g54">
      <path
         fill="#3498db"
         transform="translate(0.28,0.04)"
         id="shape7"
         d="M0,13C0,5.8,5.8,0,13,0C20.1,0,25.9,5.8,25.9,13C25.9,20.1,20.1,25.9,13,25.9C5.8,25.9,0,20.1,0,13z"
         stroke="#ffffff" />
      <path
         fill="#3498db"
         transform="translate(3.25,3.25)"
         id="shape8"
         d="M0,9.8C0,4.4,4.4,0,9.8,0C15.1,0,19.5,4.4,19.5,9.8C19.5,15.1,15.1,19.5,9.8,19.5C4.4,19.5,0,15.1,0,9.8z"
         stroke="#ffffff" />
    </g>
    <g
       transform="translate(561.26,511.51)"
       id="shape9">
      <path
         fill="none"
         d="M0,0L0,29.1"
         stroke="#3498db"
         id="path56" />
      <path
         fill="none"
         d="M6,17.1L0,29.1L-6,17.1"
         stroke-linecap="round"
         stroke-width="1"
         stroke-linejoin="round"
         stroke="#3498db"
         id="path58" />
    </g>
    <g
       transform="translate(561.26,253.06)"
       id="shape10">
      <path
         fill="none"
         d="M0,0L0,29.2"
         stroke="#3498db"
         id="path61" />
      <path
         fill="none"
         d="M6,17.2L0,29.2L-6,17.2"
         stroke-linecap="round"
         stroke-width="1"
         stroke-linejoin="round"
         stroke="#3498db"
         id="path63" />
    </g>
  </g>
</svg>
