<svg viewBox="0 0 1133 804" width="1133" xmlns:xlink="http://www.w3.org/1999/xlink" xmlns="http://www.w3.org/2000/svg" xmlns:ev="http://www.w3.org/2001/xml-events" height="804"><style type="text/css"><![CDATA[
.st1 {fill:#000000;font-family:Arial;font-size:10pt}
.st3 {fill:#1f6391;font-family:Arial;font-size:10pt}
.st2 {font-family:Sans Serif;font-size:9pt}
]]></style><defs/><g transform="translate(5,5)" id="page1"><rect fill="#ffffff" width="1123" y="0" x="0" stroke="#808080" height="794"/><g transform="translate(444.27,157.51)" id="shape1"><path fill="none" d="M99.4,56C106.9,56,113,49.9,113,42.4L113,13.6C113,6.1,106.9,0,99.4,0L13.6,0C6.1,0,0,6.1,0,13.6L0,42.4C0,49.9,6.1,56,13.6,56L99.4,56z" stroke="#3498db"/><text class="st1"><tspan y="16.5" x="27">Display all </tspan><tspan y="31.5" x="15">created house </tspan><tspan y="46.5" x="49">list</tspan></text></g><g transform="translate(444.27,242.66)" id="shape2"><path fill="none" d="M99.4,56C106.9,56,113,49.9,113,42.4L113,13.6C113,6.1,106.9,0,99.4,0L13.6,0C6.1,0,0,6.1,0,13.6L0,42.4C0,49.9,6.1,56,13.6,56L99.4,56z" stroke="#3498db"/><text class="st1"><tspan class="st2" y="16.5" x="34">Display </tspan><tspan class="st2" y="31.5" x="11">selected house </tspan><tspan class="st2" y="46.5" x="45">info</tspan></text></g><g transform="translate(444.27,568.86)" id="shape3"><path fill="none" d="M99.4,59C106.9,59,113,52.9,113,45.4L113,13.6C113,6.1,106.9,0,99.4,0L13.6,0C6.1,0,0,6.1,0,13.6L0,45.4C0,52.9,6.1,59,13.6,59L99.4,59z" stroke="#3498db"/><text class="st1"><tspan class="st2" y="18" x="35">Update </tspan><tspan class="st2" y="33" x="11">selected house </tspan><tspan class="st2" y="48" x="45">info</tspan></text></g><g transform="translate(500.77,213.51)" id="shape4"><path fill="none" d="M0,0L0,29.2" stroke="#3498db"/><path fill="none" d="M6,17.2L0,29.2L-6,17.2" stroke-linecap="round" stroke-width="1" stroke-linejoin="round" stroke="#3498db"/></g><g transform="translate(500.77,298.66)" id="shape5"><path fill="none" d="M0,0L0,32.3" stroke="#3498db"/><path fill="none" d="M6,20.3L0,32.3L-6,20.3" stroke-linecap="round" stroke-width="1" stroke-linejoin="round" stroke="#3498db"/></g><path fill="#3498db" transform="translate(487.77,102.36)" id="shape6" d="M0,13C0,5.8,5.8,0,13,0C20.2,0,26,5.8,26,13C26,20.2,20.2,26,13,26C5.8,26,0,20.2,0,13z" stroke="#3498db"/><g transform="translate(636.5,665.36)"><path fill="#3498db" transform="translate(0.28,0.04)" id="shape7" d="M0,13C0,5.8,5.8,0,13,0C20.1,0,25.9,5.8,25.9,13C25.9,20.1,20.1,25.9,13,25.9C5.8,25.9,0,20.1,0,13z" stroke="#ffffff"/><path fill="#3498db" transform="translate(3.25,3.25)" id="shape8" d="M0,9.8C0,4.4,4.4,0,9.8,0C15.1,0,19.5,4.4,19.5,9.8C19.5,15.1,15.1,19.5,9.8,19.5C4.4,19.5,0,15.1,0,9.8z" stroke="#ffffff"/></g><g transform="translate(649.5,627.86)" id="shape9"><path fill="none" d="M0,0L0,37.5" stroke="#3498db"/><path fill="none" d="M6,25.5L0,37.5L-6,25.5" stroke-linecap="round" stroke-width="1" stroke-linejoin="round" stroke="#3498db"/></g><g transform="translate(500.77,128.36)" id="shape10"><path fill="none" d="M0,0L0,29.2" stroke="#3498db"/><path fill="none" d="M6,17.2L0,29.2L-6,17.2" stroke-linecap="round" stroke-width="1" stroke-linejoin="round" stroke="#3498db"/></g><g transform="translate(429.77,414.18)" id="shape11"><path fill="none" d="M71,122.5L142,61.3L71,0L0,61.3L71,122.5z" stroke="#3498db"/><text class="st1"><tspan y="64.8" x="36.4">Edit request</tspan></text></g><g transform="translate(500.77,536.68)" id="shape12"><path fill="none" d="M0,0L0,32.2" stroke="#3498db"/><path fill="none" d="M6,20.2L0,32.2L-6,20.2" stroke-linecap="round" stroke-width="1" stroke-linejoin="round" stroke="#3498db"/></g><g transform="translate(429.77,475.43)" id="shape13"><path fill="none" d="M0,0L-32.3,0L-32.3,-289.9L14.5,-289.9" stroke="#3498db"/><path fill="none" d="M2.5,-295.9L14.5,-289.9L2.5,-283.9" stroke-linecap="round" stroke-width="1" stroke-linejoin="round" stroke="#3498db"/></g><g transform="translate(456,528.39)" id="shape14"><text class="st3"><tspan y="14.4" x="10.5">Yes</tspan></text></g><g transform="translate(395,482)" id="shape15"><text class="st3"><tspan y="14.4" x="12.5">No</tspan></text></g><g transform="translate(444.27,330.97)" id="shape16"><path fill="none" d="M99.4,56C106.9,56,113,49.9,113,42.4L113,13.6C113,6.1,106.9,0,99.4,0L13.6,0C6.1,0,0,6.1,0,13.6L0,42.4C0,49.9,6.1,56,13.6,56L99.4,56z" stroke="#3498db"/><text class="st1"><tspan class="st2" y="24" x="14">Input updated </tspan><tspan class="st2" y="39" x="22">information</tspan></text></g><g transform="translate(593,568.86)" id="shape17"><path fill="none" d="M99.4,59C106.9,59,113,52.9,113,45.4L113,13.6C113,6.1,106.9,0,99.4,0L13.6,0C6.1,0,0,6.1,0,13.6L0,45.4C0,52.9,6.1,59,13.6,59L99.4,59z" stroke="#3498db"/><text class="st1"><tspan class="st2" y="18" x="40">Show </tspan><tspan class="st2" y="33" x="23">notification </tspan><tspan class="st2" y="48" x="30">message</tspan></text></g><g transform="translate(500.77,386.97)" id="shape18"><path fill="none" d="M0,0L0,27.2" stroke="#3498db"/><path fill="none" d="M6,15.2L0,27.2L-6,15.2" stroke-linecap="round" stroke-width="1" stroke-linejoin="round" stroke="#3498db"/></g><g transform="translate(557.27,598.36)" id="shape19"><path fill="none" d="M0,0L35.7,0" stroke="#3498db"/><path fill="none" d="M23.7,-6L35.7,0L23.7,6" stroke-linecap="round" stroke-width="1" stroke-linejoin="round" stroke="#3498db"/></g><g transform="translate(706,598.36)" id="shape20"><path fill="none" d="M0,0L24,0L24,-412.8L-148.7,-412.8" stroke="#3498db"/><path fill="none" d="M-136.7,-406.8L-148.7,-412.8L-136.7,-418.8" stroke-linecap="round" stroke-width="1" stroke-linejoin="round" stroke="#3498db"/></g></g></svg>