<svg viewBox="0 0 1133 804" width="1133" xmlns:xlink="http://www.w3.org/1999/xlink" xmlns="http://www.w3.org/2000/svg" xmlns:ev="http://www.w3.org/2001/xml-events" height="804"><style type="text/css"><![CDATA[
.st1 {fill:#000000;font-family:Arial;font-size:10pt}
.st3 {fill:#1f6391;font-family:Arial;font-size:10pt}
.st2 {font-family:Sans Serif;font-size:9pt}
]]></style><defs/><g transform="translate(5,5)" id="page1"><rect fill="#ffffff" width="1123" y="0" x="0" stroke="#808080" height="794"/><g transform="translate(464.27,216.78)" id="shape1"><path fill="none" d="M99.4,56C106.9,56,113,49.9,113,42.4L113,13.6C113,6.1,106.9,0,99.4,0L13.6,0C6.1,0,0,6.1,0,13.6L0,42.4C0,49.9,6.1,56,13.6,56L99.4,56z" stroke="#3498db"/><text class="st1"><tspan y="24" x="12">Display tenants </tspan><tspan y="39" x="10">information form</tspan></text></g><g transform="translate(464.27,301.92)" id="shape2"><path fill="none" d="M99.4,56C106.9,56,113,49.9,113,42.4L113,13.6C113,6.1,106.9,0,99.4,0L13.6,0C6.1,0,0,6.1,0,13.6L0,42.4C0,49.9,6.1,56,13.6,56L99.4,56z" stroke="#3498db"/><text class="st1"><tspan y="24" x="19">Input tenants </tspan><tspan y="39" x="24">information</tspan></text></g><g transform="translate(597.01,517.94)" id="shape3"><path fill="none" d="M99.4,59C106.9,59,113,52.9,113,45.4L113,13.6C113,6.1,106.9,0,99.4,0L13.6,0C6.1,0,0,6.1,0,13.6L0,45.4C0,52.9,6.1,59,13.6,59L99.4,59z" stroke="#3498db"/><text class="st1"><tspan class="st2" y="25.5" x="16">Store tenants </tspan><tspan class="st2" y="40.5" x="45">info</tspan></text></g><g transform="translate(520.77,272.78)" id="shape4"><path fill="none" d="M0,0L0,29.1" stroke="#3498db"/><path fill="none" d="M6,17.1L0,29.1L-6,17.1" stroke-linecap="round" stroke-width="1" stroke-linejoin="round" stroke="#3498db"/></g><g transform="translate(520.77,357.92)" id="shape5"><path fill="none" d="M0,0L0,29.1" stroke="#3498db"/><path fill="none" d="M6,17.1L0,29.1L-6,17.1" stroke-linecap="round" stroke-width="1" stroke-linejoin="round" stroke="#3498db"/></g><path fill="#3498db" transform="translate(507.77,161.63)" id="shape6" d="M0,13C0,5.8,5.8,0,13,0C20.2,0,26,5.8,26,13C26,20.2,20.2,26,13,26C5.8,26,0,20.2,0,13z" stroke="#3498db"/><g transform="translate(640.51,606.09)"><path fill="#3498db" transform="translate(0.28,0.04)" id="shape7" d="M0,13C0,5.8,5.8,0,13,0C20.1,0,25.9,5.8,25.9,13C25.9,20.1,20.1,25.9,13,25.9C5.8,25.9,0,20.1,0,13z" stroke="#ffffff"/><path fill="#3498db" transform="translate(3.25,3.25)" id="shape8" d="M0,9.8C0,4.4,4.4,0,9.8,0C15.1,0,19.5,4.4,19.5,9.8C19.5,15.1,15.1,19.5,9.8,19.5C4.4,19.5,0,15.1,0,9.8z" stroke="#ffffff"/></g><g transform="translate(653.51,576.94)" id="shape9"><path fill="none" d="M0,0L0,29.1" stroke="#3498db"/><path fill="none" d="M6,17.1L0,29.1L-6,17.1" stroke-linecap="round" stroke-width="1" stroke-linejoin="round" stroke="#3498db"/></g><g transform="translate(520.77,187.63)" id="shape10"><path fill="none" d="M0,0L0,29.2" stroke="#3498db"/><path fill="none" d="M6,17.2L0,29.2L-6,17.2" stroke-linecap="round" stroke-width="1" stroke-linejoin="round" stroke="#3498db"/></g><g transform="translate(449.77,387.07)" id="shape11"><path fill="none" d="M71,122.5L142,61.3L71,0L0,61.3L71,122.5z" stroke="#3498db"/><text class="st1"><tspan y="57.3" x="46.5">Confirm </tspan><tspan y="72.3" x="49.5">request</tspan></text></g><g transform="translate(591.77,448.32)" id="shape12"><path fill="none" d="M0,0L61.7,0L61.7,69.6" stroke="#3498db"/><path fill="none" d="M67.7,57.6L61.7,69.6L55.7,57.6" stroke-linecap="round" stroke-width="1" stroke-linejoin="round" stroke="#3498db"/></g><g transform="translate(449.77,448.32)" id="shape13"><path fill="none" d="M0,0L-32.3,0L-32.3,-203.5L14.5,-203.5" stroke="#3498db"/><path fill="none" d="M2.5,-209.5L14.5,-203.5L2.5,-197.5" stroke-linecap="round" stroke-width="1" stroke-linejoin="round" stroke="#3498db"/></g><g transform="translate(597.01,419.07)" id="shape14"><text class="st3"><tspan y="14.4" x="10.5">Yes</tspan></text></g><g transform="translate(412.51,455.07)" id="shape15"><text class="st3"><tspan y="14.4" x="12.5">No</tspan></text></g></g></svg>