<svg xmlns:xlink="http://www.w3.org/1999/xlink" width="1133" xmlns="http://www.w3.org/2000/svg" viewBox="0 0 1133 804" xmlns:ev="http://www.w3.org/2001/xml-events" height="804"><style type="text/css"><![CDATA[
.st5 {fill:#303030;font-family:Adobe Naskh Medium;font-size:10pt}
.st2 {fill:#303030;font-family:Arial;font-size:10pt}
.st1 {fill:#ffffff;font-family:Arial;font-size:10pt}
.st6 {font-family:Arial}
.st4 {font-family:MS Shell Dlg 2}
.st3 {text-decoration:underline}
]]></style><defs><linearGradient y1="0%" y2="100%" x1="0%" x2="0%" id="lg1"><stop offset="0" stop-color="#fbfbfb"/><stop offset="1" stop-color="#efefef"/></linearGradient></defs><g id="page1" transform="translate(5,5)"><rect x="0" width="1123" y="0" stroke="#808080" fill="#ffffff" height="794"/><g id="table1" transform="translate(88.16,92)"><g><path stroke="#838383" d="M0,0L218.6,0L218.6,50.3L0,50.3L0,0z" fill="#969696"/><text class="st1"><tspan x="81" y="29.1">Landlords</tspan></text></g><g><path stroke="#838383" d="M0,50.3L218.6,50.3L218.6,133.8L0,133.8L0,50.3z" fill="#ffffff"/><text class="st2"/></g></g><g transform="translate(88.16,142.5)"><path fill-opacity="0.08" d="M2,2L220.6,2L220.6,30L2,30L2,2z" fill="#000000"/><g id="shape2"><path stroke="#303030" d="M0,0L109.3,0L109.3,28L0,28L0,0z" fill="url(#lg1)"/><text class="st2"><tspan class="st3" x="44.2" y="18">LID</tspan></text></g><g id="shape3" transform="translate(109.31,0)"><path stroke="#303030" d="M0,0L109.3,0L109.3,28L0,28L0,0z" fill="#ffffff"/><text class="st2"><tspan x="45" y="18">INT</tspan></text></g></g><g transform="translate(88.16,170)"><path fill-opacity="0.08" d="M2,2L220.6,2L220.6,30L2,30L2,2z" fill="#000000"/><g id="shape4"><path stroke="#303030" d="M0,0L109.3,0L109.3,28L0,28L0,0z" fill="url(#lg1)"/><text class="st2"><tspan x="37.8" y="18">Name</tspan></text></g><g id="shape5" transform="translate(109.31,0)"><path stroke="#303030" d="M0,0L109.3,0L109.3,28L0,28L0,0z" fill="#ffffff"/><text class="st2"><tspan x="12.2" y="18">VARCHAR(60)</tspan></text></g></g><g transform="translate(88.16,198)"><path fill-opacity="0.08" d="M2,2L220.6,2L220.6,30L2,30L2,2z" fill="#000000"/><g id="shape6"><path stroke="#303030" d="M0,0L109.3,0L109.3,28L0,28L0,0z" fill="url(#lg1)"/><text class="st2"><tspan x="38.6" y="18">Email</tspan></text></g><g id="shape7" transform="translate(109.31,0)"><path stroke="#303030" d="M0,0L109.3,0L109.3,28L0,28L0,0z" fill="#ffffff"/><text class="st2"><tspan x="12.2" y="18">VARCHAR(60)</tspan></text></g></g><g id="table8" transform="translate(90,308.35)"><g><path stroke="#838383" d="M0,0L168.7,0L168.7,51.4L0,51.4L0,0z" fill="#969696"/><text class="st1"><tspan x="54.6" y="29.7">Favourites</tspan></text></g><g><path stroke="#838383" d="M0,51.4L168.7,51.4L168.7,136.8L0,136.8L0,51.4z" fill="#ffffff"/><text class="st2"/></g></g><g transform="translate(90,359.85)"><path fill-opacity="0.08" d="M2,2L170.7,2L170.7,30L2,30L2,2z" fill="#000000"/><g id="shape9"><path stroke="#303030" d="M0,0L84.3,0L84.3,28L0,28L0,0z" fill="url(#lg1)"/><text class="st2"><tspan class="st3" x="24.2" y="18">AdsID</tspan></text></g><g id="shape10" transform="translate(84.34,0)"><path stroke="#303030" d="M0,0L84.3,0L84.3,28L0,28L0,0z" fill="#ffffff"/><text class="st2"><tspan x="32.2" y="18">INT</tspan></text></g></g><g transform="translate(90,387.35)"><path fill-opacity="0.08" d="M2,2L170.7,2L170.7,30L2,30L2,2z" fill="#000000"/><g id="shape11"><path stroke="#303030" d="M0,0L84.3,0L84.3,28L0,28L0,0z" fill="url(#lg1)"/><text class="st2"><tspan class="st3" x="31.4" y="18">HID</tspan></text></g><g id="shape12" transform="translate(84.34,0)"><path stroke="#303030" d="M0,0L84.3,0L84.3,28L0,28L0,0z" fill="#ffffff"/><text class="st2"><tspan x="32.2" y="18">INT</tspan></text></g></g><g transform="translate(90,415.35)"><path fill-opacity="0.08" d="M2,2L170.7,2L170.7,30L2,30L2,2z" fill="#000000"/><g id="shape13"><path stroke="#303030" d="M0,0L84.3,0L84.3,28L0,28L0,0z" fill="url(#lg1)"/><text class="st2"><tspan x="17" y="18">AddDate</tspan></text></g><g id="shape14" transform="translate(84.34,0)"><path stroke="#303030" d="M0,0L84.3,0L84.3,28L0,28L0,0z" fill="#ffffff"/><text class="st2"><tspan x="13" y="18">Date/Time</tspan></text></g></g><g id="table15" transform="translate(416.27,370)"><g><path stroke="#838383" d="M0,0L211.7,0L211.7,51.4L0,51.4L0,0z" fill="#969696"/><text class="st1"><tspan class="st4" x="71.4" y="30.1">Transaction</tspan></text></g><g><path stroke="#838383" d="M0,51.4L211.7,51.4L211.7,136.8L0,136.8L0,51.4z" fill="#ffffff"/><text class="st2"/></g></g><g transform="translate(481.31,398.5)"><path fill-opacity="0.08" d="M2,2L187,2L187,30L2,30L2,2z" fill="#000000"/><g id="shape16" transform="translate(-65.05,23)"><path stroke="#303030" d="M0,0L105.9,0L105.9,28L0,28L0,0z" fill="url(#lg1)"/><text class="st2"><tspan class="st3" x="40.4" y="18">TrID</tspan></text></g><g id="shape17" transform="translate(40.81,23)"><path stroke="#303030" d="M0,0L105.9,0L105.9,28L0,28L0,0z" fill="#ffffff"/><text class="st2"><tspan x="42.8" y="18">INT</tspan></text></g></g><g transform="translate(416.27,449)"><path fill-opacity="0.08" d="M2,2L213.7,2L213.7,30L2,30L2,2z" fill="#000000"/><g id="shape18"><path stroke="#303030" d="M0,0L105.9,0L105.9,28L0,28L0,0z" fill="url(#lg1)"/><text class="st2"><tspan class="st3" x="42.8" y="18">LID</tspan></text></g><g id="shape19" transform="translate(105.85,0)"><path stroke="#303030" d="M0,0L105.9,0L105.9,28L0,28L0,0z" fill="#ffffff"/><text class="st2"><tspan x="42.8" y="18">INT</tspan></text></g></g><g transform="translate(416.27,477)"><path fill-opacity="0.08" d="M2,2L213.7,2L213.7,30L2,30L2,2z" fill="#000000"/><g id="shape20"><path stroke="#303030" d="M0,0L105.9,0L105.9,28L0,28L0,0z" fill="url(#lg1)"/><text class="st2"><tspan x="33.2" y="18">Money</tspan></text></g><g id="shape21" transform="translate(105.85,0)"><path stroke="#303030" d="M0,0L105.9,0L105.9,28L0,28L0,0z" fill="#ffffff"/><text class="st2"><tspan x="42.8" y="18">INT</tspan></text></g></g><g id="table22" transform="translate(778.64,509.25)"><g><path stroke="#838383" d="M0,0L205.5,0L205.5,56.3L0,56.3L0,0z" fill="#969696"/><text class="st1"><tspan x="80.2" y="32.1">Tenants</tspan></text></g><g><path stroke="#838383" d="M0,56.3L205.5,56.3L205.5,149.8L0,149.8L0,56.3z" fill="#ffffff"/><text class="st2"/></g></g><g transform="translate(778.64,557.04)"><path fill-opacity="0.08" d="M2,2L207.5,2L207.5,27.2L2,27.2L2,2z" fill="#000000"/><g id="shape23"><path stroke="#303030" d="M0,0L102.7,0L102.7,25.2L0,25.2L0,0z" fill="url(#lg1)"/><text class="st2"><tspan class="st3" x="41.2" y="16.6">TID</tspan></text></g><g id="shape24" transform="translate(102.73,0)"><path stroke="#303030" d="M0,0L102.7,0L102.7,25.2L0,25.2L0,0z" fill="#ffffff"/><text class="st2"><tspan x="41.2" y="16.6">INT</tspan></text></g></g><g transform="translate(778.64,581.54)"><path fill-opacity="0.08" d="M2,2L207.5,2L207.5,26.7L2,26.7L2,2z" fill="#000000"/><g id="shape25"><path stroke="#303030" d="M0,0L102.7,0L102.7,24.7L0,24.7L0,0z" fill="url(#lg1)"/><text class="st2"><tspan x="34.8" y="16.4">Name</tspan></text></g><g id="shape26" transform="translate(102.73,0)"><path stroke="#303030" d="M0,0L102.7,0L102.7,24.7L0,24.7L0,0z" fill="#ffffff"/><text class="st2"><tspan x="8.4" y="16.4">VARCHAR(60)</tspan></text></g></g><g id="table27" transform="translate(778.68,91)"><g><path stroke="#838383" d="M0,0L212.2,0L212.2,51.4L0,51.4L0,0z" fill="#969696"/><text class="st1"><tspan x="76.2" y="29.7">AdsHouse</tspan></text></g><g><path stroke="#838383" d="M0,51.4L212.2,51.4L212.2,136.8L0,136.8L0,51.4z" fill="#ffffff"/><text class="st2"/></g></g><g transform="translate(778.68,142.5)"><path fill-opacity="0.08" d="M2,2L214.2,2L214.2,30L2,30L2,2z" fill="#000000"/><g id="shape28"><path stroke="#303030" d="M0,0L106.1,0L106.1,28L0,28L0,0z" fill="url(#lg1)"/><text class="st2"><tspan class="st3" x="35.3" y="18">AdsID</tspan></text></g><g id="shape29" transform="translate(106.11,0)"><path stroke="#303030" d="M0,0L106.1,0L106.1,28L0,28L0,0z" fill="#ffffff"/><text class="st2"><tspan x="43.3" y="18">INT</tspan></text></g></g><g transform="translate(778.68,170)"><path fill-opacity="0.08" d="M2,2L214.2,2L214.2,30L2,30L2,2z" fill="#000000"/><g id="shape30"><path stroke="#303030" d="M0,0L106.1,0L106.1,28L0,28L0,0z" fill="url(#lg1)"/><text class="st2"><tspan x="41.7" y="18">HID</tspan></text></g><g id="shape31" transform="translate(106.11,0)"><path stroke="#303030" d="M0,0L106.1,0L106.1,28L0,28L0,0z" fill="#ffffff"/><text class="st2"><tspan x="43.3" y="18">INT</tspan></text></g></g><g transform="translate(778.68,198)"><path fill-opacity="0.08" d="M2,2L214.2,2L214.2,30L2,30L2,2z" fill="#000000"/><g id="shape32"><path stroke="#303030" d="M0,0L106.1,0L106.1,28L0,28L0,0z" fill="url(#lg1)"/><text class="st2"><tspan x="17.7" y="18">HouseName</tspan></text></g><g id="shape33" transform="translate(106.11,0)"><path stroke="#303030" d="M0,0L106.1,0L106.1,28L0,28L0,0z" fill="#ffffff"/><text class="st2"><tspan x="10.5" y="18">VARCHAR(60)</tspan></text></g></g><g id="table34" transform="translate(416,87.25)"><g><path stroke="#838383" d="M0,0L168.7,0L168.7,51.4L0,51.4L0,0z" fill="#969696"/><text class="st1"><tspan x="47.4" y="29.7">OwnerHouse</tspan></text></g><g><path stroke="#838383" d="M0,51.4L168.7,51.4L168.7,136.8L0,136.8L0,51.4z" fill="#ffffff"/><text class="st2"/></g></g><g transform="translate(416,138.75)"><path fill-opacity="0.08" d="M2,2L170.7,2L170.7,30L2,30L2,2z" fill="#000000"/><g id="shape35"><path stroke="#303030" d="M0,0L84.3,0L84.3,28L0,28L0,0z" fill="url(#lg1)"/><text class="st2"><tspan class="st3" x="32.2" y="18">LID</tspan></text></g><g id="shape36" transform="translate(84.34,0)"><path stroke="#303030" d="M0,0L84.3,0L84.3,28L0,28L0,0z" fill="#ffffff"/><text class="st2"><tspan x="32.2" y="18">INT</tspan></text></g></g><g transform="translate(416,166.25)"><path fill-opacity="0.08" d="M2,2L170.7,2L170.7,30L2,30L2,2z" fill="#000000"/><g id="shape37"><path stroke="#303030" d="M0,0L84.3,0L84.3,28L0,28L0,0z" fill="url(#lg1)"/><text class="st2"><tspan class="st3" x="31.4" y="18">HID</tspan></text></g><g id="shape38" transform="translate(84.34,0)"><path stroke="#303030" d="M0,0L84.3,0L84.3,28L0,28L0,0z" fill="#ffffff"/><text class="st2"><tspan x="32.2" y="18">INT</tspan></text></g></g><g transform="translate(416,194.25)"><path fill-opacity="0.08" d="M2,2L170.7,2L170.7,30L2,30L2,2z" fill="#000000"/><g id="shape39"><path stroke="#303030" d="M0,0L84.3,0L84.3,28L0,28L0,0z" fill="url(#lg1)"/><text class="st2"><tspan x="7.4" y="18">HouseName</tspan></text></g><g id="shape40" transform="translate(84.34,0)"><path stroke="#303030" d="M0,0L84.3,0L84.3,28L0,28L0,0z" fill="#ffffff"/><text class="st2"><tspan x="9" y="10">VARCHAR(</tspan><tspan x="33" y="26">60)</tspan></text></g></g><g id="table41" transform="translate(90,516.5)"><g><path stroke="#838383" d="M0,0L215.9,0L215.9,51.4L0,51.4L0,0z" fill="#969696"/><text class="st1"><tspan x="74.6" y="29.7">TenantsInfo</tspan></text></g><g><path stroke="#838383" d="M0,51.4L215.9,51.4L215.9,136.8L0,136.8L0,51.4z" fill="#ffffff"/><text class="st2"/></g></g><g transform="translate(90,568)"><path fill-opacity="0.08" d="M2,2L217.9,2L217.9,19L2,19L2,2z" fill="#000000"/><g id="shape42"><path stroke="#303030" d="M0,0L107.9,0L107.9,17L0,17L0,0z" fill="url(#lg1)"/><text class="st2"><tspan class="st3" x="43.7" y="12.5">LID</tspan></text></g><g id="shape43" transform="translate(107.94,0)"><path stroke="#303030" d="M0,0L107.9,0L107.9,17L0,17L0,0z" fill="#ffffff"/><text class="st2"><tspan x="43.7" y="12.5">INT</tspan></text></g></g><g transform="translate(90,584.5)"><path fill-opacity="0.08" d="M2,2L217.9,2L217.9,20.5L2,20.5L2,2z" fill="#000000"/><g id="shape44"><path stroke="#303030" d="M0,0L107.9,0L107.9,18.5L0,18.5L0,0z" fill="url(#lg1)"/><text class="st2"><tspan class="st3" x="43.7" y="13.3">TID</tspan></text></g><g id="shape45" transform="translate(107.94,0)"><path stroke="#303030" d="M0,0L107.9,0L107.9,18.5L0,18.5L0,0z" fill="#ffffff"/><text class="st2"><tspan x="43.7" y="13.3">INT</tspan></text></g></g><g transform="translate(90,602.5)"><path fill-opacity="0.08" d="M2,2L217.9,2L217.9,19.5L2,19.5L2,2z" fill="#000000"/><g id="shape46"><path stroke="#303030" d="M0,0L107.9,0L107.9,17.5L0,17.5L0,0z" fill="url(#lg1)"/><text class="st2"><tspan class="st3" x="42.9" y="12.8">HID</tspan></text></g><g id="shape47" transform="translate(107.94,0)"><path stroke="#303030" d="M0,0L107.9,0L107.9,17.5L0,17.5L0,0z" fill="#ffffff"/><text class="st2"><tspan x="43.7" y="12.8">INT</tspan></text></g></g><g transform="translate(90,619.5)"><path fill-opacity="0.08" d="M2,2L217.9,2L217.9,17L2,17L2,2z" fill="#000000"/><g id="shape48"><path stroke="#303030" d="M0,0L107.9,0L107.9,15L0,15L0,0z" fill="url(#lg1)"/><text class="st2"><tspan x="37.3" y="11.5">Name</tspan></text></g><g id="shape49" transform="translate(107.94,0)"><path stroke="#303030" d="M0,0L107.9,0L107.9,15L0,15L0,0z" fill="#ffffff"/><text class="st2"><tspan x="10.9" y="11.5">VARCHAR(60)</tspan></text></g></g><g transform="translate(90,634)"><path fill-opacity="0.08" d="M2,2L217.9,2L217.9,20L2,20L2,2z" fill="#000000"/><g id="shape50"><path stroke="#303030" d="M0,0L107.9,0L107.9,18L0,18L0,0z" fill="url(#lg1)"/><text class="st2"><tspan x="8.5" y="13">NationalCardNo</tspan></text></g><g id="shape51" transform="translate(107.94,0)"><path stroke="#303030" d="M0,0L107.9,0L107.9,18L0,18L0,0z" fill="#ffffff"/><text class="st2"><tspan x="7.7" y="13">VARCHAR(100)</tspan></text></g></g><g transform="translate(416,221.75)"><path fill-opacity="0.08" d="M2,2L170.7,2L170.7,30L2,30L2,2z" fill="#000000"/><g id="shape52"><path stroke="#303030" d="M0,0L84.3,0L84.3,28L0,28L0,0z" fill="url(#lg1)"/><text class="st2"><tspan x="7.4" y="18">NumOfBeds</tspan></text></g><g id="shape53" transform="translate(84.34,0)"><path stroke="#303030" d="M0,0L84.3,0L84.3,28L0,28L0,0z" fill="#ffffff"/><text class="st2"><tspan x="32.2" y="18">INT</tspan></text></g></g><g transform="translate(416.27,504.5)"><path fill-opacity="0.08" d="M2,2L213.7,2L213.7,30L2,30L2,2z" fill="#000000"/><g id="shape54"><path stroke="#303030" d="M0,0L105.9,0L105.9,28L0,28L0,0z" fill="url(#lg1)"/><text class="st2"><tspan x="7.6" y="18">LandlordsName</tspan></text></g><g id="shape55" transform="translate(105.85,0)"><path stroke="#303030" d="M0,0L105.9,0L105.9,28L0,28L0,0z" fill="#ffffff"/><text class="st2"><tspan x="10" y="18">VARCHAR(60)</tspan></text></g></g><g id="shape56" transform="matrix(1,-0.01,0.01,1,306.8,156.5)"><path stroke="#6d6d6d" d="M0,0L104.8,0" fill="none"/><path stroke-width="1" stroke="#6d6d6d" d="M109.2,0L104,-3C104.5,-2.1,104.8,-1.1,104.8,0C104.8,1.1,104.5,2.1,104,3L109.2,0" stroke-linecap="round" fill="#6d6d6d"/></g><g id="shape57" transform="translate(88.16,158.92)"><path stroke="#6d6d6d" d="M0,0L-27.2,0L-27.2,412.7" fill="none"/><path stroke-width="1" stroke="#6d6d6d" d="M-27.2,417.1L-24.2,411.9C-25,412.4,-26.1,412.7,-27.2,412.7C-28.3,412.7,-29.3,412.4,-30.2,411.9L-27.2,417.1" stroke-linecap="round" fill="#6d6d6d"/></g><path stroke="#000000" d="M0,0L29,.5" fill="none" id="shape58" transform="translate(61,576)"/><g transform="translate(88.16,254)"><path fill-opacity="0.08" d="M2,2L220.6,2L220.6,30L2,30L2,2z" fill="#000000"/><g id="shape59"><path stroke="#303030" d="M0,0L109.3,0L109.3,28L0,28L0,0z" fill="url(#lg1)"/><text class="st2"><tspan x="26.6" y="18">Password</tspan></text></g><g id="shape60" transform="translate(109.31,0)"><path stroke="#303030" d="M0,0L109.3,0L109.3,28L0,28L0,0z" fill="#ffffff"/><text class="st2"><tspan x="12.2" y="18">VARCHAR(60)</tspan></text></g></g><g transform="translate(87.65,226)"><path fill-opacity="0.08" d="M2,2L221.6,2L221.6,30L2,30L2,2z" fill="#000000"/><g id="shape61"><path stroke="#303030" d="M0,0L109.8,0L109.8,28L0,28L0,0z" fill="url(#lg1)"/><text class="st2"><tspan x="24.4" y="18">ContactNo</tspan></text></g><g id="shape62" transform="translate(109.82,0)"><path stroke="#303030" d="M0,0L109.8,0L109.8,28L0,28L0,0z" fill="#ffffff"/><text class="st2"><tspan x="45.2" y="18">INT</tspan></text></g></g><g transform="translate(778.59,653.04)"><path fill-opacity="0.08" d="M2,2L207.5,2L207.5,27.2L2,27.2L2,2z" fill="#000000"/><g id="shape63"><path stroke="#303030" d="M0,0L102.7,0L102.7,25.2L0,25.2L0,0z" fill="url(#lg1)"/><text class="st2"><tspan x="22.8" y="16.6">Password</tspan></text></g><g id="shape64" transform="translate(102.75,0)"><path stroke="#303030" d="M0,0L102.7,0L102.7,25.2L0,25.2L0,0z" fill="#ffffff"/><text class="st2"><tspan x="8.4" y="16.6">VARCHAR(60)</tspan></text></g></g><g transform="translate(778.6,606.04)"><path fill-opacity="0.08" d="M2,2L207.5,2L207.5,26.2L2,26.2L2,2z" fill="#000000"/><g id="shape65"><path stroke="#303030" d="M0,0L102.7,0L102.7,24.2L0,24.2L0,0z" fill="url(#lg1)"/><text class="st2"><tspan x="21.2" y="16.1">ContactNo</tspan></text></g><g id="shape66" transform="translate(102.75,0)"><path stroke="#303030" d="M0,0L102.7,0L102.7,24.2L0,24.2L0,0z" fill="#ffffff"/><text class="st2"><tspan x="41.2" y="16.1">INT</tspan></text></g></g><g transform="translate(416,532)"><path fill-opacity="0.08" d="M2,2L214,2L214,30L2,30L2,2z" fill="#000000"/><g id="shape67"><path stroke="#303030" d="M0,0L106,0L106,28L0,28L0,0z" fill="url(#lg1)"/><text class="st2"><tspan x="27.7" y="18">AddDate</tspan></text></g><g id="shape68" transform="translate(105.99,0)"><path stroke="#303030" d="M0,0L106,0L106,28L0,28L0,0z" fill="#ffffff"/><text class="st2"><tspan x="23.7" y="18">Date/Time</tspan></text></g></g><g transform="translate(90,651.5)"><path fill-opacity="0.08" d="M2,2L217.9,2L217.9,21.5L2,21.5L2,2z" fill="#000000"/><g id="shape69"><path stroke="#303030" d="M0,0L107.9,0L107.9,19.5L0,19.5L0,0z" fill="url(#lg1)"/><text class="st2"><tspan x="18.1" y="13.8">FatherName</tspan></text></g><g id="shape70" transform="translate(107.94,0)"><path stroke="#303030" d="M0,0L107.9,0L107.9,19.5L0,19.5L0,0z" fill="#ffffff"/><text class="st2"><tspan x="10.9" y="13.8">VARCHAR(60)</tspan></text></g></g><g transform="translate(90,670.5)"><path fill-opacity="0.08" d="M2,2L217.9,2L217.9,21.5L2,21.5L2,2z" fill="#000000"/><g id="shape71"><path stroke="#303030" d="M0,0L107.9,0L107.9,19.5L0,19.5L0,0z" fill="url(#lg1)"/><text class="st2"><tspan x="17.3" y="13.8">MotherName</tspan></text></g><g id="shape72" transform="translate(107.94,0)"><path stroke="#303030" d="M0,0L107.9,0L107.9,19.5L0,19.5L0,0z" fill="#ffffff"/><text class="st2"><tspan x="10.9" y="13.8">VARCHAR(60)</tspan></text></g></g><g transform="translate(90.14,689.5)"><path fill-opacity="0.08" d="M2,2L220,2L220,21.5L2,21.5L2,2z" fill="#000000"/><g id="shape73"><path stroke="#303030" d="M0,0L109,0L109,19.5L0,19.5L0,0z" fill="url(#lg1)"/><text class="st2"><tspan x="24" y="13.8">ContactNo</tspan></text></g><g id="shape74" transform="translate(109,0)"><path stroke="#303030" d="M0,0L109,0L109,19.5L0,19.5L0,0z" fill="#ffffff"/><text class="st2"><tspan x="44.8" y="13.8">INT</tspan></text></g></g><g transform="translate(90,471.65)"><path fill-opacity="0.08" d="M2,2L170.8,2L170.8,30L2,30L2,2z" fill="#000000"/><g id="shape75"><path stroke="#303030" d="M0,0L84.4,0L84.4,28L0,28L0,0z" fill="url(#lg1)"/><text class="st2"><tspan class="st3" x="32.2" y="18">TID</tspan></text></g><g id="shape76" transform="translate(84.41,0)"><path stroke="#303030" d="M0,0L84.4,0L84.4,28L0,28L0,0z" fill="#ffffff"/><text class="st2"><tspan x="32.2" y="18">INT</tspan></text></g></g><g transform="translate(90,443.5)"><path fill-opacity="0.08" d="M2,2L170.8,2L170.8,30L2,30L2,2z" fill="#000000"/><g id="shape77"><path stroke="#303030" d="M0,0L84.4,0L84.4,28L0,28L0,0z" fill="url(#lg1)"/><text class="st2"><tspan class="st3" x="32.2" y="18">LID</tspan></text></g><g id="shape78" transform="translate(84.41,0)"><path stroke="#303030" d="M0,0L84.4,0L84.4,28L0,28L0,0z" fill="#ffffff"/><text class="st2"><tspan x="32.2" y="18">INT</tspan></text></g></g><g transform="translate(778.6,630.25)"><path fill-opacity="0.08" d="M2,2L207.5,2L207.5,25L2,25L2,2z" fill="#000000"/><g id="shape79"><path stroke="#303030" d="M0,0L102.7,0L102.7,23L0,23L0,0z" fill="url(#lg1)"/><text class="st2"><tspan x="35.6" y="15.5">Email</tspan></text></g><g id="shape80" transform="translate(102.75,0)"><path stroke="#303030" d="M0,0L102.7,0L102.7,23L0,23L0,0z" fill="#ffffff"/><text class="st2"><tspan x="8.4" y="15.5">VARCHAR(60)</tspan></text></g></g><g transform="translate(416,248.25)"><path fill-opacity="0.08" d="M2,2L170.7,2L170.7,30L2,30L2,2z" fill="#000000"/><g id="shape81"><path stroke="#303030" d="M0,0L84.3,0L84.3,28L0,28L0,0z" fill="url(#lg1)"/><text class="st2"><tspan x="9" y="18">NumOfBath</tspan></text></g><g id="shape82" transform="translate(84.34,0)"><path stroke="#303030" d="M0,0L84.3,0L84.3,28L0,28L0,0z" fill="#ffffff"/><text class="st2"><tspan x="32.2" y="18">INT</tspan></text></g></g><g transform="translate(416,274.75)"><path fill-opacity="0.08" d="M2,2L170.7,2L170.7,30L2,30L2,2z" fill="#000000"/><g id="shape83"><path stroke="#303030" d="M0,0L84.3,0L84.3,28L0,28L0,0z" fill="url(#lg1)"/><text class="st5"><tspan class="st6" x="21.8" y="18">Picture</tspan></text></g><g id="shape84" transform="translate(84.34,0)"><path stroke="#303030" d="M0,0L84.3,0L84.3,28L0,28L0,0z" fill="#ffffff"/><text class="st2"><tspan x="25" y="18">BLOB</tspan></text></g></g><g transform="translate(778.62,226.1)"><path fill-opacity="0.08" d="M2,2L214,2L214,30L2,30L2,2z" fill="#000000"/><g id="shape85"><path stroke="#303030" d="M0,0L106,0L106,28L0,28L0,0z" fill="url(#lg1)"/><text class="st2"><tspan x="18.4" y="18">NumOfBeds</tspan></text></g><g id="shape86" transform="translate(106,0)"><path stroke="#303030" d="M0,0L106,0L106,28L0,28L0,0z" fill="#ffffff"/><text class="st2"><tspan x="43.2" y="18">INT</tspan></text></g></g><g transform="translate(778.62,253.6)"><path fill-opacity="0.08" d="M2,2L214,2L214,30L2,30L2,2z" fill="#000000"/><g id="shape87"><path stroke="#303030" d="M0,0L106,0L106,28L0,28L0,0z" fill="url(#lg1)"/><text class="st2"><tspan x="20" y="18">NumOfBath</tspan></text></g><g id="shape88" transform="translate(106,0)"><path stroke="#303030" d="M0,0L106,0L106,28L0,28L0,0z" fill="#ffffff"/><text class="st2"><tspan x="43.2" y="18">INT</tspan></text></g></g><g transform="translate(778.62,281)"><path fill-opacity="0.08" d="M2,2L214,2L214,30L2,30L2,2z" fill="#000000"/><g id="shape89"><path stroke="#303030" d="M0,0L106,0L106,28L0,28L0,0z" fill="url(#lg1)"/><text class="st2"><tspan x="28" y="18">Location</tspan></text></g><g id="shape90" transform="translate(106,0)"><path stroke="#303030" d="M0,0L106,0L106,28L0,28L0,0z" fill="#ffffff"/><text class="st2"><tspan x="10.4" y="18">VARCHAR(60)</tspan></text></g></g><g transform="translate(416,303.1)"><path fill-opacity="0.08" d="M2,2L170.7,2L170.7,30L2,30L2,2z" fill="#000000"/><g id="shape91"><path stroke="#303030" d="M0,0L84.3,0L84.3,28L0,28L0,0z" fill="url(#lg1)"/><text class="st2"><tspan x="17.8" y="18">Location</tspan></text></g><g id="shape92" transform="translate(84.34,0)"><path stroke="#303030" d="M0,0L84.3,0L84.3,28L0,28L0,0z" fill="#ffffff"/><text class="st2"><tspan x="9" y="10">VARCHAR(</tspan><tspan x="33" y="26">60)</tspan></text></g></g><g id="shape93" transform="translate(305.87,611.25)"><path stroke="#6d6d6d" d="M0,0L53.1,0L53.1,-417.9" fill="none"/><path stroke-width="1" stroke="#6d6d6d" d="M53.1,-422.3L50.1,-417.1C51,-417.6,52,-417.9,53.1,-417.9C54.2,-417.9,55.2,-417.6,56.1,-417.1L53.1,-422.3" stroke-linecap="round" fill="#6d6d6d"/></g><path stroke="#000000" d="M0,0L57,-8.8" fill="none" id="shape94" transform="translate(359,189)"/><g transform="translate(778.62,308.35)"><path fill-opacity="0.08" d="M2,2L214,2L214,30L2,30L2,2z" fill="#000000"/><g id="shape95"><path stroke="#303030" d="M0,0L106,0L106,28L0,28L0,0z" fill="url(#lg1)"/><text class="st2"><tspan x="27.7" y="18">AddDate</tspan></text></g><g id="shape96" transform="translate(105.99,0)"><path stroke="#303030" d="M0,0L106,0L106,28L0,28L0,0z" fill="#ffffff"/><text class="st2"><tspan x="23.7" y="18">Date/Time</tspan></text></g></g><g transform="translate(778.6,335.9)"><path fill-opacity="0.08" d="M2,2L214,2L214,30L2,30L2,2z" fill="#000000"/><g id="shape97"><path stroke="#303030" d="M0,0L106,0L106,28L0,28L0,0z" fill="url(#lg1)"/><text class="st2"><tspan x="37.6" y="18">Price</tspan></text></g><g id="shape98" transform="translate(106,0)"><path stroke="#303030" d="M0,0L106,0L106,28L0,28L0,0z" fill="#ffffff"/><text class="st2"><tspan x="43.2" y="18">INT</tspan></text></g></g><g transform="translate(778.6,362.85)"><path fill-opacity="0.08" d="M2,2L214,2L214,30L2,30L2,2z" fill="#000000"/><g id="shape99"><path stroke="#303030" d="M0,0L106,0L106,28L0,28L0,0z" fill="url(#lg1)"/><text class="st2"><tspan x="32" y="18">Picture</tspan></text></g><g id="shape100" transform="translate(106,0)"><path stroke="#303030" d="M0,0L106,0L106,28L0,28L0,0z" fill="#ffffff"/><text class="st2"><tspan x="36" y="18">BLOB</tspan></text></g></g><g transform="translate(778.91,387.35)"><path fill-opacity="0.08" d="M2,2L214,2L214,30L2,30L2,2z" fill="#000000"/><g id="shape101"><path stroke="#303030" d="M0,0L106,0L106,28L0,28L0,0z" fill="url(#lg1)"/><text class="st2"><tspan x="17.6" y="18">ContactNum</tspan></text></g><g id="shape102" transform="translate(106,0)"><path stroke="#303030" d="M0,0L106,0L106,28L0,28L0,0z" fill="#ffffff"/><text class="st2"><tspan x="43.2" y="18">INT</tspan></text></g></g><g transform="translate(778.91,415.35)"><path fill-opacity="0.08" d="M2,2L214,2L214,30L2,30L2,2z" fill="#000000"/><g id="shape103"><path stroke="#303030" d="M0,0L106,0L106,28L0,28L0,0z" fill="url(#lg1)"/><text class="st2"><tspan x="36.8" y="18">Email</tspan></text></g><g id="shape104" transform="translate(106,0)"><path stroke="#303030" d="M0,0L106,0L106,28L0,28L0,0z" fill="#ffffff"/><text class="st2"><tspan x="10.4" y="18">VARCHAR(60)</tspan></text></g></g></g></svg>