<svg viewBox="0 0 1133 804" xmlns:xlink="http://www.w3.org/1999/xlink" height="804" xmlns:ev="http://www.w3.org/2001/xml-events" xmlns="http://www.w3.org/2000/svg" width="1133"><style type="text/css"><![CDATA[
.st2 {fill:#303030;font-family:Arial;font-size:10pt}
.st1 {fill:#ffffff;font-family:Arial;font-size:10pt}
.st3 {text-decoration:underline}
]]></style><defs><linearGradient y1="0%" id="lg1" x1="0%" x2="0%" y2="100%"><stop offset="0" stop-color="#fbfbfb"/><stop offset="1" stop-color="#efefef"/></linearGradient></defs><g id="page1" transform="translate(5,5)"><rect stroke="#808080" x="0" fill="#ffffff" height="794" y="0" width="1123"/><g id="table1" transform="translate(293,279)"><g><path stroke="#838383" fill="#969696" d="M0,0L114,0L114,30L0,30L0,0z"/><text class="st1"><tspan x="33" y="19">Location</tspan></text></g><g><path stroke="#838383" fill="#ffffff" d="M0,30L114,30L114,79.9L0,79.9L0,30z"/><text class="st2"/></g></g><g transform="translate(293,305)"><path fill="#000000" d="M2,2L116,2L116,30L2,30L2,2z" fill-opacity="0.08"/><g id="shape2"><path stroke="#303030" fill="url(#lg1)" d="M0,0L57,0L57,28L0,28L0,0z"/><text class="st2"><tspan x="18" class="st3" y="18">HID</tspan></text></g><g id="shape3" transform="translate(57,0)"><path stroke="#303030" fill="#ffffff" d="M0,0L57,0L57,28L0,28L0,0z"/><text class="st2"><tspan x="19" y="18">INT</tspan></text></g></g><g transform="translate(293,331)"><path fill="#000000" d="M2,2L116,2L116,30L2,30L2,2z" fill-opacity="0.08"/><g id="shape4"><path stroke="#303030" fill="url(#lg1)" d="M0,0L57,0L57,28L0,28L0,0z"/><text class="st2"><tspan x="18" class="st3" y="18">CID</tspan></text></g><g id="shape5" transform="translate(57,0)"><path stroke="#303030" fill="#ffffff" d="M0,0L57,0L57,28L0,28L0,0z"/><text class="st2"><tspan x="19" y="18">INT</tspan></text></g></g><g id="table6" transform="translate(576,279)"><g><path stroke="#838383" fill="#969696" d="M0,0L114,0L114,30L0,30L0,0z"/><text class="st1"><tspan x="33" y="19">Location</tspan></text></g><g><path stroke="#838383" fill="#ffffff" d="M0,30L114,30L114,79.9L0,79.9L0,30z"/><text class="st2"/></g></g></g></svg>