<svg xmlns:ev="http://www.w3.org/2001/xml-events" width="1133" xmlns:xlink="http://www.w3.org/1999/xlink" xmlns="http://www.w3.org/2000/svg" height="804" viewBox="0 0 1133 804"><style type="text/css"><![CDATA[
.st1 {fill:#303030;font-family:Arial;font-size:10pt}
]]></style><defs><linearGradient x1="0%" y2="100%" x2="0%" y1="0%" id="lg1"><stop offset="0" stop-color="#fbfbfb"/><stop offset="1" stop-color="#efefef"/></linearGradient></defs><g transform="translate(5,5)" id="page1"><rect x="0" width="1123" fill="#ffffff" stroke="#808080" y="0" height="794"/><g transform="translate(503.26,208.85)" id="shape1"><path fill="#000000" d="M2,35L59,2L116,35L59,68L2,35z" fill-opacity="0.08"/><path fill="url(#lg1)" d="M0,33L57,0L114,33L57,66L0,33z" stroke="#6d6d6d"/><text class="st1"><tspan x="38" y="36.5">HRMS</tspan></text></g><g transform="translate(524.75,116.98)" id="shape2"><path fill="#000000" d="M2,2L2,44L72.4,44L72.4,2L2,2z" fill-opacity="0.08"/><path fill="url(#lg1)" d="M0,0L0,42L70.4,42L70.4,0L0,0z" stroke="#6d6d6d"/><text class="st1"><tspan x="17.2" y="24.5">Admin</tspan></text></g><g transform="translate(947.1,382.62)"><g id="shape3"><path fill="#000000" d="M2,2M97,21C97,31.5,75.7,40,49.5,40C23.3,40,2,31.5,2,21C2,10.5,23.3,2,49.5,2C75.7,2,97,10.5,97,21z" fill-opacity="0.08"/><path fill="url(#lg1)" d="M0,0M95,19C95,29.5,73.7,38,47.5,38C21.3,38,0,29.5,0,19C0,8.5,21.3,0,47.5,0C73.7,0,95,8.5,95,19z" stroke="#6d6d6d"/></g><path/><text class="st1"><tspan x="36" y="22.5">HID</tspan></text></g><g transform="translate(947.1,269.38)"><g id="shape4"><path fill="#000000" d="M2,2M97,21C97,31.5,75.7,40,49.5,40C23.3,40,2,31.5,2,21C2,10.5,23.3,2,49.5,2C75.7,2,97,10.5,97,21z" fill-opacity="0.08"/><path fill="url(#lg1)" d="M0,0M95,19C95,29.5,73.7,38,47.5,38C21.3,38,0,29.5,0,19C0,8.5,21.3,0,47.5,0C73.7,0,95,8.5,95,19z" stroke="#6d6d6d"/></g><path/><text class="st1"><tspan x="18" y="22.5">HouseInfo</tspan></text></g><g transform="translate(979.6,326)"><g id="shape5"><path fill="#000000" d="M2,2M97,21C97,31.5,75.7,40,49.5,40C23.3,40,2,31.5,2,21C2,10.5,23.3,2,49.5,2C75.7,2,97,10.5,97,21z" fill-opacity="0.08"/><path fill="url(#lg1)" d="M0,0M95,19C95,29.5,73.7,38,47.5,38C21.3,38,0,29.5,0,19C0,8.5,21.3,0,47.5,0C73.7,0,95,8.5,95,19z" stroke="#6d6d6d"/></g><path/><text class="st1"><tspan x="33" y="22.5">Price</tspan></text></g><g transform="translate(852.31,152.59)" id="shape6"><path fill="#000000" d="M2,2L2,54L89.3,54L89.3,2L2,2z" fill-opacity="0.08"/><path fill="url(#lg1)" d="M0,0L0,52L87.3,52L87.3,0L0,0z" stroke="#6d6d6d"/><text class="st1"><tspan x="10.1" y="29.5">Transaction</tspan></text></g><g transform="translate(865.5,326)" id="shape7"><path fill="#000000" d="M2,2L2,44L72.4,44L72.4,2L2,2z" fill-opacity="0.08"/><path fill="url(#lg1)" d="M0,0L0,42L70.4,42L70.4,0L0,0z" stroke="#6d6d6d"/><text class="st1"><tspan x="16.2" y="24.5">House</tspan></text></g><g transform="translate(216.4,167.78)" id="shape8"><path fill="#000000" d="M2,2L2,46.4L76.4,46.4L76.4,2L2,2z" fill-opacity="0.08"/><path fill="url(#lg1)" d="M0,0L0,44.4L74.4,44.4L74.4,0L0,0z" stroke="#6d6d6d"/><text class="st1"><tspan x="8.2" y="25.7">Landlords</tspan></text></g><g transform="translate(542.84,359)" id="shape9"><path fill="#000000" d="M2,2L2,44L72.4,44L72.4,2L2,2z" fill-opacity="0.08"/><path fill="url(#lg1)" d="M0,0L0,42L70.4,42L70.4,0L0,0z" stroke="#6d6d6d"/><text class="st1"><tspan x="12.2" y="24.5">Tenants</tspan></text></g><g transform="translate(376.08,527.96)" id="shape10"><path fill="#000000" d="M2,2L2,52.1L86,52.1L86,2L2,2z" fill-opacity="0.08"/><path fill="url(#lg1)" d="M0,0L0,50.1L84,50.1L84,0L0,0z" stroke="#6d6d6d"/><text class="st1"><tspan x="11.5" y="28.5">Favourites</tspan></text></g><g transform="translate(154.01,390.88)" id="shape11"><path fill="#000000" d="M2,2L2,50.3L83,50.3L83,2L2,2z" fill-opacity="0.08"/><path fill="url(#lg1)" d="M0,0L0,48.3L81,48.3L81,0L0,0z" stroke="#6d6d6d"/><text class="st1"><tspan x="8" y="27.7">OwnHouse</tspan></text></g><g transform="translate(152.01,588.94)" id="shape12"><path fill="#000000" d="M2,2L2,52.7L87,52.7L87,2L2,2z" fill-opacity="0.08"/><path fill="url(#lg1)" d="M0,0L0,50.7L85,50.7L85,0L0,0z" stroke="#6d6d6d"/><text class="st1"><tspan x="9" y="28.9">TenantsInfo</tspan></text></g><g transform="translate(407.46,59.02)"><g id="shape13"><path fill="#000000" d="M2,2M97,21C97,31.5,75.7,40,49.5,40C23.3,40,2,31.5,2,21C2,10.5,23.3,2,49.5,2C75.7,2,97,10.5,97,21z" fill-opacity="0.08"/><path fill="url(#lg1)" d="M0,0M95,19C95,29.5,73.7,38,47.5,38C21.3,38,0,29.5,0,19C0,8.5,21.3,0,47.5,0C73.7,0,95,8.5,95,19z" stroke="#6d6d6d"/></g><path/><text class="st1"><tspan x="37" y="22.5">AID</tspan></text></g><g transform="translate(620.96,59.02)"><g id="shape14"><path fill="#000000" d="M2,2M97,21C97,31.5,75.7,40,49.5,40C23.3,40,2,31.5,2,21C2,10.5,23.3,2,49.5,2C75.7,2,97,10.5,97,21z" fill-opacity="0.08"/><path fill="url(#lg1)" d="M0,0M95,19C95,29.5,73.7,38,47.5,38C21.3,38,0,29.5,0,19C0,8.5,21.3,0,47.5,0C73.7,0,95,8.5,95,19z" stroke="#6d6d6d"/></g><path/><text class="st1"><tspan x="19" y="22.5">Password</tspan></text></g><g transform="translate(939.56,217.21)"><g id="shape15"><path fill="#000000" d="M2,2M97,21C97,31.5,75.7,40,49.5,40C23.3,40,2,31.5,2,21C2,10.5,23.3,2,49.5,2C75.7,2,97,10.5,97,21z" fill-opacity="0.08"/><path fill="url(#lg1)" d="M0,0M95,19C95,29.5,73.7,38,47.5,38C21.3,38,0,29.5,0,19C0,8.5,21.3,0,47.5,0C73.7,0,95,8.5,95,19z" stroke="#6d6d6d"/></g><path/><text class="st1"><tspan x="37" y="22.5">TID</tspan></text></g><g transform="translate(922.55,85.59)"><g id="shape16"><path fill="#000000" d="M2,2M97,21C97,31.5,75.7,40,49.5,40C23.3,40,2,31.5,2,21C2,10.5,23.3,2,49.5,2C75.7,2,97,10.5,97,21z" fill-opacity="0.08"/><path fill="url(#lg1)" d="M0,0M95,19C95,29.5,73.7,38,47.5,38C21.3,38,0,29.5,0,19C0,8.5,21.3,0,47.5,0C73.7,0,95,8.5,95,19z" stroke="#6d6d6d"/></g><path/><text class="st1"><tspan x="34" y="22.5">Date</tspan></text></g><g transform="translate(779.13,85.59)"><g id="shape17"><path fill="#000000" d="M2,2M97,21C97,31.5,75.7,40,49.5,40C23.3,40,2,31.5,2,21C2,10.5,23.3,2,49.5,2C75.7,2,97,10.5,97,21z" fill-opacity="0.08"/><path fill="url(#lg1)" d="M0,0M95,19C95,29.5,73.7,38,47.5,38C21.3,38,0,29.5,0,19C0,8.5,21.3,0,47.5,0C73.7,0,95,8.5,95,19z" stroke="#6d6d6d"/></g><path/><text class="st1"><tspan x="37" y="22.5">LID</tspan></text></g><g transform="translate(973,159.62)"><g id="shape18"><path fill="#000000" d="M2,2M97,21C97,31.5,75.7,40,49.5,40C23.3,40,2,31.5,2,21C2,10.5,23.3,2,49.5,2C75.7,2,97,10.5,97,21z" fill-opacity="0.08"/><path fill="url(#lg1)" d="M0,0M95,19C95,29.5,73.7,38,47.5,38C21.3,38,0,29.5,0,19C0,8.5,21.3,0,47.5,0C73.7,0,95,8.5,95,19z" stroke="#6d6d6d"/></g><path/><text class="st1"><tspan x="34" y="22.5">Cost</tspan></text></g><g transform="translate(51,152.97)"><g id="shape19"><path fill="#000000" d="M2,2M97,21C97,31.5,75.7,40,49.5,40C23.3,40,2,31.5,2,21C2,10.5,23.3,2,49.5,2C75.7,2,97,10.5,97,21z" fill-opacity="0.08"/><path fill="url(#lg1)" d="M0,0M95,19C95,29.5,73.7,38,47.5,38C21.3,38,0,29.5,0,19C0,8.5,21.3,0,47.5,0C73.7,0,95,8.5,95,19z" stroke="#6d6d6d"/></g><path/><text class="st1"><tspan x="37" y="22.5">LID</tspan></text></g><g transform="translate(184.76,88)"><g id="shape20"><path fill="#000000" d="M2,2M97,21C97,31.5,75.7,40,49.5,40C23.3,40,2,31.5,2,21C2,10.5,23.3,2,49.5,2C75.7,2,97,10.5,97,21z" fill-opacity="0.08"/><path fill="url(#lg1)" d="M0,0M95,19C95,29.5,73.7,38,47.5,38C21.3,38,0,29.5,0,19C0,8.5,21.3,0,47.5,0C73.7,0,95,8.5,95,19z" stroke="#6d6d6d"/></g><path/><text class="st1"><tspan x="19" y="22.5">Password</tspan></text></g><g transform="translate(79.25,97.02)"><g id="shape21"><path fill="#000000" d="M2,2M97,21C97,31.5,75.7,40,49.5,40C23.3,40,2,31.5,2,21C2,10.5,23.3,2,49.5,2C75.7,2,97,10.5,97,21z" fill-opacity="0.08"/><path fill="url(#lg1)" d="M0,0M95,19C95,29.5,73.7,38,47.5,38C21.3,38,0,29.5,0,19C0,8.5,21.3,0,47.5,0C73.7,0,95,8.5,95,19z" stroke="#6d6d6d"/></g><path/><text class="st1"><tspan x="31" y="22.5">Email</tspan></text></g><g transform="translate(284.41,97.02)"><g id="shape22"><path fill="#000000" d="M2,2M97,21C97,31.5,75.7,40,49.5,40C23.3,40,2,31.5,2,21C2,10.5,23.3,2,49.5,2C75.7,2,97,10.5,97,21z" fill-opacity="0.08"/><path fill="url(#lg1)" d="M0,0M95,19C95,29.5,73.7,38,47.5,38C21.3,38,0,29.5,0,19C0,8.5,21.3,0,47.5,0C73.7,0,95,8.5,95,19z" stroke="#6d6d6d"/></g><path/><text class="st1"><tspan x="30" y="22.5">Name</tspan></text></g><g transform="translate(530.54,433.5)"><g id="shape23"><path fill="#000000" d="M2,2M97,21C97,31.5,75.7,40,49.5,40C23.3,40,2,31.5,2,21C2,10.5,23.3,2,49.5,2C75.7,2,97,10.5,97,21z" fill-opacity="0.08"/><path fill="url(#lg1)" d="M0,0M95,19C95,29.5,73.7,38,47.5,38C21.3,38,0,29.5,0,19C0,8.5,21.3,0,47.5,0C73.7,0,95,8.5,95,19z" stroke="#6d6d6d"/></g><path/><text class="st1"><tspan x="37" y="22.5">TID</tspan></text></g><g transform="translate(643,447.85)"><g id="shape24"><path fill="#000000" d="M2,2M97,20.3C97,30.4,75.7,38.5,49.5,38.5C23.3,38.5,2,30.4,2,20.3C2,10.2,23.3,2,49.5,2C75.7,2,97,10.2,97,20.3z" fill-opacity="0.08"/><path fill="url(#lg1)" d="M0,0M95,18.3C95,28.4,73.7,36.5,47.5,36.5C21.3,36.5,0,28.4,0,18.3C0,8.2,21.3,-0,47.5,-0C73.7,-0,95,8.2,95,18.3z" stroke="#6d6d6d"/></g><path/><text class="st1"><tspan x="30" y="21.8">Name</tspan></text></g><g transform="translate(657,345)"><g id="shape25"><path fill="#000000" d="M2,2M97,21C97,31.5,75.7,40,49.5,40C23.3,40,2,31.5,2,21C2,10.5,23.3,2,49.5,2C75.7,2,97,10.5,97,21z" fill-opacity="0.08"/><path fill="url(#lg1)" d="M0,0M95,19C95,29.5,73.7,38,47.5,38C21.3,38,0,29.5,0,19C0,8.5,21.3,0,47.5,0C73.7,0,95,8.5,95,19z" stroke="#6d6d6d"/></g><path/><text class="st1"><tspan x="31" y="22.5">Email</tspan></text></g><g transform="translate(670,395.5)"><g id="shape26"><path fill="#000000" d="M2,2M105.5,21C105.5,31.5,82.3,40,53.8,40C25.2,40,2,31.5,2,21C2,10.5,25.2,2,53.8,2C82.3,2,105.5,10.5,105.5,21z" fill-opacity="0.08"/><path fill="url(#lg1)" d="M0,0M103.5,19C103.5,29.5,80.3,38,51.8,38C23.2,38,0,29.5,0,19C0,8.5,23.2,0,51.8,0C80.3,0,103.5,8.5,103.5,19z" stroke="#6d6d6d"/></g><path/><text class="st1"><tspan x="10.3" y="22.5">PhoneNumber</tspan></text></g><g transform="translate(51,639.64)"><g id="shape27"><path fill="#000000" d="M2,2M97,21C97,31.5,75.7,40,49.5,40C23.3,40,2,31.5,2,21C2,10.5,23.3,2,49.5,2C75.7,2,97,10.5,97,21z" fill-opacity="0.08"/><path fill="url(#lg1)" d="M0,0M95,19C95,29.5,73.7,38,47.5,38C21.3,38,0,29.5,0,19C0,8.5,21.3,0,47.5,0C73.7,0,95,8.5,95,19z" stroke="#6d6d6d"/></g><path/><text class="st1"><tspan x="36" y="22.5">HID</tspan></text></g><g transform="translate(246,639.64)"><g id="shape28"><path fill="#000000" d="M2,2M97,21C97,31.5,75.7,40,49.5,40C23.3,40,2,31.5,2,21C2,10.5,23.3,2,49.5,2C75.7,2,97,10.5,97,21z" fill-opacity="0.08"/><path fill="url(#lg1)" d="M0,0M95,19C95,29.5,73.7,38,47.5,38C21.3,38,0,29.5,0,19C0,8.5,21.3,0,47.5,0C73.7,0,95,8.5,95,19z" stroke="#6d6d6d"/></g><path/><text class="st1"><tspan x="11" y="22.5">FatherName</tspan></text></g><g transform="translate(79.25,690)"><g id="shape29"><path fill="#000000" d="M2,2M97,21C97,31.5,75.7,40,49.5,40C23.3,40,2,31.5,2,21C2,10.5,23.3,2,49.5,2C75.7,2,97,10.5,97,21z" fill-opacity="0.08"/><path fill="url(#lg1)" d="M0,0M95,19C95,29.5,73.7,38,47.5,38C21.3,38,0,29.5,0,19C0,8.5,21.3,0,47.5,0C73.7,0,95,8.5,95,19z" stroke="#6d6d6d"/></g><path/><text class="st1"><tspan x="37" y="22.5">LID</tspan></text></g><g transform="translate(478.26,577.78)"><g id="shape30"><path fill="#000000" d="M2,2M97,21C97,31.5,75.7,40,49.5,40C23.3,40,2,31.5,2,21C2,10.5,23.3,2,49.5,2C75.7,2,97,10.5,97,21z" fill-opacity="0.08"/><path fill="url(#lg1)" d="M0,0M95,19C95,29.5,73.7,38,47.5,38C21.3,38,0,29.5,0,19C0,8.5,21.3,0,47.5,0C73.7,0,95,8.5,95,19z" stroke="#6d6d6d"/></g><path/><text class="st1"><tspan x="20" y="22.5">DateTime</tspan></text></g><g transform="translate(508.11,533.89)"><g id="shape31"><path fill="#000000" d="M2,2M97,21C97,31.5,75.7,40,49.5,40C23.3,40,2,31.5,2,21C2,10.5,23.3,2,49.5,2C75.7,2,97,10.5,97,21z" fill-opacity="0.08"/><path fill="url(#lg1)" d="M0,0M95,19C95,29.5,73.7,38,47.5,38C21.3,38,0,29.5,0,19C0,8.5,21.3,0,47.5,0C73.7,0,95,8.5,95,19z" stroke="#6d6d6d"/></g><path/><text class="st1"><tspan x="36" y="22.5">HID</tspan></text></g><g transform="translate(479.26,489.12)"><g id="shape32"><path fill="#000000" d="M2,2M97,21C97,31.5,75.7,40,49.5,40C23.3,40,2,31.5,2,21C2,10.5,23.3,2,49.5,2C75.7,2,97,10.5,97,21z" fill-opacity="0.08"/><path fill="url(#lg1)" d="M0,0M95,19C95,29.5,73.7,38,47.5,38C21.3,38,0,29.5,0,19C0,8.5,21.3,0,47.5,0C73.7,0,95,8.5,95,19z" stroke="#6d6d6d"/></g><path/><text class="st1"><tspan x="37" y="22.5">AID</tspan></text></g><g transform="translate(66,433.5)"><g id="shape33"><path fill="#000000" d="M2,2M97,21C97,31.5,75.7,40,49.5,40C23.3,40,2,31.5,2,21C2,10.5,23.3,2,49.5,2C75.7,2,97,10.5,97,21z" fill-opacity="0.08"/><path fill="url(#lg1)" d="M0,0M95,19C95,29.5,73.7,38,47.5,38C21.3,38,0,29.5,0,19C0,8.5,21.3,0,47.5,0C73.7,0,95,8.5,95,19z" stroke="#6d6d6d"/></g><path/><text class="st1"><tspan x="36" y="22.5">HID</tspan></text></g><g transform="translate(246,433.5)"><g id="shape34"><path fill="#000000" d="M2,2M97,21C97,31.5,75.7,40,49.5,40C23.3,40,2,31.5,2,21C2,10.5,23.3,2,49.5,2C75.7,2,97,10.5,97,21z" fill-opacity="0.08"/><path fill="url(#lg1)" d="M0,0M95,19C95,29.5,73.7,38,47.5,38C21.3,38,0,29.5,0,19C0,8.5,21.3,0,47.5,0C73.7,0,95,8.5,95,19z" stroke="#6d6d6d"/></g><path/><text class="st1"><tspan x="18" y="22.5">HouseInfo</tspan></text></g><path transform="matrix(1,-0.05,0.05,1,935.9,347)" stroke="#385d8a" d="M0,0L43.7,0" fill="none" id="shape35"/><path transform="matrix(-0.69,-0.72,0.72,-0.69,964.2,387.2)" stroke="#385d8a" d="M0,0L41,0" fill="none" id="shape36"/><path transform="matrix(0.64,-0.77,0.77,0.64,935.9,336.5)" stroke="#385d8a" d="M0,0L44,0" fill="none" id="shape37"/><path transform="matrix(-0.92,-0.39,0.39,-0.92,865.5,347)" stroke="#385d8a" d="M0,0L269.6,0" fill="none" id="shape38"/><path transform="matrix(0.98,-0.21,0.21,0.98,577.6,117)" stroke="#385d8a" d="M0,0L93.1,0" fill="none" id="shape39"/><path transform="matrix(0.97,0.22,-0.22,0.97,455,97)" stroke="#385d8a" d="M0,0L89.6,0" fill="none" id="shape40"/><g transform="translate(512.46,59.02)"><g id="shape41"><path fill="#000000" d="M2,2M97,21C97,31.5,75.7,40,49.5,40C23.3,40,2,31.5,2,21C2,10.5,23.3,2,49.5,2C75.7,2,97,10.5,97,21z" fill-opacity="0.08"/><path fill="url(#lg1)" d="M0,0M95,19C95,29.5,73.7,38,47.5,38C21.3,38,0,29.5,0,19C0,8.5,21.3,0,47.5,0C73.7,0,95,8.5,95,19z" stroke="#6d6d6d"/></g><path/><text class="st1"><tspan x="16" y="22.5">UserName</tspan></text></g><path transform="matrix(0,-1,1,0,560,117)" stroke="#385d8a" d="M0,0L20,0" fill="none" id="shape42"/><g transform="translate(848.31,47.59)"><g id="shape43"><path fill="#000000" d="M2,2M97,21C97,31.5,75.7,40,49.5,40C23.3,40,2,31.5,2,21C2,10.5,23.3,2,49.5,2C75.7,2,97,10.5,97,21z" fill-opacity="0.08"/><path fill="url(#lg1)" d="M0,0M95,19C95,29.5,73.7,38,47.5,38C21.3,38,0,29.5,0,19C0,8.5,21.3,0,47.5,0C73.7,0,95,8.5,95,19z" stroke="#6d6d6d"/></g><path/><text class="st1"><tspan x="36" y="22.5">HID</tspan></text></g><path transform="matrix(-0.92,-0.4,0.4,-0.92,956.7,221.8)" stroke="#385d8a" d="M0,0L42.5,0" fill="none" id="shape44"/><path transform="matrix(0.45,0.89,-0.89,0.45,857,119)" stroke="#385d8a" d="M0,0L37.7,0" fill="none" id="shape45"/><path transform="matrix(0,1,-1,0,895.8,85.6)" stroke="#385d8a" d="M0,0L67,0" fill="none" id="shape46"/><path transform="matrix(-0.55,0.84,-0.84,-0.55,939.7,119)" stroke="#385d8a" d="M0,0L40.1,0" fill="none" id="shape47"/><path transform="matrix(-1,-0,0,-1,973,178.6)" stroke="#385d8a" d="M0,0L33.4,0" fill="none" id="shape48"/><g transform="translate(620.78,294.24)"><g id="shape49"><path fill="#000000" d="M2,2M97,21C97,31.5,75.7,40,49.5,40C23.3,40,2,31.5,2,21C2,10.5,23.3,2,49.5,2C75.7,2,97,10.5,97,21z" fill-opacity="0.08"/><path fill="url(#lg1)" d="M0,0M95,19C95,29.5,73.7,38,47.5,38C21.3,38,0,29.5,0,19C0,8.5,21.3,0,47.5,0C73.7,0,95,8.5,95,19z" stroke="#6d6d6d"/></g><path/><text class="st1"><tspan x="19" y="22.5">Password</tspan></text></g><g transform="translate(66,201.58)"><g id="shape50"><path fill="#000000" d="M2,2M105.5,21C105.5,31.5,82.3,40,53.8,40C25.2,40,2,31.5,2,21C2,10.5,25.2,2,53.8,2C82.3,2,105.5,10.5,105.5,21z" fill-opacity="0.08"/><path fill="url(#lg1)" d="M0,0M103.5,19C103.5,29.5,80.3,38,51.8,38C23.2,38,0,29.5,0,19C0,8.5,23.2,0,51.8,0C80.3,0,103.5,8.5,103.5,19z" stroke="#6d6d6d"/></g><path/><text class="st1"><tspan x="10.3" y="22.5">PhoneNumber</tspan></text></g><path transform="matrix(0.97,-0.24,0.24,0.97,150.9,206.1)" stroke="#385d8a" d="M0,0L67.5,0" fill="none" id="shape51"/><path transform="matrix(0.78,-0.62,0.62,0.78,290.8,167.8)" stroke="#385d8a" d="M0,0L52.5,0" fill="none" id="shape52"/><path transform="matrix(-0.96,-0.29,0.29,-0.96,235,167.8)" stroke="#385d8a" d="M0,0L113.1,0" fill="none" id="shape53"/><path transform="matrix(-1,-0.1,0.1,-1,216.4,178.9)" stroke="#385d8a" d="M0,0L70.7,0" fill="none" id="shape54"/><path transform="matrix(-0.69,-0.72,0.72,-0.69,272.2,167.8)" stroke="#385d8a" d="M0,0L57.8,0" fill="none" id="shape55"/><path transform="matrix(0.33,0.95,-0.95,0.33,595.6,401)" stroke="#385d8a" d="M0,0L39.2,0" fill="none" id="shape56"/><path transform="matrix(0.85,0.52,-0.52,0.85,613.3,380)" stroke="#385d8a" d="M0,0L66.4,0" fill="none" id="shape57"/><path transform="matrix(0.62,-0.79,0.79,0.62,613.3,359)" stroke="#385d8a" d="M0,0L39.8,0" fill="none" id="shape58"/><path transform="matrix(-0.6,-0.8,0.8,-0.6,660.1,452.2)" stroke="#385d8a" d="M0,0L77.5,0" fill="none" id="shape59"/><path transform="matrix(0.99,-0.12,0.12,0.99,613.3,369.5)" stroke="#385d8a" d="M0,0L44.1,0" fill="none" id="shape60"/><path transform="matrix(0.9,-0.44,0.44,0.9,460,540.5)" stroke="#385d8a" d="M0,0L40.5,0" fill="none" id="shape61"/><path transform="matrix(-0.9,-0.43,0.43,-0.9,495.4,582.3)" stroke="#385d8a" d="M0,0L39.1,0" fill="none" id="shape62"/><path transform="matrix(1,-0,0,1,460,553)" stroke="#385d8a" d="M0,0L48.1,0" fill="none" id="shape63"/><path transform="matrix(0.91,-0.41,0.41,0.91,113.5,433.5)" stroke="#385d8a" d="M0,0L44.5,0" fill="none" id="shape64"/><path transform="matrix(0.95,0.3,-0.3,0.95,235,415)" stroke="#385d8a" d="M0,0L61.3,0" fill="none" id="shape65"/><path transform="matrix(0.8,-0.6,0.6,0.8,128.9,644.2)" stroke="#385d8a" d="M0,0L28.8,0" fill="none" id="shape66"/><path transform="matrix(0.66,0.75,-0.75,0.66,237,614.3)" stroke="#385d8a" d="M0,0L39.7,0" fill="none" id="shape67"/><path transform="matrix(-0.28,0.96,-0.96,-0.28,173.3,639.6)" stroke="#385d8a" d="M0,0L57.2,0" fill="none" id="shape68"/><g transform="translate(137.61,280.24)" id="shape69"><path fill="#000000" d="M2,35L59,2L116,35L59,68L2,35z" fill-opacity="0.08"/><path fill="url(#lg1)" d="M0,33L57,0L114,33L57,66L0,33z" stroke="#6d6d6d"/><text class="st1"><tspan x="25" y="36.5">Add House</tspan></text></g><g transform="translate(137.51,491.98)" id="shape70"><path fill="#000000" d="M2,35L59,2L116,35L59,68L2,35z" fill-opacity="0.08"/><path fill="url(#lg1)" d="M0,33L57,0L114,33L57,66L0,33z" stroke="#6d6d6d"/><text class="st1"><tspan x="21" y="29">Add Tenants</tspan><tspan x="46" y="44">Info</tspan></text></g><path transform="matrix(-0.3,0.95,-0.95,-0.3,216.4,212.2)" stroke="#385d8a" d="M0,0L71.5,0" fill="none" id="shape71"/><path transform="matrix(0.97,0.24,-0.24,0.97,290.8,190)" stroke="#385d8a" d="M0,0L218.7,0" fill="none" id="shape72"/><path transform="matrix(0.01,1,-1,0.01,560,159)" stroke="#385d8a" d="M0,0L49.9,0" fill="none" id="shape73"/><path transform="matrix(0.97,-0.26,0.26,0.97,617.3,241.9)" stroke="#385d8a" d="M0,0L243.4,0" fill="none" id="shape74"/><path transform="matrix(0,-1,1,0,194.5,390.9)" stroke="#385d8a" d="M0,0L44.6,0" fill="none" id="shape75"/><path transform="matrix(0,1,-1,0,194.5,439.2)" stroke="#385d8a" d="M0,0L52.8,0" fill="none" id="shape76"/><path transform="matrix(0,1,-1,0,194.5,558)" stroke="#385d8a" d="M0,0L31,0" fill="none" id="shape77"/><path transform="matrix(0,1,-1,0,560.3,274.9)" stroke="#385d8a" d="M0,0L84.1,0" fill="none" id="shape78"/><path transform="matrix(0.62,0.78,-0.78,0.62,290.8,212.2)" stroke="#385d8a" d="M0,0L170.1,0" fill="none" id="shape79"/><path transform="matrix(1,0.02,-0.02,1,454,378)" stroke="#385d8a" d="M0,0L88.8,0" fill="none" id="shape80"/><g transform="translate(340.04,345)" id="shape81"><path fill="#000000" d="M2,35L59,2L116,35L59,68L2,35z" fill-opacity="0.08"/><path fill="url(#lg1)" d="M0,33L57,0L114,33L57,66L0,33z" stroke="#6d6d6d"/><text class="st1"><tspan x="13" y="36.5">Add Favourites</tspan></text></g><path transform="matrix(0,1,-1,0,397,411)" stroke="#385d8a" d="M0,0L117,0" fill="none" id="shape82"/><g transform="translate(210.5,690)"><g id="shape83"><path fill="#000000" d="M2,2M97,21C97,31.5,75.7,40,49.5,40C23.3,40,2,31.5,2,21C2,10.5,23.3,2,49.5,2C75.7,2,97,10.5,97,21z" fill-opacity="0.08"/><path fill="url(#lg1)" d="M0,0M95,19C95,29.5,73.7,38,47.5,38C21.3,38,0,29.5,0,19C0,8.5,21.3,0,47.5,0C73.7,0,95,8.5,95,19z" stroke="#6d6d6d"/></g><path/><text class="st1"><tspan x="9" y="22.5">NationalIDNo</tspan></text></g><path transform="matrix(0.21,0.98,-0.98,0.21,215.8,639.6)" stroke="#385d8a" d="M0,0L56.2,0" fill="none" id="shape84"/><g transform="translate(307.91,173.62)" id="shape85"><text class="st1"><tspan x="6.6" y="13.5">M</tspan></text></g><g transform="translate(534.54,337)" id="shape86"><text class="st1"><tspan x="6.6" y="13.5">M</tspan></text></g><g transform="translate(483.26,217.21)" id="shape87"><text class="st1"><tspan x="6.4" y="13.5">1</tspan></text></g><g transform="translate(537.54,278.38)" id="shape88"><text class="st1"><tspan x="6.4" y="13.5">1</tspan></text></g><g transform="translate(215.01,221.85)" id="shape89"><text class="st1"><tspan x="6.4" y="13.5">1</tspan></text></g><g transform="translate(301.36,210.58)" id="shape90"><text class="st1"><tspan x="6.4" y="13.5">1</tspan></text></g><g transform="translate(192.4,370)" id="shape91"><text class="st1"><tspan x="6.6" y="13.5">M</tspan></text></g><g transform="translate(397,501)" id="shape92"><text class="st1"><tspan x="6.6" y="13.5">M</tspan></text></g><g transform="translate(514,382.62)" id="shape93"><text class="st1"><tspan x="6.4" y="13.5">1</tspan></text></g><g transform="translate(194.61,442.5)" id="shape94"><text class="st1"><tspan x="6.6" y="13.5">M</tspan></text></g><g transform="translate(194.61,565.52)" id="shape95"><text class="st1"><tspan x="6.6" y="13.5">M</tspan></text></g><g transform="translate(613.25,246)" id="shape96"><text class="st1"><tspan x="6.4" y="13.5">1</tspan></text></g><g transform="translate(828.31,339)" id="shape97"><text class="st1"><tspan x="6.6" y="13.5">M</tspan></text></g></g></svg>