<svg xmlns="http://www.w3.org/2000/svg" xmlns:xlink="http://www.w3.org/1999/xlink" width="1133" height="804" viewBox="0 0 1133 804" xmlns:ev="http://www.w3.org/2001/xml-events"><style type="text/css"><![CDATA[
.st2 {fill:#1f6391;font-family:Arial;font-size:10pt}
.st3 {fill:#1f6391;font-family:Arial;font-size:9pt}
.st1 {fill:#344961;font-family:Arial;font-size:10pt}
]]></style><defs/><g transform="translate(5,5)" id="page1"><rect width="1123" height="794" stroke="#808080" y="0" fill="#ffffff" x="0"/><g transform="translate(94.77,251.46)" id="shape1"><path d="M11.5,7.6C11.5,3.4,14.9,0,19.1,0C23.3,0,26.8,3.4,26.8,7.6C26.8,11.9,23.3,15.3,19.1,15.3C14.9,15.3,11.5,11.9,11.5,7.6z" fill="#ffffff"/><path d="M11.5,7.6C11.5,3.4,14.9,0,19.1,0C23.3,0,26.8,3.4,26.8,7.6C26.8,11.9,23.3,15.3,19.1,15.3C14.9,15.3,11.5,11.9,11.5,7.6zM19.1,49.7L19.1,15.3M31.7,76.5L19.1,49.7L6.5,76.5M38.2,32.1L0,32.1" stroke="#8d9cb1" fill="none"/><text class="st1"><tspan y="92" x="-9.4">Landlords</tspan></text></g><g transform="translate(95,545.69)" id="shape2"><path d="M11.4,7.6C11.4,3.4,14.8,-0,19,-0C23.2,-0,26.6,3.4,26.6,7.6C26.6,11.8,23.2,15.2,19,15.2C14.8,15.2,11.4,11.8,11.4,7.6z" fill="#ffffff"/><path d="M11.4,7.6C11.4,3.4,14.8,-0,19,-0C23.2,-0,26.6,3.4,26.6,7.6C26.6,11.8,23.2,15.2,19,15.2C14.8,15.2,11.4,11.8,11.4,7.6zM19,49.4L19,15.2M31.5,76L19,49.4L6.5,76M38,31.9L0,31.9" stroke="#8d9cb1" fill="none"/><text class="st1"><tspan y="91.5" x="-3.7">Tenants</tspan></text></g><path d="M0,0L735.3,0L735.3,735.3L0,735.3L0,0z" transform="translate(201.5,32)" id="shape3" stroke="#000000" fill="none"/><path d="M0,24C-0,15.4,7.2,7.5,19,3.2C30.7,-1.2,45.3,-1.2,57,3.2C68.8,7.5,76,15.4,76,24C76,37.3,59,48,38,48C17,48,0,37.3,0,24z" transform="translate(238.92,392.74)" id="shape4" stroke="#8d9cb1" fill="#ffffff"/><g transform="translate(238.92,410.09)" id="shape5"><text class="st2"><tspan y="2.6" x="15">Manage </tspan><tspan y="17.6" x="20">Profile</tspan></text></g><path d="M0,24C-0,15.4,7.2,7.5,19,3.2C30.7,-1.2,45.3,-1.2,57,3.2C68.8,7.5,76,15.4,76,24C76,37.3,59,48,38,48C17,48,0,37.3,0,24z" transform="translate(281.5,474.35)" id="shape6" stroke="#8d9cb1" fill="#ffffff"/><g transform="translate(281.5,491.7)" id="shape7"><text class="st2"><tspan y="2.6" x="17">Access </tspan><tspan y="17.6" x="15">Account</tspan></text></g><path d="M0,24C-0,15.4,7.2,7.5,19,3.2C30.7,-1.2,45.3,-1.2,57,3.2C68.8,7.5,76,15.4,76,24C76,37.3,59,48,38,48C17,48,0,37.3,0,24z" transform="translate(757,99.84)" id="shape8" stroke="#8d9cb1" fill="#ffffff"/><g transform="translate(757,117.19)" id="shape9"><text class="st3"><tspan y="2.6" x="8">Add Tenant </tspan><tspan y="16.6" x="28">Info</tspan></text></g><path d="M0,24C-0,15.4,7.2,7.5,19,3.2C30.7,-1.2,45.3,-1.2,57,3.2C68.8,7.5,76,15.4,76,24C76,37.3,59,48,38,48C17,48,0,37.3,0,24z" transform="translate(242.5,106.38)" id="shape10" stroke="#8d9cb1" fill="#ffffff"/><g transform="translate(242.5,123.73)" id="shape11"><text class="st2"><tspan y="-4.9" x="24">View </tspan><tspan y="10.1" x="17">Owned </tspan><tspan y="25.1" x="17">houses</tspan></text></g><path d="M0,24C-0.1,15.4,7.5,7.4,19.9,3.1C32.2,-1.2,47.4,-1.2,59.7,3.1C72.1,7.4,79.6,15.4,79.6,24C79.6,37.3,61.8,48,39.8,48C17.8,48,0,37.3,0,24z" transform="translate(240.71,613)" id="shape12" stroke="#8d9cb1" fill="#ffffff"/><g transform="translate(240.71,630.35)" id="shape13"><text class="st2"><tspan y="2.6" x="26.3">View </tspan><tspan y="17.6" x="4.3">Notifications</tspan></text></g><path d="M0,24C-0,15.4,7.2,7.5,19,3.2C30.7,-1.2,45.3,-1.2,57,3.2C68.8,7.5,76,15.4,76,24C76,37.3,59,48,38,48C17,48,0,37.3,0,24z" transform="translate(351.46,418.92)" id="shape14" stroke="#8d9cb1" fill="#ffffff"/><g transform="translate(351.46,436.27)" id="shape15"><text class="st2"><tspan y="2.6" x="7">Edit Profile </tspan><tspan y="17.6" x="27">Info</tspan></text></g><path d="M0,24C-0,15.4,7.2,7.5,19,3.2C30.7,-1.2,45.3,-1.2,57,3.2C68.8,7.5,76,15.4,76,24C76,37.3,59,48,38,48C17,48,0,37.3,0,24z" transform="translate(464,449)" id="shape16" stroke="#8d9cb1" fill="#ffffff"/><g transform="translate(464,466.35)" id="shape17"><text class="st2"><tspan y="10.1" x="18">Sign in</tspan></text></g><path d="M0,24C-0,15.4,7.2,7.5,19,3.2C30.7,-1.2,45.3,-1.2,57,3.2C68.8,7.5,76,15.4,76,24C76,37.3,59,48,38,48C17,48,0,37.3,0,24z" transform="translate(351.46,362.27)" id="shape18" stroke="#8d9cb1" fill="#ffffff"/><g transform="translate(351.46,379.62)" id="shape19"><text class="st2"><tspan y="2.6" x="24">View </tspan><tspan y="17.6" x="7">Profile Info</tspan></text></g><path d="M0,24C-0,15.4,7.2,7.5,19,3.2C30.7,-1.2,45.3,-1.2,57,3.2C68.8,7.5,76,15.4,76,24C76,37.3,59,48,38,48C17,48,0,37.3,0,24z" transform="translate(393,54.23)" id="shape20" stroke="#8d9cb1" fill="#ffffff"/><g transform="translate(391,71.58)" id="shape21"><text class="st2"><tspan y="10.1" x="6">Add House</tspan></text></g><path d="M0,24C-0,15.4,7.2,7.5,19,3.2C30.7,-1.2,45.3,-1.2,57,3.2C68.8,7.5,76,15.4,76,24C76,37.3,59,48,38,48C17,48,0,37.3,0,24z" transform="translate(549.25,305.93)" id="shape22" stroke="#8d9cb1" fill="#ffffff"/><g transform="translate(549.25,323.28)" id="shape23"><text class="st2"><tspan y="10.1" x="9">Boost Ads</tspan></text></g><path d="M0,24C-0,15.4,7.2,7.5,19,3.2C30.7,-1.2,45.3,-1.2,57,3.2C68.8,7.5,76,15.4,76,24C76,37.3,59,48,38,48C17,48,0,37.3,0,24z" transform="translate(351.46,643.78)" id="shape24" stroke="#8d9cb1" fill="#ffffff"/><g transform="translate(351.46,661.13)" id="shape25"><text class="st2"><tspan y="2.6" x="9">Search by </tspan><tspan y="17.6" x="17">filtering</tspan></text></g><path d="M0,24C-0,15.4,7.2,7.5,19,3.2C30.7,-1.2,45.3,-1.2,57,3.2C68.8,7.5,76,15.4,76,24C76,37.3,59,48,38,48C17,48,0,37.3,0,24z" transform="translate(363,265.04)" id="shape26" stroke="#8d9cb1" fill="#ffffff"/><g transform="translate(363,282.39)" id="shape27"><text class="st2"><tspan y="-4.9" x="22">Show </tspan><tspan y="10.1" x="15">Created </tspan><tspan y="25.1" x="27">Ads</tspan></text></g><path d="M0,24C-0,15.4,7.2,7.5,19,3.2C30.7,-1.2,45.3,-1.2,57,3.2C68.8,7.5,76,15.4,76,24C76,37.3,59,48,38,48C17,48,0,37.3,0,24z" transform="translate(349.5,702.58)" id="shape28" stroke="#8d9cb1" fill="#ffffff"/><g transform="translate(349.5,719.93)" id="shape29"><text class="st2"><tspan y="-4.9" x="17">Search </tspan><tspan y="10.1" x="7">House Ads </tspan><tspan y="25.1" x="17">Nearby</tspan></text></g><path d="M0,24C-0,15.4,7.2,7.5,19,3.2C30.7,-1.2,45.3,-1.2,57,3.2C68.8,7.5,76,15.4,76,24C76,37.3,59,48,38,48C17,48,0,37.3,0,24z" transform="translate(851,262)" id="shape30" stroke="#8d9cb1" fill="#ffffff"/><g transform="translate(851,279.35)" id="shape31"><text class="st2"><tspan y="-4.9" x="19">Mobile </tspan><tspan y="10.1" x="12">Financial </tspan><tspan y="25.1" x="16">Service</tspan></text></g><path d="M0,24C-0,15.4,7.2,7.5,19,3.2C30.7,-1.2,45.3,-1.2,57,3.2C68.8,7.5,76,15.4,76,24C76,37.3,59,48,38,48C17,48,0,37.3,0,24z" transform="translate(462,102.19)" id="shape32" stroke="#8d9cb1" fill="#ffffff"/><g transform="translate(462,119.54)" id="shape33"><text class="st3"><tspan y="2.6" x="6">View House </tspan><tspan y="16.6" x="28">Info</tspan></text></g><path d="M0,24C-0,15.4,7.2,7.5,19,3.2C30.7,-1.2,45.3,-1.2,57,3.2C68.8,7.5,76,15.4,76,24C76,37.3,59,48,38,48C17,48,0,37.3,0,24z" transform="translate(853,162.23)" id="shape34" stroke="#8d9cb1" fill="#ffffff"/><g transform="translate(853,179.58)" id="shape35"><text class="st3"><tspan y="2.6" x="20">Money </tspan><tspan y="16.6" x="7">Transaction</tspan></text></g><path d="M0,24C-0,15.4,7.2,7.5,19,3.2C30.7,-1.2,45.3,-1.2,57,3.2C68.8,7.5,76,15.4,76,24C76,37.3,59,48,38,48C17,48,0,37.3,0,24z" transform="translate(380,148.88)" id="shape36" stroke="#8d9cb1" fill="#ffffff"/><g transform="translate(380,166.15)" id="shape37"><text class="st2"><tspan y="2.6" x="14">Remove </tspan><tspan y="17.6" x="19">House</tspan></text></g><path d="M0,24C-0,15.4,7.2,7.5,19,3.2C30.7,-1.2,45.3,-1.2,57,3.2C68.8,7.5,76,15.4,76,24C76,37.3,59,48,38,48C17,48,0,37.3,0,24z" transform="translate(710,261.85)" id="shape38" stroke="#8d9cb1" fill="#ffffff"/><g transform="translate(710,279.2)" id="shape39"><text class="st2"><tspan y="10.1" x="6">Pay Money</tspan></text></g><path d="M0,24C-0,15.4,7.2,7.5,19,3.2C30.7,-1.2,45.3,-1.2,57,3.2C68.8,7.5,76,15.4,76,24C76,37.3,59,48,38,48C17,48,0,37.3,0,24z" transform="translate(550,392.66)" id="shape40" stroke="#8d9cb1" fill="#ffffff"/><g transform="translate(550,410.01)" id="shape41"><text class="st2"><tspan y="10.1" x="6">Create Ads</tspan></text></g><path d="M0,0L148.5,-85.3" transform="translate(133,583.69)" id="shape42" stroke="#000000" fill="none"/><path d="M0,0L148.5,208.7" transform="translate(133,289.69)" id="shape43" stroke="#000000" fill="none"/><path d="M0,0L107.7,347.3" transform="translate(133,289.69)" id="shape44" stroke="#000000" fill="none"/><path d="M0,0L109.5,-159.3" transform="translate(133,289.69)" id="shape45" stroke="#000000" fill="none"/><path d="M0,0L107.7,53.3" transform="translate(133,583.69)" id="shape46" stroke="#000000" fill="none"/><path d="M0,24C-0,15.4,7.2,7.5,19,3.2C30.7,-1.2,45.3,-1.2,57,3.2C68.8,7.5,76,15.4,76,24C76,37.3,59,48,38,48C17,48,0,37.3,0,24z" transform="translate(242.5,685.47)" id="shape47" stroke="#8d9cb1" fill="#ffffff"/><g transform="translate(242.5,702.82)" id="shape48"><text class="st2"><tspan y="2.6" x="6">Search For </tspan><tspan y="17.6" x="7">House Ads</tspan></text></g><path d="M0,0L109.5,125.8" transform="translate(133,583.69)" id="shape49" stroke="#000000" fill="none"/><path d="M0,0L109.5,419.8" transform="translate(133,289.69)" id="shape50" stroke="#000000" fill="none"/><path d="M0,24C-0,15.4,7.2,7.5,19,3.2C30.7,-1.2,45.3,-1.2,57,3.2C68.8,7.5,76,15.4,76,24C76,37.3,59,48,38,48C17,48,0,37.3,0,24z" transform="translate(549.25,217.65)" id="shape51" stroke="#8d9cb1" fill="#ffffff"/><g transform="translate(549.25,235)" id="shape52"><text class="st2"><tspan y="10.1" x="14">Edit Ads</tspan></text></g><g transform="translate(549.25,241.65)" id="shape53"><path d="M0,0L-110.3,47.4" stroke="#000000" stroke-dasharray="6,4" fill="none"/><path d="M-96.9,48.2L-110.3,47.4L-101.6,37.1" stroke="#000000" stroke-linecap="round" stroke-width="1" stroke-linejoin="round" fill="none"/><text class="st2"><tspan y="15.1" x="-89.8">&lt;&lt;extend>></tspan></text></g><g transform="translate(587.25,353.93)" id="shape54"><path d="M0,0L.8,38.7" stroke="#000000" stroke-dasharray="6,4" fill="none"/><path d="M6.5,26.6L.8,38.7L-5.5,26.9" stroke="#000000" stroke-linecap="round" stroke-width="1" stroke-linejoin="round" fill="none"/><text class="st2"><tspan y="12.2" x="-35.3">&lt;&lt;extend>></tspan></text></g><g transform="translate(587.25,305.93)" id="shape55"><path d="M0,0L-0,-40.3" stroke="#000000" stroke-dasharray="6,4" fill="none"/><path d="M-6,-28.3L-0,-40.3L6,-28.3" stroke="#000000" stroke-linecap="round" stroke-width="1" stroke-linejoin="round" fill="none"/><text class="st2"><tspan y="-20.3" x="-34.6">&lt;&lt;extend>></tspan></text></g><g transform="translate(550,416.66)" id="shape56"><path d="M0,0L-149,-103.6" stroke="#000000" stroke-dasharray="6,4" fill="none"/><path d="M-142.6,-91.8L-149,-103.6L-135.7,-101.7" stroke="#000000" stroke-linecap="round" stroke-width="1" stroke-linejoin="round" fill="none"/><text class="st2"><tspan y="-19.3" x="-109.1">&lt;&lt;extend>></tspan></text></g><g transform="translate(549.25,329.93)" id="shape57"><path d="M0,0L-110.3,-40.9" stroke="#000000" stroke-dasharray="6,4" fill="none"/><path d="M-101.1,-31.1L-110.3,-40.9L-96.9,-42.3" stroke="#000000" stroke-linecap="round" stroke-width="1" stroke-linejoin="round" fill="none"/><text class="st2"><tspan y="-14.8" x="-89.8">&lt;&lt;extend>></tspan></text></g><g transform="translate(626,416.66)" id="shape58"><path d="M0,0L122,-106.8" stroke="#000000" stroke-dasharray="6,4" fill="none"/><path d="M109,-103.4L122,-106.8L116.9,-94.4" stroke="#000000" stroke-linecap="round" stroke-width="1" stroke-linejoin="round" fill="none"/><text class="st2"><tspan y="-21" x="25.3">&lt;&lt;include>></tspan></text></g><g transform="translate(625.25,241.65)" id="shape59"><path d="M0,0L84.8,44.2" stroke="#000000" stroke-dasharray="6,4" fill="none"/><path d="M76.9,33.3L84.8,44.2L71.3,44" stroke="#000000" stroke-linecap="round" stroke-width="1" stroke-linejoin="round" fill="none"/><text class="st2"><tspan y="1.4" x="6.7">&lt;&lt;include>></tspan></text></g><g transform="translate(786,285.85)" id="shape60"><path d="M0,0L65,.2" stroke="#000000" stroke-dasharray="6,4" fill="none"/><path d="M53,-5.9L65,.2L53,6.1" stroke="#000000" stroke-linecap="round" stroke-width="1" stroke-linejoin="round" fill="none"/><text class="st2"><tspan y="-7.8" x="-3.2">&lt;&lt;include>></tspan></text></g><g transform="translate(889,262)" id="shape61"><path d="M0,0L2,-51.8" stroke="#000000" stroke-dasharray="6,4" fill="none"/><path d="M-4.5,-40L2,-51.8L7.5,-39.5" stroke="#000000" stroke-linecap="round" stroke-width="1" stroke-linejoin="round" fill="none"/><text class="st2"><tspan y="-27.8" x="-35.1">&lt;&lt;Include>></tspan></text></g><path d="M0,24C-0,15.4,7.2,7.5,19,3.2C30.7,-1.2,45.3,-1.2,57,3.2C68.8,7.5,76,15.4,76,24C76,37.3,59,48,38,48C17,48,0,37.3,0,24z" transform="translate(853,401.56)" id="shape62" stroke="#8d9cb1" fill="#ffffff"/><g transform="translate(853,418.92)" id="shape63"><text class="st2"><tspan y="10.1" x="19">Nagad</tspan></text></g><path d="M0,24C-0,15.4,7.2,7.5,19,3.2C30.7,-1.2,45.3,-1.2,57,3.2C68.8,7.5,76,15.4,76,24C76,37.3,59,48,38,48C17,48,0,37.3,0,24z" transform="translate(752,344.92)" id="shape64" stroke="#8d9cb1" fill="#ffffff"/><g transform="translate(752,362.27)" id="shape65"><text class="st2"><tspan y="10.1" x="20">bKash</tspan></text></g><g transform="translate(828,368.92)" id="shape66"><path d="M0,0L55.2,-53.4" stroke="#000000" fill="none"/><path d="M61,-58.9L52.5,-56.2L58,-50.5L61,-58.9" stroke="#000000" stroke-linecap="round" stroke-width="1" stroke-linejoin="round" fill="none"/></g><g transform="translate(891,401.56)" id="shape67"><path d="M0,0L-1.8,-83.6" stroke="#000000" fill="none"/><path d="M-2,-91.6L-5.8,-83.5L2.2,-83.7L-2,-91.6" stroke="#000000" stroke-linecap="round" stroke-width="1" stroke-linejoin="round" fill="none"/></g><path d="M0,24C-0,15.4,7.2,7.5,19,3.2C30.7,-1.2,45.3,-1.2,57,3.2C68.8,7.5,76,15.4,76,24C76,37.3,59,48,38,48C17,48,0,37.3,0,24z" transform="translate(763,404.72)" id="shape68" stroke="#8d9cb1" fill="#ffffff"/><g transform="translate(763,422.07)" id="shape69"><text class="st2"><tspan y="10.1" x="18">Rocket</tspan></text></g><g transform="translate(839,428.72)" id="shape70"><path d="M0,0L46.9,-111.3" stroke="#000000" fill="none"/><path d="M50,-118.7L43.2,-112.9L50.6,-109.8L50,-118.7" stroke="#000000" stroke-linecap="round" stroke-width="1" stroke-linejoin="round" fill="none"/></g><g transform="translate(994,282.39)" id="shape71"><path d="M11.5,7.6C11.5,3.4,14.9,0,19.1,0C23.3,0,26.8,3.4,26.8,7.6C26.8,11.9,23.3,15.3,19.1,15.3C14.9,15.3,11.5,11.9,11.5,7.6z" fill="#ffffff"/><path d="M11.5,7.6C11.5,3.4,14.9,0,19.1,0C23.3,0,26.8,3.4,26.8,7.6C26.8,11.9,23.3,15.3,19.1,15.3C14.9,15.3,11.5,11.9,11.5,7.6zM19.1,49.7L19.1,15.3M31.7,76.5L19.1,49.7L6.5,76.5M38.2,32.1L0,32.1" stroke="#8d9cb1" fill="none"/><text class="st1"><tspan y="92" x="-16.6">Mobile Bank</tspan></text></g><path d="M0,0L65,134.4" transform="translate(929,186.23)" id="shape72" stroke="#000000" fill="none"/><path d="M0,24C-0,15.4,7.2,7.5,19,3.2C30.7,-1.2,45.3,-1.2,57,3.2C68.8,7.5,76,15.4,76,24C76,37.3,59,48,38,48C17,48,0,37.3,0,24z" transform="translate(464,507.67)" id="shape73" stroke="#8d9cb1" fill="#ffffff"/><g transform="translate(464,525.03)" id="shape74"><text class="st2"><tspan y="10.1" x="16">Sign up</tspan></text></g><path d="M0,24C-0,15.4,7.2,7.5,19,3.2C30.7,-1.2,45.3,-1.2,57,3.2C68.8,7.5,76,15.4,76,24C76,37.3,59,48,38,48C17,48,0,37.3,0,24z" transform="translate(329,577.27)" id="shape75" stroke="#8d9cb1" fill="#ffffff"/><g transform="translate(329,594.62)" id="shape76"><text class="st2"><tspan y="2.6" x="13">Show all </tspan><tspan y="17.6" x="28">ads</tspan></text></g><path d="M0,24C-0,15.4,7.2,7.5,19,3.2C30.7,-1.2,45.3,-1.2,57,3.2C68.8,7.5,76,15.4,76,24C76,37.3,59,48,38,48C17,48,0,37.3,0,24z" transform="translate(551.25,162.8)" id="shape77" stroke="#8d9cb1" fill="#ffffff"/><g transform="translate(551.25,180.15)" id="shape78"><text class="st2"><tspan y="2.6" x="14">Remove </tspan><tspan y="17.6" x="27">Ads</tspan></text></g><g transform="translate(464,473)" id="shape79"><path d="M0,0L-98.7,23.5" stroke="#000000" fill="none"/><path d="M-106.5,25.4L-97.8,27.4L-99.6,19.6L-106.5,25.4" stroke="#000000" stroke-linecap="round" stroke-width="1" stroke-linejoin="round" fill="none"/></g><g transform="translate(464,531.67)" id="shape80"><path d="M0,0L-98.9,-30.9" stroke="#000000" fill="none"/><path d="M-106.5,-33.3L-100.1,-27.1L-97.7,-34.8L-106.5,-33.3" stroke="#000000" stroke-linecap="round" stroke-width="1" stroke-linejoin="round" fill="none"/></g><g transform="translate(349.5,726.58)" id="shape81"><path d="M0,0L-24,-13.2" stroke="#000000" fill="none"/><path d="M-31,-17.1L-25.9,-9.7L-22.1,-16.8L-31,-17.1" stroke="#000000" stroke-linecap="round" stroke-width="1" stroke-linejoin="round" fill="none"/></g><g transform="translate(351.46,667.78)" id="shape82"><path d="M0,0L-28,35.4" stroke="#000000" fill="none"/><path d="M-33,41.7L-24.9,37.9L-31.1,32.9L-33,41.7" stroke="#000000" stroke-linecap="round" stroke-width="1" stroke-linejoin="round" fill="none"/></g><path d="M0,24C-0,15.4,7.2,7.5,19,3.2C30.7,-1.2,45.3,-1.2,57,3.2C68.8,7.5,76,15.4,76,24C76,37.3,59,48,38,48C17,48,0,37.3,0,24z" transform="translate(684,131.45)" id="shape83" stroke="#8d9cb1" fill="#ffffff"/><g transform="translate(684,148.8)" id="shape84"><text class="st3"><tspan y="2.6" x="16">Remove </tspan><tspan y="16.6" x="10">tenant Info</tspan></text></g><path d="M0,24C-0,15.4,7.2,7.5,19,3.2C30.7,-1.2,45.3,-1.2,57,3.2C68.8,7.5,76,15.4,76,24C76,37.3,59,48,38,48C17,48,0,37.3,0,24z" transform="translate(669,54.31)" id="shape85" stroke="#8d9cb1" fill="#ffffff"/><g transform="translate(669,71.66)" id="shape86"><text class="st3"><tspan y="2.6" x="9">Edit House </tspan><tspan y="16.6" x="28">Info</tspan></text></g><path d="M0,0L230,-0.7" transform="translate(133,289.69)" id="shape87" stroke="#000000" fill="none"/><path d="M0,24C-0,15.4,7.2,7.5,19,3.2C30.7,-1.2,45.3,-1.2,57,3.2C68.8,7.5,76,15.4,76,24C76,37.3,59,48,38,48C17,48,0,37.3,0,24z" transform="translate(549.25,619.64)" id="shape88" stroke="#8d9cb1" fill="#ffffff"/><g transform="translate(549.25,636.99)" id="shape89"><text class="st2"><tspan y="2.6" x="7">Add ads to </tspan><tspan y="17.6" x="13">favorites</tspan></text></g><path d="M0,24C-0,15.4,7.2,7.5,19,3.2C30.7,-1.2,45.3,-1.2,57,3.2C68.8,7.5,76,15.4,76,24C76,37.3,59,48,38,48C17,48,0,37.3,0,24z" transform="translate(544,550.38)" id="shape90" stroke="#8d9cb1" fill="#ffffff"/><g transform="translate(544,567.73)" id="shape91"><text class="st3"><tspan y="2.6" x="25">View </tspan><tspan y="16.6" x="5">Favorite Ads</tspan></text></g><path d="M0,0L196,311.6" transform="translate(133,289.69)" id="shape92" stroke="#000000" fill="none"/><path d="M0,0L196,17.6" transform="translate(133,583.69)" id="shape93" stroke="#000000" fill="none"/><g transform="translate(393,78.23)" id="shape94"><path d="M0,0L-74.5,52.1" stroke="#000000" stroke-dasharray="6,4" fill="none"/><path d="M-61.2,50.2L-74.5,52.1L-68.1,40.3" stroke="#000000" stroke-linecap="round" stroke-width="1" stroke-linejoin="round" fill="none"/><text class="st2"><tspan y="3.6" x="-71.9">&lt;&lt;extend>></tspan></text></g><g transform="translate(380,172.88)" id="shape95"><path d="M0,0L-61.5,-42.5" stroke="#000000" stroke-dasharray="6,4" fill="none"/><path d="M-55,-30.7L-61.5,-42.5L-48.2,-40.6" stroke="#000000" stroke-linecap="round" stroke-width="1" stroke-linejoin="round" fill="none"/><text class="st2"><tspan y="-19.2" x="-65.4">&lt;&lt;extend>></tspan></text></g><g transform="translate(462,126.19)" id="shape96"><path d="M0,0L-143.5,4.2" stroke="#000000" stroke-dasharray="6,4" fill="none"/><path d="M-131.3,9.8L-143.5,4.2L-131.7,-2.2" stroke="#000000" stroke-linecap="round" stroke-width="1" stroke-linejoin="round" fill="none"/><text class="st2"><tspan y="-7.3" x="-106.4">&lt;&lt;extend>></tspan></text></g><g transform="translate(669,78.31)" id="shape97"><path d="M0,0L-131,47.9" stroke="#000000" stroke-dasharray="6,4" fill="none"/><path d="M-117.7,49.4L-131,47.9L-121.8,38.1" stroke="#000000" stroke-linecap="round" stroke-width="1" stroke-linejoin="round" fill="none"/><text class="st2"><tspan y="-1" x="-100.1">&lt;&lt;extend>></tspan></text></g><g transform="translate(757,123.84)" id="shape98"><path d="M0,0L-219,2.4" stroke="#000000" stroke-dasharray="6,4" fill="none"/><path d="M-206.9,8.2L-219,2.4L-207.1,-3.8" stroke="#000000" stroke-linecap="round" stroke-width="1" stroke-linejoin="round" fill="none"/><text class="st2"><tspan y="-7.6" x="-144.1">&lt;&lt;extend>></tspan></text></g><g transform="translate(684,155.45)" id="shape99"><path d="M0,0L-146,-29.3" stroke="#000000" stroke-dasharray="6,4" fill="none"/><path d="M-135.4,-21L-146,-29.3L-133.1,-32.8" stroke="#000000" stroke-linecap="round" stroke-width="1" stroke-linejoin="round" fill="none"/><text class="st2"><tspan y="-4.3" x="-107.6">&lt;&lt;extend>></tspan></text></g><g transform="translate(544,574.38)" id="shape100"><path d="M0,0L-139,26.9" stroke="#000000" stroke-dasharray="6,4" fill="none"/><path d="M-126.1,30.5L-139,26.9L-128.4,18.7" stroke="#000000" stroke-linecap="round" stroke-width="1" stroke-linejoin="round" fill="none"/><text class="st2"><tspan y="-4" x="-104.1">&lt;&lt;extend>></tspan></text></g><g transform="translate(549.25,643.64)" id="shape101"><path d="M0,0L-144.3,-42.4" stroke="#000000" stroke-dasharray="6,4" fill="none"/><path d="M-134.4,-33.2L-144.3,-42.4L-131,-44.7" stroke="#000000" stroke-linecap="round" stroke-width="1" stroke-linejoin="round" fill="none"/><text class="st2"><tspan y="-6" x="-106.8">&lt;&lt;extend>></tspan></text></g><g transform="translate(351.46,442.92)" id="shape102"><path d="M0,0L-30,-21.5" stroke="#000000" fill="none"/><path d="M-36.5,-26.2L-32.4,-18.3L-27.7,-24.8L-36.5,-26.2" stroke="#000000" stroke-linecap="round" stroke-width="1" stroke-linejoin="round" fill="none"/></g><g transform="translate(351.46,386.27)" id="shape103"><path d="M0,0L-30.4,25.3" stroke="#000000" fill="none"/><path d="M-36.5,30.5L-27.8,28.4L-33,22.3L-36.5,30.5" stroke="#000000" stroke-linecap="round" stroke-width="1" stroke-linejoin="round" fill="none"/></g><path d="M0,0L105.9,127" transform="translate(133,289.69)" id="shape104" stroke="#000000" fill="none"/><path d="M0,0L105.9,-166.9" transform="translate(133,583.69)" id="shape105" stroke="#000000" fill="none"/><g transform="translate(627.25,186.8)" id="shape106"><path d="M0,0L120.8,75" stroke="#000000" stroke-dasharray="6,4" fill="none"/><path d="M113.7,63.6L120.8,75L107.4,73.8" stroke="#000000" stroke-linecap="round" stroke-width="1" stroke-linejoin="round" fill="none"/><text class="st2"><tspan y="10.2" x="24.7">&lt;&lt;include>></tspan></text></g><g transform="translate(625.25,329.93)" id="shape107"><path d="M0,0L84.8,-44.1" stroke="#000000" stroke-dasharray="6,4" fill="none"/><path d="M71.3,-43.9L84.8,-44.1L76.9,-33.2" stroke="#000000" stroke-linecap="round" stroke-width="1" stroke-linejoin="round" fill="none"/><text class="st2"><tspan y="-17.1" x="6.7">&lt;&lt;include>></tspan></text></g><g transform="translate(551.25,186.8)" id="shape108"><path d="M0,0L-150.2,78.2" stroke="#000000" stroke-dasharray="6,4" fill="none"/><path d="M-136.8,78L-150.2,78.2L-142.4,67.4" stroke="#000000" stroke-linecap="round" stroke-width="1" stroke-linejoin="round" fill="none"/><text class="st2"><tspan y="16.4" x="-109.8">&lt;&lt;extend>></tspan></text></g></g></svg>