<svg xmlns="http://www.w3.org/2000/svg" xmlns:xlink="http://www.w3.org/1999/xlink" width="1133" xmlns:ev="http://www.w3.org/2001/xml-events" viewBox="0 0 1133 1597" height="1597"><style type="text/css"><![CDATA[
.st2 {fill:#1f6391;font-family:Arial;font-size:10pt}
.st1 {fill:#344961;font-family:Arial;font-size:10pt}
]]></style><defs/><g id="page1" transform="translate(5,5)"><rect x="0" y="0" fill="#ffffff" width="1123" height="1587" stroke="#808080"/><g id="shape1" transform="translate(112.88,331)"><path fill="#ffffff" d="M11.5,7.6C11.5,3.4,14.9,0,19.1,0C23.3,0,26.8,3.4,26.8,7.6C26.8,11.9,23.3,15.3,19.1,15.3C14.9,15.3,11.5,11.9,11.5,7.6z"/><path fill="none" d="M11.5,7.6C11.5,3.4,14.9,0,19.1,0C23.3,0,26.8,3.4,26.8,7.6C26.8,11.9,23.3,15.3,19.1,15.3C14.9,15.3,11.5,11.9,11.5,7.6zM19.1,49.7L19.1,15.3M31.7,76.5L19.1,49.7L6.5,76.5M38.2,32.1L0,32.1" stroke="#8d9cb1"/><text class="st1"><tspan x="-0.5" y="92">Owner</tspan></text></g><g id="shape2" transform="translate(85,535.69)"><path fill="#ffffff" d="M11.4,7.6C11.4,3.4,14.8,-0,19,-0C23.2,-0,26.6,3.4,26.6,7.6C26.6,11.8,23.2,15.2,19,15.2C14.8,15.2,11.4,11.8,11.4,7.6z"/><path fill="none" d="M11.4,7.6C11.4,3.4,14.8,-0,19,-0C23.2,-0,26.6,3.4,26.6,7.6C26.6,11.8,23.2,15.2,19,15.2C14.8,15.2,11.4,11.8,11.4,7.6zM19,49.4L19,15.2M31.5,76L19,49.4L6.5,76M38,31.9L0,31.9" stroke="#8d9cb1"/><text class="st1"><tspan x="-0.6" y="91.5">Owner</tspan></text></g><path fill="none" id="shape3" d="M0,0L755.5,0L755.5,755.5L0,755.5L0,0z" stroke="#000000" transform="translate(191.5,75.75)"/><path fill="#ffffff" id="shape4" d="M0,24C-0,15.4,7.2,7.5,19,3.2C30.7,-1.2,45.3,-1.2,57,3.2C68.8,7.5,76,15.4,76,24C76,37.3,59,48,38,48C17,48,0,37.3,0,24z" stroke="#8d9cb1" transform="translate(300,89.23)"/><g id="shape5" transform="translate(300,106.58)"><text class="st2"><tspan x="14" y="10.1">Register</tspan></text></g><path fill="#ffffff" id="shape6" d="M0,24C-0,15.4,7.2,7.5,19,3.2C30.7,-1.2,45.3,-1.2,57,3.2C68.8,7.5,76,15.4,76,24C76,37.3,59,48,38,48C17,48,0,37.3,0,24z" stroke="#8d9cb1" transform="translate(300,179)"/><g id="shape7" transform="translate(300,196.35)"><text class="st2"><tspan x="22" y="10.1">Login</tspan></text></g><path fill="#ffffff" id="shape8" d="M0,24C-0,15.4,7.2,7.5,19,3.2C30.7,-1.2,45.3,-1.2,57,3.2C68.8,7.5,76,15.4,76,24C76,37.3,59,48,38,48C17,48,0,37.3,0,24z" stroke="#8d9cb1" transform="translate(302,345.12)"/><g id="shape9" transform="translate(302,362.47)"><text class="st2"><tspan x="6" y="10.1">See Profile</tspan></text></g><path fill="#ffffff" id="shape10" d="M0,24C-0,15.4,7.2,7.5,19,3.2C30.7,-1.2,45.3,-1.2,57,3.2C68.8,7.5,76,15.4,76,24C76,37.3,59,48,38,48C17,48,0,37.3,0,24z" stroke="#8d9cb1" transform="translate(302,535.51)"/><g id="shape11" transform="translate(302,552.86)"><text class="st2"><tspan x="15" y="2.6">Change </tspan><tspan x="20" y="17.6">Profile</tspan></text></g><path fill="#ffffff" id="shape12" d="M0,24C-0,15.4,7.2,7.5,19,3.2C30.7,-1.2,45.3,-1.2,57,3.2C68.8,7.5,76,15.4,76,24C76,37.3,59,48,38,48C17,48,0,37.3,0,24z" stroke="#8d9cb1" transform="translate(302,594.08)"/><g id="shape13" transform="translate(302,611.43)"><text class="st2"><tspan x="26" y="2.6">See </tspan><tspan x="11" y="17.6">Favourite</tspan></text></g><path fill="#ffffff" id="shape14" d="M0,24C-0,15.4,7.2,7.5,19,3.2C30.7,-1.2,45.3,-1.2,57,3.2C68.8,7.5,76,15.4,76,24C76,37.3,59,48,38,48C17,48,0,37.3,0,24z" stroke="#8d9cb1" transform="translate(406,137.73)"/><g id="shape15" transform="translate(406,155.08)"><text class="st2"><tspan x="19" y="10.1">Owner</tspan></text></g><path fill="#ffffff" id="shape16" d="M0,24C-0,15.4,7.2,7.5,19,3.2C30.7,-1.2,45.3,-1.2,57,3.2C68.8,7.5,76,15.4,76,24C76,37.3,59,48,38,48C17,48,0,37.3,0,24z" stroke="#8d9cb1" transform="translate(300,235.73)"/><g id="shape17" transform="translate(300,253.08)"><text class="st2"><tspan x="26" y="2.6">See </tspan><tspan x="6" y="17.6">Notification</tspan></text></g><path fill="#ffffff" id="shape18" d="M0,24C-0,15.4,7.2,7.5,19,3.2C30.7,-1.2,45.3,-1.2,57,3.2C68.8,7.5,76,15.4,76,24C76,37.3,59,48,38,48C17,48,0,37.3,0,24z" stroke="#8d9cb1" transform="translate(406,89.16)"/><g id="shape19" transform="translate(406,106.51)"><text class="st2"><tspan x="19" y="10.1">Tenant</tspan></text></g><path fill="#ffffff" id="shape20" d="M0,24C-0,15.4,7.2,7.5,19,3.2C30.7,-1.2,45.3,-1.2,57,3.2C68.8,7.5,76,15.4,76,24C76,37.3,59,48,38,48C17,48,0,37.3,0,24z" stroke="#8d9cb1" transform="translate(302,408.92)"/><g id="shape21" transform="translate(300,426.27)"><text class="st2"><tspan x="6" y="10.1">Add House</tspan></text></g><path fill="#ffffff" id="shape22" d="M0,24C-0,15.4,7.2,7.5,19,3.2C30.7,-1.2,45.3,-1.2,57,3.2C68.8,7.5,76,15.4,76,24C76,37.3,59,48,38,48C17,48,0,37.3,0,24z" stroke="#8d9cb1" transform="translate(539.25,295.93)"/><g id="shape23" transform="translate(539.25,313.28)"><text class="st2"><tspan x="9" y="10.1">Boost Ads</tspan></text></g><path fill="#ffffff" id="shape24" d="M0,24C-0,15.4,7.2,7.5,19,3.2C30.7,-1.2,45.3,-1.2,57,3.2C68.8,7.5,76,15.4,76,24C76,37.3,59,48,38,48C17,48,0,37.3,0,24z" stroke="#8d9cb1" transform="translate(302,650.08)"/><g id="shape25" transform="translate(302,667.43)"><text class="st2"><tspan x="14" y="10.1">See Ads</tspan></text></g><path fill="#ffffff" id="shape26" d="M0,24C-0,15.4,7.2,7.5,19,3.2C30.7,-1.2,45.3,-1.2,57,3.2C68.8,7.5,76,15.4,76,24C76,37.3,59,48,38,48C17,48,0,37.3,0,24z" stroke="#8d9cb1" transform="translate(302,290.5)"/><g id="shape27" transform="translate(302,307.85)"><text class="st2"><tspan x="22" y="-4.9">Show </tspan><tspan x="15" y="10.1">Created </tspan><tspan x="27" y="25.1">Ads</tspan></text></g><path fill="#ffffff" id="shape28" d="M0,24C-0,15.4,7.2,7.5,19,3.2C30.7,-1.2,45.3,-1.2,57,3.2C68.8,7.5,76,15.4,76,24C76,37.3,59,48,38,48C17,48,0,37.3,0,24z" stroke="#8d9cb1" transform="translate(302,766.08)"/><g id="shape29" transform="translate(302,783.43)"><text class="st2"><tspan x="26" y="-4.9">See </tspan><tspan x="16" y="10.1">Houses </tspan><tspan x="17" y="25.1">Nearby</tspan></text></g><path fill="#ffffff" id="shape30" d="M0,24C-0,15.4,7.2,7.5,19,3.2C30.7,-1.2,45.3,-1.2,57,3.2C68.8,7.5,76,15.4,76,24C76,37.3,59,48,38,48C17,48,0,37.3,0,24z" stroke="#8d9cb1" transform="translate(841,345.27)"/><g id="shape31" transform="translate(841,362.62)"><text class="st2"><tspan x="19" y="-4.9">Mobile </tspan><tspan x="12" y="10.1">Financial </tspan><tspan x="16" y="25.1">Service</tspan></text></g><path fill="#ffffff" id="shape32" d="M0,24C-0,15.4,7.2,7.5,19,3.2C30.7,-1.2,45.3,-1.2,57,3.2C68.8,7.5,76,15.4,76,24C76,37.3,59,48,38,48C17,48,0,37.3,0,24z" stroke="#8d9cb1" transform="translate(302,480.43)"/><g id="shape33" transform="translate(302,497.78)"><text class="st2"><tspan x="26" y="2.6">See </tspan><tspan x="16" y="17.6">Houses</tspan></text></g><path fill="#ffffff" id="shape34" d="M0,24C-0,15.4,7.2,7.5,19,3.2C30.7,-1.2,45.3,-1.2,57,3.2C68.8,7.5,76,15.4,76,24C76,37.3,59,48,38,48C17,48,0,37.3,0,24z" stroke="#8d9cb1" transform="translate(841,463.08)"/><g id="shape35" transform="translate(841,480.43)"><text class="st2"><tspan x="4" y="10.1">Transaction</tspan></text></g><path fill="#ffffff" id="shape36" d="M0,24C-0,15.4,7.2,7.5,19,3.2C30.7,-1.2,45.3,-1.2,57,3.2C68.8,7.5,76,15.4,76,24C76,37.3,59,48,38,48C17,48,0,37.3,0,24z" stroke="#8d9cb1" transform="translate(491,518.15)"/><g id="shape37" transform="translate(491,535.43)"><text class="st2"><tspan x="14" y="2.6">Remove </tspan><tspan x="19" y="17.6">House</tspan></text></g><path fill="#ffffff" id="shape38" d="M0,24C-0,15.4,7.2,7.5,19,3.2C30.7,-1.2,45.3,-1.2,57,3.2C68.8,7.5,76,15.4,76,24C76,37.3,59,48,38,48C17,48,0,37.3,0,24z" stroke="#8d9cb1" transform="translate(661,387.08)"/><g id="shape39" transform="translate(661,404.43)"><text class="st2"><tspan x="6" y="10.1">Pay Money</tspan></text></g><path fill="#ffffff" id="shape40" d="M0,24C-0,15.4,7.2,7.5,19,3.2C30.7,-1.2,45.3,-1.2,57,3.2C68.8,7.5,76,15.4,76,24C76,37.3,59,48,38,48C17,48,0,37.3,0,24z" stroke="#8d9cb1" transform="translate(416,387)"/><g id="shape41" transform="translate(416,404.35)"><text class="st2"><tspan x="6" y="10.1">Create Ads</tspan></text></g><path fill="none" id="shape42" d="M0,0L177,-370.7" stroke="#000000" transform="translate(123,573.69)"/><path fill="none" id="shape43" d="M0,0L148.9,-166.2" stroke="#000000" transform="translate(151.12,369.23)"/><path fill="none" id="shape44" d="M0,0L150.9,190.3" stroke="#000000" transform="translate(151.12,369.23)"/><path fill="none" id="shape45" d="M0,0L150.9,-0.1" stroke="#000000" transform="translate(151.12,369.23)"/><path fill="none" id="shape46" d="M0,0L150.9,248.8" stroke="#000000" transform="translate(151.12,369.23)"/><path fill="none" id="shape47" d="M0,0L179,100.4" stroke="#000000" transform="translate(123,573.69)"/><path fill="none" id="shape48" d="M0,0L179,44.4" stroke="#000000" transform="translate(123,573.69)"/><path fill="none" id="shape49" d="M0,0L179,-14.2" stroke="#000000" transform="translate(123,573.69)"/><path fill="none" id="shape50" d="M0,0L179,216.4" stroke="#000000" transform="translate(123,573.69)"/><path fill="#ffffff" id="shape51" d="M0,24C-0,15.4,7.2,7.5,19,3.2C30.7,-1.2,45.3,-1.2,57,3.2C68.8,7.5,76,15.4,76,24C76,37.3,59,48,38,48C17,48,0,37.3,0,24z" stroke="#8d9cb1" transform="translate(302,706.51)"/><g id="shape52" transform="translate(302,723.86)"><text class="st2"><tspan x="6" y="2.6">Search For </tspan><tspan x="16" y="17.6">Houses</tspan></text></g><path fill="none" id="shape53" d="M0,0L179,156.8" stroke="#000000" transform="translate(123,573.69)"/><path fill="none" id="shape54" d="M0,0L150.9,420.8" stroke="#000000" transform="translate(151.12,369.23)"/><path fill="none" id="shape55" d="M0,0L150.9,361.3" stroke="#000000" transform="translate(151.12,369.23)"/><path fill="none" id="shape56" d="M0,0L179,-204.6" stroke="#000000" transform="translate(123,573.69)"/><path fill="none" id="shape57" d="M0,0L150.9,304.8" stroke="#000000" transform="translate(151.12,369.23)"/><path fill="#ffffff" id="shape58" d="M0,24C-0,15.4,7.2,7.5,19,3.2C30.7,-1.2,45.3,-1.2,57,3.2C68.8,7.5,76,15.4,76,24C76,37.3,59,48,38,48C17,48,0,37.3,0,24z" stroke="#8d9cb1" transform="translate(540,189.86)"/><g id="shape59" transform="translate(540,207.21)"><text class="st2"><tspan x="14" y="10.1">Edit Ads</tspan></text></g><path fill="none" id="shape60" d="M0,0L148.9,-109.5" stroke="#000000" transform="translate(151.12,369.23)"/><path fill="none" id="shape61" d="M0,0L150.9,-54.7" stroke="#000000" transform="translate(151.12,369.23)"/><path fill="none" id="shape62" d="M0,0L150.9,135.2" stroke="#000000" transform="translate(151.12,369.23)"/><path fill="none" id="shape63" d="M0,0L264.9,41.8" stroke="#000000" transform="translate(151.12,369.23)"/><g id="shape64" transform="translate(406,113.16)"><path fill="none" d="M0,0L-22,.1" stroke="#000000"/><path stroke-linejoin="round" stroke-linecap="round" fill="none" stroke-width="1" d="M-30,.1L-22,4.1L-22,-3.9L-30,.1" stroke="#000000"/></g><g id="shape65" transform="translate(406,161.73)"><path fill="none" d="M0,0L-25.8,-41.7" stroke="#000000"/><path stroke-linejoin="round" stroke-linecap="round" fill="none" stroke-width="1" d="M-30,-48.5L-29.2,-39.6L-22.4,-43.8L-30,-48.5" stroke="#000000"/></g><path fill="none" id="shape66" d="M0,0L150.9,63.7" stroke="#000000" transform="translate(151.12,369.23)"/><g id="shape67" transform="translate(540,213.86)"><path fill="none" stroke-dasharray="6,4" d="M0,0L-162,100.6" stroke="#000000"/><path stroke-linejoin="round" stroke-linecap="round" fill="none" stroke-width="1" d="M-148.6,99.4L-162,100.6L-155,89.2" stroke="#000000"/><text class="st2"><tspan x="-117.1" y="2.7">&lt;&lt;Include>></tspan></text></g><g id="shape68" transform="translate(539.25,319.93)"><path fill="none" stroke-dasharray="6,4" d="M0,0L-47.2,91.1" stroke="#000000"/><path stroke-linejoin="round" stroke-linecap="round" fill="none" stroke-width="1" d="M-36.4,83.2L-47.2,91.1L-47,77.7" stroke="#000000"/><text class="st2"><tspan x="-59.7" y="9.9">&lt;&lt;Include>></tspan></text></g><g id="shape69" transform="translate(577.25,295.93)"><path fill="none" stroke-dasharray="6,4" d="M0,0L.8,-58.1" stroke="#000000"/><path stroke-linejoin="round" stroke-linecap="round" fill="none" stroke-width="1" d="M-5.4,-46.1L.8,-58.1L6.6,-46" stroke="#000000"/><text class="st2"><tspan x="-35.7" y="-27.8">&lt;&lt;Include>></tspan></text></g><g id="shape70" transform="translate(491,542.15)"><path fill="none" stroke-dasharray="6,4" d="M0,0L-113,-37.7" stroke="#000000"/><path stroke-linejoin="round" stroke-linecap="round" fill="none" stroke-width="1" d="M-103.5,-28.2L-113,-37.7L-99.7,-39.6" stroke="#000000"/><text class="st2"><tspan x="-92.6" y="-14.2">&lt;&lt;Include>></tspan></text></g><g id="shape71" transform="translate(454,387)"><path fill="none" stroke-dasharray="6,4" d="M0,0L-76,-72.5" stroke="#000000"/><path stroke-linejoin="round" stroke-linecap="round" fill="none" stroke-width="1" d="M-71.5,-59.9L-76,-72.5L-63.2,-68.6" stroke="#000000"/><text class="st2"><tspan x="-74.1" y="-21.6">&lt;&lt;Include>></tspan></text></g><g id="shape72" transform="translate(539.25,319.93)"><path fill="none" stroke-dasharray="6,4" d="M0,0L-161.2,-5.4" stroke="#000000"/><path stroke-linejoin="round" stroke-linecap="round" fill="none" stroke-width="1" d="M-149.5,1L-161.2,-5.4L-149.1,-11" stroke="#000000"/><text class="st2"><tspan x="-116.7" y="-8.5">&lt;&lt;Include>></tspan></text></g><g id="shape73" transform="translate(661,411.08)"><path fill="none" stroke-dasharray="6,4" d="M0,0L-83.7,-67.2" stroke="#000000"/><path stroke-linejoin="round" stroke-linecap="round" fill="none" stroke-width="1" d="M-78.1,-55L-83.7,-67.2L-70.6,-64.3" stroke="#000000"/><text class="st2"><tspan x="-78" y="-20.3">&lt;&lt;Include>></tspan></text></g><g id="shape74" transform="translate(661,411.08)"><path fill="none" stroke-dasharray="6,4" d="M0,0L-169,-0.1" stroke="#000000"/><path stroke-linejoin="round" stroke-linecap="round" fill="none" stroke-width="1" d="M-157,5.9L-169,-0.1L-157,-6.1" stroke="#000000"/><text class="st2"><tspan x="-120.6" y="-7.8">&lt;&lt;Include>></tspan></text></g><g id="shape75" transform="translate(699,387.08)"><path fill="none" stroke-dasharray="6,4" d="M0,0L-83,-173.2" stroke="#000000"/><path stroke-linejoin="round" stroke-linecap="round" fill="none" stroke-width="1" d="M-83.2,-159.8L-83,-173.2L-72.4,-165" stroke="#000000"/><text class="st2"><tspan x="-77.6" y="-25.9">&lt;&lt;Include>></tspan></text></g><g id="shape76" transform="translate(737,411.08)"><path fill="none" stroke-dasharray="6,4" d="M0,0L104,-41.8" stroke="#000000"/><path stroke-linejoin="round" stroke-linecap="round" fill="none" stroke-width="1" d="M90.6,-42.9L104,-41.8L95.1,-31.8" stroke="#000000"/><text class="st2"><tspan x="17.4" y="-15.3">&lt;&lt;extend>></tspan></text></g><g id="shape77" transform="translate(879,463.08)"><path fill="none" stroke-dasharray="6,4" d="M0,0L-0,-69.8" stroke="#000000"/><path stroke-linejoin="round" stroke-linecap="round" fill="none" stroke-width="1" d="M-6,-57.8L-0,-69.8L6,-57.8" stroke="#000000"/><text class="st2"><tspan x="-36.1" y="-27.8">&lt;&lt;Include>></tspan></text></g><path fill="#ffffff" id="shape78" d="M0,24C-0,15.4,7.2,7.5,19,3.2C30.7,-1.2,45.3,-1.2,57,3.2C68.8,7.5,76,15.4,76,24C76,37.3,59,48,38,48C17,48,0,37.3,0,24z" stroke="#8d9cb1" transform="translate(850,218.38)"/><g id="shape79" transform="translate(850,235.73)"><text class="st2"><tspan x="19" y="10.1">Nagad</tspan></text></g><path fill="#ffffff" id="shape80" d="M0,24C-0,15.4,7.2,7.5,19,3.2C30.7,-1.2,45.3,-1.2,57,3.2C68.8,7.5,76,15.4,76,24C76,37.3,59,48,38,48C17,48,0,37.3,0,24z" stroke="#8d9cb1" transform="translate(718,266.25)"/><g id="shape81" transform="translate(718,283.6)"><text class="st2"><tspan x="20" y="10.1">bKash</tspan></text></g><g id="shape82" transform="translate(756,314.25)"><path fill="none" d="M0,0L115.2,29.1" stroke="#000000"/><path stroke-linejoin="round" stroke-linecap="round" fill="none" stroke-width="1" d="M123,31L116.2,25.2L114.3,32.9L123,31" stroke="#000000"/></g><g id="shape83" transform="translate(888,266.38)"><path fill="none" d="M0,0L-8.1,70.9" stroke="#000000"/><path stroke-linejoin="round" stroke-linecap="round" fill="none" stroke-width="1" d="M-9,78.9L-4.1,71.4L-12.1,70.5L-9,78.9" stroke="#000000"/></g><path fill="#ffffff" id="shape84" d="M0,24C-0,15.4,7.2,7.5,19,3.2C30.7,-1.2,45.3,-1.2,57,3.2C68.8,7.5,76,15.4,76,24C76,37.3,59,48,38,48C17,48,0,37.3,0,24z" stroke="#8d9cb1" transform="translate(756,189.93)"/><g id="shape85" transform="translate(756,207.28)"><text class="st2"><tspan x="18" y="10.1">Rocket</tspan></text></g><g id="shape86" transform="translate(794,237.93)"><path fill="none" d="M0,0L80,101.1" stroke="#000000"/><path stroke-linejoin="round" stroke-linecap="round" fill="none" stroke-width="1" d="M85,107.3L83.2,98.6L76.9,103.5L85,107.3" stroke="#000000"/></g><g id="shape87" transform="translate(661,411.08)"><path fill="none" stroke-dasharray="6,4" d="M0,0L-94,131.1" stroke="#000000"/><path stroke-linejoin="round" stroke-linecap="round" fill="none" stroke-width="1" d="M-82.1,124.8L-94,131.1L-91.9,117.8" stroke="#000000"/><text class="st2"><tspan x="-83.1" y="8.4">&lt;&lt;Include>></tspan></text></g><g id="shape88" transform="translate(1011,380.45)"><path fill="#ffffff" d="M11.5,7.6C11.5,3.4,14.9,0,19.1,0C23.3,0,26.8,3.4,26.8,7.6C26.8,11.9,23.3,15.3,19.1,15.3C14.9,15.3,11.5,11.9,11.5,7.6z"/><path fill="none" d="M11.5,7.6C11.5,3.4,14.9,0,19.1,0C23.3,0,26.8,3.4,26.8,7.6C26.8,11.9,23.3,15.3,19.1,15.3C14.9,15.3,11.5,11.9,11.5,7.6zM19.1,49.7L19.1,15.3M31.7,76.5L19.1,49.7L6.5,76.5M38.2,32.1L0,32.1" stroke="#8d9cb1"/><text class="st1"><tspan x="-0.5" y="92">Owner</tspan></text></g><path fill="none" id="shape89" d="M0,0L94,-68.4" stroke="#000000" transform="translate(917,487.08)"/><g id="shape90" transform="translate(338,137.23)"><path fill="none" stroke-dasharray="6,4" d="M0,0L0,41.8" stroke="#000000"/><path stroke-linejoin="round" stroke-linecap="round" fill="none" stroke-width="1" d="M6,29.8L0,41.8L-6,29.8" stroke="#000000"/><text class="st2"><tspan x="-34.6" y="12.2">&lt;&lt;extend>></tspan></text></g></g></svg>